<mxfile host="65bd71144e">
    <diagram id="ayauxI98XlN7MGJjVi2_" name="ページ1">
        <mxGraphModel dx="654" dy="1657" grid="1" gridSize="10" guides="1" tooltips="1" connect="1" arrows="1" fold="1" page="1" pageScale="1" pageWidth="827" pageHeight="1169" math="0" shadow="0">
            <root>
                <mxCell id="0"/>
                <mxCell id="1" parent="0"/>
                <mxCell id="4" value="&lt;svg data-name=&quot;Layer 1&quot; xmlns=&quot;http://www.w3.org/2000/svg&quot; viewBox=&quot;0 0 23 20.46348&quot;&gt;&lt;title&gt;logo&lt;/title&gt;&lt;path d=&quot;M18.91 6.633q-.367-.126-.74-.234.062-.252.115-.506c.56-2.72.194-4.912-1.058-5.634-1.2-.692-3.162.03-5.144 1.755q-.293.255-.572.525-.187-.18-.38-.352C9.053.344 6.97-.432 5.72.29 4.523.984 4.168 3.045 4.67 5.623q.077.383.17.762c-.293.084-.578.173-.85.268-2.435.85-3.99 2.18-3.99 3.56 0 1.425 1.67 2.855 4.206 3.72q.308.106.622.196-.102.407-.18.82c-.482 2.533-.106 4.545 1.09 5.235 1.234.712 3.306-.02 5.325-1.784q.24-.208.48-.442.302.293.62.568c1.956 1.682 3.886 2.36 5.08 1.67 1.235-.715 1.636-2.876 1.115-5.505q-.06-.3-.138-.614.218-.064.428-.133C21.285 13.07 23 11.657 23 10.213c0-1.386-1.605-2.725-4.09-3.58zM12.73 2.756c1.698-1.478 3.285-2.06 4.01-1.644.77.444 1.068 2.235.584 4.584q-.047.23-.103.457a23.538 23.538 0 0 0-3.076-.486A23.08 23.08 0 0 0 12.2 3.24q.258-.248.528-.484zM6.79 11.39q.313.604.653 1.19.347.6.722 1.183a20.922 20.922 0 0 1-2.12-.34c.204-.657.454-1.34.746-2.032zm0-2.31c-.286-.678-.53-1.345-.73-1.99.655-.147 1.355-.267 2.084-.358q-.366.57-.705 1.16-.34.586-.65 1.188zm.522 1.156q.454-.945.98-1.854.522-.91 1.114-1.775c.684-.052 1.385-.08 2.094-.08.712 0 1.414.028 2.098.08q.585.865 1.108 1.77.526.906.992 1.845-.46.948-.988 1.862-.523.908-1.104 1.78c-.682.05-1.387.074-2.106.074-.716 0-1.412-.022-2.082-.066q-.596-.87-1.124-1.783-.526-.91-.982-1.854zm8.25 2.34q.346-.603.666-1.22A20.867 20.867 0 0 1 17 13.38a20.852 20.852 0 0 1-2.145.365q.364-.578.706-1.17zm.656-3.495q-.318-.604-.66-1.196-.338-.582-.7-1.15c.733.093 1.436.216 2.097.367a20.96 20.96 0 0 1-.737 1.98zM11.51 3.945a21.013 21.013 0 0 1 1.354 1.634q-1.358-.065-2.718 0c.447-.59.905-1.138 1.365-1.634zM6.214 1.14c.77-.445 2.47.19 4.264 1.783.115.102.23.208.345.318a23.545 23.545 0 0 0-1.96 2.426 24.008 24.008 0 0 0-3.068.477q-.088-.352-.158-.71v.002c-.433-2.21-.146-3.876.577-4.294zM5.09 13.183q-.285-.082-.566-.177A8.324 8.324 0 0 1 1.84 11.58a2.03 2.03 0 0 1-.857-1.368c0-.837 1.248-1.905 3.33-2.63q.393-.138.792-.25a23.565 23.565 0 0 0 1.12 2.904 23.922 23.922 0 0 0-1.134 2.946zm5.326 4.48a8.322 8.322 0 0 1-2.575 1.61 2.03 2.03 0 0 1-1.612.062c-.725-.42-1.027-2.034-.616-4.2q.074-.385.168-.764a23.104 23.104 0 0 0 3.1.448 23.91 23.91 0 0 0 1.974 2.44q-.214.207-.438.403zm1.122-1.112c-.466-.502-.93-1.058-1.384-1.656q.66.026 1.346.026.703 0 1.388-.03a20.894 20.894 0 0 1-1.35 1.66zm5.967 1.367a2.03 2.03 0 0 1-.753 1.428c-.725.42-2.275-.126-3.947-1.564q-.287-.246-.578-.526a23.09 23.09 0 0 0 1.928-2.448 22.936 22.936 0 0 0 3.115-.48q.07.284.124.556a8.32 8.32 0 0 1 .11 3.035zm.834-4.907c-.127.042-.256.082-.388.12a23.06 23.06 0 0 0-1.164-2.913 23.05 23.05 0 0 0 1.12-2.87c.234.067.463.14.683.215 2.13.732 3.428 1.816 3.428 2.65 0 .89-1.403 2.044-3.68 2.798z&quot; fill=&quot;#61dafb&quot;/&gt;&lt;path d=&quot;M11.5 8.159a2.054 2.054 0 1 1-2.054 2.052A2.054 2.054 0 0 1 11.5 8.16&quot; fill=&quot;#61dafb&quot;/&gt;&lt;/svg&gt;" style="rounded=1;whiteSpace=wrap;html=1;arcSize=15;" vertex="1" parent="1">
                    <mxGeometry x="70" y="-110" width="580" height="630" as="geometry"/>
                </mxCell>
                <mxCell id="7" value="" style="shape=image;verticalLabelPosition=bottom;labelBackgroundColor=#ffffff;verticalAlign=top;aspect=fixed;imageAspect=0;image=data:image/jpeg,/9j/4AAQSkZJRgABAgEBLAEsAAD/7QAsUGhvdG9zaG9wIDMuMAA4QklNA+0AAAAAABABLAAAAAEAAQEsAAAAAQAB/+ElAWh0dHA6Ly9ucy5hZG9iZS5jb20veGFwLzEuMC8APD94cGFja2V0IGJlZ2luPSLvu78iIGlkPSJXNU0wTXBDZWhpSHpyZVN6TlRjemtjOWQiPz4KPHg6eG1wbWV0YSB4bWxuczp4PSJhZG9iZTpuczptZXRhLyIgeDp4bXB0az0iQWRvYmUgWE1QIENvcmUgNS42LWMxNDMgNzkuMTYxMzU2LCAyMDE3LzA5LzA3LTAxOjExOjIyICAgICAgICAiPgogICA8cmRmOlJERiB4bWxuczpyZGY9Imh0dHA6Ly93d3cudzMub3JnLzE5OTkvMDIvMjItcmRmLXN5bnRheC1ucyMiPgogICAgICA8cmRmOkRlc2NyaXB0aW9uIHJkZjphYm91dD0iIgogICAgICAgICAgICB4bWxuczpkYz0iaHR0cDovL3B1cmwub3JnL2RjL2VsZW1lbnRzLzEuMS8iCiAgICAgICAgICAgIHhtbG5zOnhtcD0iaHR0cDovL25zLmFkb2JlLmNvbS94YXAvMS4wLyIKICAgICAgICAgICAgeG1sbnM6eG1wR0ltZz0iaHR0cDovL25zLmFkb2JlLmNvbS94YXAvMS4wL2cvaW1nLyIKICAgICAgICAgICAgeG1sbnM6eG1wTU09Imh0dHA6Ly9ucy5hZG9iZS5jb20veGFwLzEuMC9tbS8iCiAgICAgICAgICAgIHhtbG5zOnN0UmVmPSJodHRwOi8vbnMuYWRvYmUuY29tL3hhcC8xLjAvc1R5cGUvUmVzb3VyY2VSZWYjIgogICAgICAgICAgICB4bWxuczpzdEV2dD0iaHR0cDovL25zLmFkb2JlLmNvbS94YXAvMS4wL3NUeXBlL1Jlc291cmNlRXZlbnQjIgogICAgICAgICAgICB4bWxuczppbGx1c3RyYXRvcj0iaHR0cDovL25zLmFkb2JlLmNvbS9pbGx1c3RyYXRvci8xLjAvIgogICAgICAgICAgICB4bWxuczpwZGY9Imh0dHA6Ly9ucy5hZG9iZS5jb20vcGRmLzEuMy8iPgogICAgICAgICA8ZGM6Zm9ybWF0PmltYWdlL2pwZWc8L2RjOmZvcm1hdD4KICAgICAgICAgPGRjOnRpdGxlPgogICAgICAgICAgICA8cmRmOkFsdD4KICAgICAgICAgICAgICAgPHJkZjpsaSB4bWw6bGFuZz0ieC1kZWZhdWx0Ij5Hby1Mb2dvX1ZlcnNpb25zPC9yZGY6bGk+CiAgICAgICAgICAgIDwvcmRmOkFsdD4KICAgICAgICAgPC9kYzp0aXRsZT4KICAgICAgICAgPHhtcDpNZXRhZGF0YURhdGU+MjAxOC0wNC0xOFQxNTo0NjoxNi0wNjowMDwveG1wOk1ldGFkYXRhRGF0ZT4KICAgICAgICAgPHhtcDpNb2RpZnlEYXRlPjIwMTgtMDQtMThUMjE6NDY6MjFaPC94bXA6TW9kaWZ5RGF0ZT4KICAgICAgICAgPHhtcDpDcmVhdGVEYXRlPjIwMTgtMDQtMThUMTU6NDY6MTYtMDY6MDA8L3htcDpDcmVhdGVEYXRlPgogICAgICAgICA8eG1wOkNyZWF0b3JUb29sPkFkb2JlIElsbHVzdHJhdG9yIENDIDIyLjEgKE1hY2ludG9zaCk8L3htcDpDcmVhdG9yVG9vbD4KICAgICAgICAgPHhtcDpUaHVtYm5haWxzPgogICAgICAgICAgICA8cmRmOkFsdD4KICAgICAgICAgICAgICAgPHJkZjpsaSByZGY6cGFyc2VUeXBlPSJSZXNvdXJjZSI+CiAgICAgICAgICAgICAgICAgIDx4bXBHSW1nOndpZHRoPjI1NjwveG1wR0ltZzp3aWR0aD4KICAgICAgICAgICAgICAgICAgPHhtcEdJbWc6aGVpZ2h0PjEyPC94bXBHSW1nOmhlaWdodD4KICAgICAgICAgICAgICAgICAgPHhtcEdJbWc6Zm9ybWF0PkpQRUc8L3htcEdJbWc6Zm9ybWF0PgogICAgICAgICAgICAgICAgICA8eG1wR0ltZzppbWFnZT4vOWovNEFBUVNrWkpSZ0FCQWdFQkxBRXNBQUQvN1FBc1VHaHZkRzl6YUc5d0lETXVNQUE0UWtsTkErMEFBQUFBQUJBQkxBQUFBQUVBJiN4QTtBUUVzQUFBQUFRQUIvKzRBRGtGa2IySmxBR1RBQUFBQUFmL2JBSVFBQmdRRUJBVUVCZ1VGQmdrR0JRWUpDd2dHQmdnTERBb0tDd29LJiN4QTtEQkFNREF3TURBd1FEQTRQRUE4T0RCTVRGQlFURXh3Ykd4c2NIeDhmSHg4Zkh4OGZId0VIQndjTkRBMFlFQkFZR2hVUkZSb2ZIeDhmJiN4QTtIeDhmSHg4Zkh4OGZIeDhmSHg4Zkh4OGZIeDhmSHg4Zkh4OGZIeDhmSHg4Zkh4OGZIeDhmSHg4Zkh4OGYvOEFBRVFnQURBRUFBd0VSJiN4QTtBQUlSQVFNUkFmL0VBYUlBQUFBSEFRRUJBUUVBQUFBQUFBQUFBQVFGQXdJR0FRQUhDQWtLQ3dFQUFnSURBUUVCQVFFQUFBQUFBQUFBJiN4QTtBUUFDQXdRRkJnY0lDUW9MRUFBQ0FRTURBZ1FDQmdjREJBSUdBbk1CQWdNUkJBQUZJUkl4UVZFR0UyRWljWUVVTXBHaEJ4V3hRaVBCJiN4QTtVdEhoTXhaaThDUnlndkVsUXpSVGtxS3lZM1BDTlVRbms2T3pOaGRVWkhURDB1SUlKb01KQ2hnWmhKUkZScVMwVnROVktCcnk0L1BFJiN4QTsxT1QwWlhXRmxhVzF4ZFhsOVdaMmhwYW10c2JXNXZZM1IxZG5kNGVYcDdmSDErZjNPRWhZYUhpSW1LaTR5TmpvK0NrNVNWbHBlWW1aJiN4QTtxYm5KMmVuNUtqcEtXbXA2aXBxcXVzcmE2dm9SQUFJQ0FRSURCUVVFQlFZRUNBTURiUUVBQWhFREJDRVNNVUVGVVJOaElnWnhnWkV5JiN4QTtvYkh3Rk1IUjRTTkNGVkppY3ZFekpEUkRnaGFTVXlXaVk3TENCM1BTTmVKRWd4ZFVrd2dKQ2hnWkpqWkZHaWRrZEZVMzhxT3p3eWdwJiN4QTswK1B6aEpTa3RNVFU1UFJsZFlXVnBiWEYxZVgxUmxabWRvYVdwcmJHMXViMlIxZG5kNGVYcDdmSDErZjNPRWhZYUhpSW1LaTR5TmpvJiN4QTsrRGxKV1dsNWlabXB1Y25aNmZrcU9rcGFhbnFLbXFxNnl0cnErdi9hQUF3REFRQUNFUU1SQUQ4QTlVNHE3RlhZcTdGVks2K3RlaWZxJiN4QTt2RDFqME1oSVVlK3diSlJxOTJNK0t2VHplZWVlTmM4NGFUb0U3eXUwUHJ5cmF4enFZcTBZT3pPaGorSmRvNmIwNitPYmJSWWNPVElLJiN4QTszb1gxZVo3WTFtcHc0Q2VWbmh2YnozRmU3eTVzTXVwTEx5eHJFVnhwazkxUGVvaGtTOFdhRm9wK1NCdVhwaFdiMHlTYThqOFE4TTJFJiN4QTtSTE5DcEFBZDFIYjlyb2NwaG84b2xqTTVUcStMaWpVdHU2cjRmZnpScDByUzd6eWhMNXB2OWNsYnpBeFo0bDlWYXJJcmtMR0UrM1VqJiN4QTtmWWluYmJLL0ZsSE40VVlmdS9jM2Zsc2VUU25VenlueHVtL1crVmMvMWRObnF2azI3dnJ6eXZwdHpmRW02bGdWblp1ckQ5bGovckxRJiN4QTs1bzlYQ01jc2hIbGIyWFptU2M5UENVL3FNZng4MEw1c1BuVVJGOUFXSXJIeFBCV1Q2eElUc1FCT3ZvZ0N0ZnRWL1ZsRG5Qbjc4d3RSJiN4QTs4dythZlBzL2svelRxRjFaNmZwR21HOWJUb0pJSUpMMjVNS3ppSlgvQUxndCs4NDhpR0FDTjc0cXdYU2ZOODBLdytSOUMxYlVORDBQJiN4QTtWdFNqanY3bTZ1b3BrZ2lMQ05oSEpBa1lwUjZ5RU1GYWk5QlhBbDZKWTZGcFg1Zi9BSnplVTlLOGphN2NhaEZyQjRhN2FOTWx3cGo2JiN4QTtGNVBTQ3JVcUdmY1ZXbGVtS3ZwckZERk5WbTg4d1hYcXhvcldZSE9RV3hpWUlxajRoKytWWkNUVHNEbFo0blk0bzZjaWo5WG5mNk5uJiN4QTtpZDNORnJXa3plWjlkdTdtOXY1TG1TSllJSm9vbHRsVlZaRHhrRG1qY3FLcUFkT3VKTDFrQWNVeGh4aU1ZOEkzSUo0dmw5cEtjZVdtJiN4QTtpODhhc2JEekZyTnhiYVJwMXFuMVcybW1SWkpCc0F6T1ZDTWQ2azhhMHA4OFE0MnFCMGtPTEZBR2NwYmtEa3kvOG1icTRTKzh3YVJCJiN4QTtlUGZhSHA4eXJwMDc3aWhaeDhKNlVaVkJvTnU0NjVLTHJPM0lBeHh6STRja2g2aDhucDdjdUo0MDVkcTlNTXJyYm04K0V0dmJqVWJlJiN4QTtHYVUvWlFWVWppUlVrQWUrMWMwT3YxT3F3WTV6NlJHMzAxdnQ3OXIreHlzVUlTSUNTU0NLTlliaG5rZWR3SE1pdXV4cWRxRUUxR2NoJiN4QTtrRU1ZaG1NcHl5UzM0aEljKzdxYkhlNTRzM0doU0p0NDRkUWpudWIyNUt1aElSS2djUUJVR245TXo5TGl4NjZPVE5xTWhCanlGamJiJiN4QTtuWDZ2TnFtVGpJakFKcG9FczB1bmd5a3R4WXFqSHFWRlA0NTBQczVteVpOS0RNM1JJQjh2eFljVFZ4QW5zakxvWFJpcGJGUklkdVRrJiN4QTs3ZTQyT2RCR3VyaFQ0cTlMRWZNbW9hNUJadzI5eEtiVVhjdnB0S2VGVlFVcWF4OWp5OGUyWnVDRUNTUnZUcHRkbXl4aUlrOFBFYXZiJiN4QTtsOEVobHVZOUV2NWhwenpyTXFzZ2thU05sYXRSektxdlR1QWN5Ukh4SWppcW5YU21OUE04SEZmdkh6Uk4zWVdWdm9jT3NKcVR2cThuJiN4QTtCeFNRRThtUHhML01DdmMxeU1aa3pNT0gwdHVUREdPRVpSTStJYTYvams5QjArU2FXd3RwSnhTZDRrYVVlREZRVy9ITlhNQVNOY25wJiN4QTtNTWlZQW5uUVV0Uy9TWmhJc09BZWhKTEg0cWpjQlFRVjM2YjRCU012SFhwWUY1cXY5Y212ZE0wVFVMbDdDQytjdGN5MWpCNFY0aGVVJiN4QTtaNC9SWHVNeU1ZRkU4NmRCMmhseXluREZLWEFKbmM3ZkxaaXY2WGJRbXZMZlIydTdhU1ZCSEx6bGlrQ2l1N0gwMUZHN0Rlb3k3aDRxJiN4QTtKcDA1MUg1YmlqaTR3VDNrSDQ3ZFUyMXJUTExRTGJTOVUwYlZYdWRibmxYbUJJcitvR1dwUEViMDVVV2hPOWNoQ1hGWUkyY3pWWUk2JiN4QTtZUXlZcG1XVW52dS94eWV1NWh2WU94VjJLdXhWMktwVjVvL1FINkV1UDA5dy9SdEI2dk92V3Z3OGVQeGNxOU9PK1g2YnhPTWVIOVRoJiN4QTs2L3dmQmw0MWVIMS9IZjdtRmVUditWVWZYMy9SOWZybnB0eCt2Y3FjT0o5VGh6K0Q3TmE5NmUxYzJPci9BRFhENnVYazZIc3orVFBFJiN4QTsvZC9YWDhWOHV0WHR5K3hBVy84QXlwZjlNQ25PbnFmRDZucS9WZVZkdXY3TmY1dHZveTJYNXpnL3N0eG9meVI0dngvcGNQOEFaOW53JiN4QTtlcngrbjZhK25UMDZEaHhweDQwMnBUdG1qTDJRcXRsMkJMeGo4OC8rVkZmcFN5L3gxNm42YjlMOTE5UjlUNng2RlRUMWZUK0hqeXJ4JiN4QTs1NzlhZDhWUys0LzZGbS81VmNuOXovaDc2eDhIRDFmMGg5YzRpdlg5L3dBK1BXdndjZmFtS3BqK1IzL0tpUDBsZGY0SDVmcHowejZuJiN4QTsxNzFQclhvMUZmUzlUNGVOZnRjTi9IdGlyMmJGWFlxOFgxUC9BSlVSL2lTVDEvVTUrcisrOUgxZnFmT3Z4ZlkvWnIvTHQ5R1FlcXhmJiN4QTt5ajRRcnU2MXhJL3ozL3lwbjlJUS9wS3YxdjBVL3dDT2JYajZYRWVsejRmQjlpbkh2U25hbU96VDJmOEFuK0U4SDAzL0FCZC9YeloxJiN4QTs1SS93bitnSXY4TCtuK2pLbjdITGw2bjdYcWMvajUvNjM2cVpJT28xL2plS2ZHK3Y4Y2svd3VFc205TDBYOWFucGNUejVkS2Q2NVZuJiN4QTs0T0E4ZGNGYjN5cGxHNzI1cEphZjRkK3REMDY4Ni9CenJ4cjI2L3h6a2RGL0pYakRoK3E5dUs2djQvcGMvSjQvRHU2Ni93QU8vVzI1JiN4QTs4dVZmajRjdUZlL1QrR0RWL3dBbGVPZUsrSzk2dmh2NGZvWEg0L0RzblZ2NkhvcDZGUFJwOEhIcFRPdTAvaCtHUERyZ3JhdVRnVHU5JiN4QTsrYXBsekZLL01mNkYvUnAvUzlQcS9JY092TG5RMDRVM3JsMkRqNHZSemNUVytGNGY3MzZmeHlTWFEvOEFBM0M1K3IwcjZiZXQ5WnJYJiN4QTswKy9IbHQ5MitaR2J4dHIreHdkSitVbzhQZHZmY2h0TS93Q1ZmL3BCUFM1ZXB5L2Rldno5UGxYYjdYL0cyVHllUHc3dE9EOGx4N2MvJiN4QTtPNi9Idlp2bXVkKzdGV05lZWY4QUNYMUdIL0VQVGtmcTNDdnExMjVjT085T2xlMlc0dUsvUzZ6dFQ4dHdEeC9oMy9CS05GLzVWaitoJiN4QTtMNzBPSDFXZyt2ZldPZnEwcjhGSy9GOXJwdzcrK1RsNGxpK2JoNlg4aDRVdUd1SCtLN3Z5OC9kWFZSOHBmOHEwL1M4ZjZONS9wRC9qJiN4QTsyK3M4NmN2OGpsOFBMd3J2NFljbmlWdnlhK3ovQU1oNG84UDYrbDM5bHY4QS85az08L3htcEdJbWc6aW1hZ2U+CiAgICAgICAgICAgICAgIDwvcmRmOmxpPgogICAgICAgICAgICA8L3JkZjpBbHQ+CiAgICAgICAgIDwveG1wOlRodW1ibmFpbHM+CiAgICAgICAgIDx4bXBNTTpJbnN0YW5jZUlEPnhtcC5paWQ6N2UxZTdiMmQtZGJlZS00ZTk1LTgyZDEtYTE4ODE3ODAwZTY3PC94bXBNTTpJbnN0YW5jZUlEPgogICAgICAgICA8eG1wTU06RG9jdW1lbnRJRD54bXAuZGlkOjdlMWU3YjJkLWRiZWUtNGU5NS04MmQxLWExODgxNzgwMGU2NzwveG1wTU06RG9jdW1lbnRJRD4KICAgICAgICAgPHhtcE1NOk9yaWdpbmFsRG9jdW1lbnRJRD51dWlkOjVEMjA4OTI0OTNCRkRCMTE5MTRBODU5MEQzMTUwOEM4PC94bXBNTTpPcmlnaW5hbERvY3VtZW50SUQ+CiAgICAgICAgIDx4bXBNTTpSZW5kaXRpb25DbGFzcz5wcm9vZjpwZGY8L3htcE1NOlJlbmRpdGlvbkNsYXNzPgogICAgICAgICA8eG1wTU06RGVyaXZlZEZyb20gcmRmOnBhcnNlVHlwZT0iUmVzb3VyY2UiPgogICAgICAgICAgICA8c3RSZWY6aW5zdGFuY2VJRD54bXAuaWlkOmM2ZmI4ZDliLTVjNmEtNDZhYy1hM2EyLWJkOTI4NzcwNWMzNTwvc3RSZWY6aW5zdGFuY2VJRD4KICAgICAgICAgICAgPHN0UmVmOmRvY3VtZW50SUQ+eG1wLmRpZDpjNmZiOGQ5Yi01YzZhLTQ2YWMtYTNhMi1iZDkyODc3MDVjMzU8L3N0UmVmOmRvY3VtZW50SUQ+CiAgICAgICAgICAgIDxzdFJlZjpvcmlnaW5hbERvY3VtZW50SUQ+dXVpZDo1RDIwODkyNDkzQkZEQjExOTE0QTg1OTBEMzE1MDhDODwvc3RSZWY6b3JpZ2luYWxEb2N1bWVudElEPgogICAgICAgICAgICA8c3RSZWY6cmVuZGl0aW9uQ2xhc3M+cHJvb2Y6cGRmPC9zdFJlZjpyZW5kaXRpb25DbGFzcz4KICAgICAgICAgPC94bXBNTTpEZXJpdmVkRnJvbT4KICAgICAgICAgPHhtcE1NOkhpc3Rvcnk+CiAgICAgICAgICAgIDxyZGY6U2VxPgogICAgICAgICAgICAgICA8cmRmOmxpIHJkZjpwYXJzZVR5cGU9IlJlc291cmNlIj4KICAgICAgICAgICAgICAgICAgPHN0RXZ0OmFjdGlvbj5zYXZlZDwvc3RFdnQ6YWN0aW9uPgogICAgICAgICAgICAgICAgICA8c3RFdnQ6aW5zdGFuY2VJRD54bXAuaWlkOmE5MWU5YjRmLWI2ODQtNDhkZS1iM2YxLTQ2NzhhNWZiYjllMDwvc3RFdnQ6aW5zdGFuY2VJRD4KICAgICAgICAgICAgICAgICAgPHN0RXZ0OndoZW4+MjAxNy0wNy0wOVQxODo1NTo0MS0wNjowMDwvc3RFdnQ6d2hlbj4KICAgICAgICAgICAgICAgICAgPHN0RXZ0OnNvZnR3YXJlQWdlbnQ+QWRvYmUgSWxsdXN0cmF0b3IgQ0MgMjAxNyAoTWFjaW50b3NoKTwvc3RFdnQ6c29mdHdhcmVBZ2VudD4KICAgICAgICAgICAgICAgICAgPHN0RXZ0OmNoYW5nZWQ+Lzwvc3RFdnQ6Y2hhbmdlZD4KICAgICAgICAgICAgICAgPC9yZGY6bGk+CiAgICAgICAgICAgICAgIDxyZGY6bGkgcmRmOnBhcnNlVHlwZT0iUmVzb3VyY2UiPgogICAgICAgICAgICAgICAgICA8c3RFdnQ6YWN0aW9uPnNhdmVkPC9zdEV2dDphY3Rpb24+CiAgICAgICAgICAgICAgICAgIDxzdEV2dDppbnN0YW5jZUlEPnhtcC5paWQ6N2UxZTdiMmQtZGJlZS00ZTk1LTgyZDEtYTE4ODE3ODAwZTY3PC9zdEV2dDppbnN0YW5jZUlEPgogICAgICAgICAgICAgICAgICA8c3RFdnQ6d2hlbj4yMDE4LTA0LTE4VDE1OjQ2OjE2LTA2OjAwPC9zdEV2dDp3aGVuPgogICAgICAgICAgICAgICAgICA8c3RFdnQ6c29mdHdhcmVBZ2VudD5BZG9iZSBJbGx1c3RyYXRvciBDQyAyMi4xIChNYWNpbnRvc2gpPC9zdEV2dDpzb2Z0d2FyZUFnZW50PgogICAgICAgICAgICAgICAgICA8c3RFdnQ6Y2hhbmdlZD4vPC9zdEV2dDpjaGFuZ2VkPgogICAgICAgICAgICAgICA8L3JkZjpsaT4KICAgICAgICAgICAgPC9yZGY6U2VxPgogICAgICAgICA8L3htcE1NOkhpc3Rvcnk+CiAgICAgICAgIDxpbGx1c3RyYXRvcjpTdGFydHVwUHJvZmlsZT5QcmludDwvaWxsdXN0cmF0b3I6U3RhcnR1cFByb2ZpbGU+CiAgICAgICAgIDxwZGY6UHJvZHVjZXI+QWRvYmUgUERGIGxpYnJhcnkgMTUuMDA8L3BkZjpQcm9kdWNlcj4KICAgICAgPC9yZGY6RGVzY3JpcHRpb24+CiAgIDwvcmRmOlJERj4KPC94OnhtcG1ldGE+CiAgICAgICAgICAgICAgICAgICAgICAgICAgICAgICAgICAgICAgICAgICAgICAgICAgICAgICAgICAgICAgICAgICAgICAgICAgICAgICAgICAgICAgICAgICAgICAgICAgICAKICAgICAgICAgICAgICAgICAgICAgICAgICAgICAgICAgICAgICAgICAgICAgICAgICAgICAgICAgICAgICAgICAgICAgICAgICAgICAgICAgICAgICAgICAgICAgICAgICAgIAogICAgICAgICAgICAgICAgICAgICAgICAgICAgICAgICAgICAgICAgICAgICAgICAgICAgICAgICAgICAgICAgICAgICAgICAgICAgICAgICAgICAgICAgICAgICAgICAgICAgCiAgICAgICAgICAgICAgICAgICAgICAgICAgICAgICAgICAgICAgICAgICAgICAgICAgICAgICAgICAgICAgICAgICAgICAgICAgICAgICAgICAgICAgICAgICAgICAgICAgICAKICAgICAgICAgICAgICAgICAgICAgICAgICAgICAgICAgICAgICAgICAgICAgICAgICAgICAgICAgICAgICAgICAgICAgICAgICAgICAgICAgICAgICAgICAgICAgICAgICAgIAogICAgICAgICAgICAgICAgICAgICAgICAgICAgICAgICAgICAgICAgICAgICAgICAgICAgICAgICAgICAgICAgICAgICAgICAgICAgICAgICAgICAgICAgICAgICAgICAgICAgCiAgICAgICAgICAgICAgICAgICAgICAgICAgICAgICAgICAgICAgICAgICAgICAgICAgICAgICAgICAgICAgICAgICAgICAgICAgICAgICAgICAgICAgICAgICAgICAgICAgICAKICAgICAgICAgICAgICAgICAgICAgICAgICAgICAgICAgICAgICAgICAgICAgICAgICAgICAgICAgICAgICAgICAgICAgICAgICAgICAgICAgICAgICAgICAgICAgICAgICAgIAogICAgICAgICAgICAgICAgICAgICAgICAgICAgICAgICAgICAgICAgICAgICAgICAgICAgICAgICAgICAgICAgICAgICAgICAgICAgICAgICAgICAgICAgICAgICAgICAgICAgCiAgICAgICAgICAgICAgICAgICAgICAgICAgICAgICAgICAgICAgICAgICAgICAgICAgICAgICAgICAgICAgICAgICAgICAgICAgICAgICAgICAgICAgICAgICAgICAgICAgICAKICAgICAgICAgICAgICAgICAgICAgICAgICAgICAgICAgICAgICAgICAgICAgICAgICAgICAgICAgICAgICAgICAgICAgICAgICAgICAgICAgICAgICAgICAgICAgICAgICAgIAogICAgICAgICAgICAgICAgICAgICAgICAgICAgICAgICAgICAgICAgICAgICAgICAgICAgICAgICAgICAgICAgICAgICAgICAgICAgICAgICAgICAgICAgICAgICAgICAgICAgCiAgICAgICAgICAgICAgICAgICAgICAgICAgICAgICAgICAgICAgICAgICAgICAgICAgICAgICAgICAgICAgICAgICAgICAgICAgICAgICAgICAgICAgICAgICAgICAgICAgICAKICAgICAgICAgICAgICAgICAgICAgICAgICAgICAgICAgICAgICAgICAgICAgICAgICAgICAgICAgICAgICAgICAgICAgICAgICAgICAgICAgICAgICAgICAgICAgICAgICAgIAogICAgICAgICAgICAgICAgICAgICAgICAgICAgICAgICAgICAgICAgICAgICAgICAgICAgICAgICAgICAgICAgICAgICAgICAgICAgICAgICAgICAgICAgICAgICAgICAgICAgCiAgICAgICAgICAgICAgICAgICAgICAgICAgICAgICAgICAgICAgICAgICAgICAgICAgICAgICAgICAgICAgICAgICAgICAgICAgICAgICAgICAgICAgICAgICAgICAgICAgICAKICAgICAgICAgICAgICAgICAgICAgICAgICAgICAgICAgICAgICAgICAgICAgICAgICAgICAgICAgICAgICAgICAgICAgICAgICAgICAgICAgICAgICAgICAgICAgICAgICAgIAogICAgICAgICAgICAgICAgICAgICAgICAgICAgICAgICAgICAgICAgICAgICAgICAgICAgICAgICAgICAgICAgICAgICAgICAgICAgICAgICAgICAgICAgICAgICAgICAgICAgCiAgICAgICAgICAgICAgICAgICAgICAgICAgICAgICAgICAgICAgICAgICAgICAgICAgICAgICAgICAgICAgICAgICAgICAgICAgICAgICAgICAgICAgICAgICAgICAgICAgICAKICAgICAgICAgICAgICAgICAgICAgICAgICAgICAgICAgICAgICAgICAgICAgICAgICAgICAgICAgICAgICAgICAgICAgICAgICAgICAgICAgICAgICAgICAgICAgICAgICAgIAogICAgICAgICAgICAgICAgICAgICAgICAgICAKPD94cGFja2V0IGVuZD0idyI/Pv/uAA5BZG9iZQBkwAAAAAH/2wCEAAEBAQEBAQEBAQEBAQEBAQEBAQEBAQEBAQEBAQEBAQEBAQEBAQEBAQEBAQECAgICAgICAgICAgMDAwMDAwMDAwMBAQEBAQEBAgEBAgICAQICAwMDAwMDAwMDAwMDAwMDAwMDAwMDAwMDAwMDAwMDAwMDAwMDAwMDAwMDAwMDAwMDA//AABEIA6oEJgMBEQACEQEDEQH/xADlAAEAAgIDAQEBAAAAAAAAAAAACQoHCAQFBgIDAQEBAAEEAwEBAAAAAAAAAAAAAAcFBggJAgMEAQoQAAEEAgEDAgIECgcHAwALAQABAgMEBQYHERIIIRMJGTEiFFdBI9QV1RaW1penUTJVlVbnaGFxQjMXGFhSJCWBcpJDc5M1NofH10gRAQACAQIDAwUFDxAJAgQEBwABAgMRBCEFBjESB0FRYRMIcYEiUhSRMkJiktIjk1SUFRYXGAmhscHRcoLCU6PTJNRVpVYZorIzQ+M0ZOVm8JXxc0Ql4YPDdGOENYXF1Ub/2gAMAwEAAhEDEQA/AL/AAAAAAAAAAAAAAAAAAAAAAAAAAAAAAAAAAAAAAAAAAAAAAAAAAAAAAAAAAAAAAAAAAAAAAAAAAAAAAAAAAAAAAAAAAAAAAAAAAAAAAAAAAAAAAAAAAAAAAAAAAAAAAAAAAAAAAAAAAAAAAAAAAAAAAAAAAAAAAAAAAAAAAAAAAAAAAAAAAAAAAAAAAAAAAAAAAAAAAAAAAAAAAAAAAAAAAAAAAAAAAAAAAAAAAAAAAAAAAAAAAAAAAAAAAAAAAAAAAAAAAAAAAAAAAAAAAAAAAAAAAAAAAAAAAAAAAAAAAAAAAAAAAAAAAAAAAAAAAAAAAAAAAAAAAAAAAAAAAAAAAAAAAAAAAAAAAAAAAAAAAAAAAAAAAAAAAAAAAAAAAAAAAAAAAAAAAAAAAAAAAAAAAAAAAAAAAAAAAAAAAAAAAAAAAAAAAAAAAAAAAAAAAAAAAAAAAAAAAAAAAAAAAAAAAAAAAAAAAAAAAAAAAAAAAAAAAAAAAAAAAAAAAAAAAAAAAAAAAAAAAAAAAAAAAAAAAAAAAAAAAAAAAAAAAAAAAAAAAAAAAAAAAAAAAAAAAAAAAAAAAAAAAAAAAAAAAAAAAAAAAAAAAAAAAAAAAAAAAAAAAAAAAAAAAAAAAAAAAAAAAAAAAAAAAAAAAAAAAAAAAAAAAAAAAAAAAAAAAAAAAAAAAAAAAAAAAAAAAAAAAAAAAAAAAAAAAAAAAAAAAAAAAAAAAAAAAAAAAAAAAAAAAAAAAAAAAAAAAAAAAAAAAAAAAAAAAAAAAAAAAAAAAAAAAAAAAAAAAAAAAAAAAAAAAAAAAAAAAAAAAAAAAAAAAAAAAAAAAAAAAAAAAAAAAAAAAAAAAAAAAAAAAAAAAAAAAAAAAAAAAAAAAAAAAAAAAAAAAAAAAAAAAAAAAAAAAAAAAAAAAAAAAAAAAAAAAAAAAAAAAAAAAAAAAAAAAAAAAAAAAAAAAAAAAAAAAAAAAAAAAAAAAAAAAAAAAAAAAAAAAAAAAAAAAAAAAAAAAAAAAAAAAAAAAAAAAAAAAAAAAAAAAAAAAAAAAAAAAAAAAAAAAAAAAAAAAAAAAAAAAAAAAAAAAAAAAAAAAAAAAAAAAAAAAAAAAAAAAAAAAAAAAAAAAAAAAAAAAAAAAAAAAAAAAAAAAAAAAAAAAAAAAAAAAAAAAAAAAAAAAAAAAAAAAAAAAAAAAAAAAAAAAAAAAAAAAAAAAAAAAAAAAAAAAAAAAAAAAAAAAAAAAAAAAAAAAAAAAAAAAAAAAAAAAAAAAAAAAAAAAAAAAAAAAAAAAAAAAAAAAAAAAAAAAAAAAAAAAAAAAAAAAAAAAAAAAAAAAAAAAAAAAAAAAAAAAAAAAAAAAAAAAAAAAAAAAAAAAAAAAAAAAAAAAAAAAAAAAAAAAAAAAAAAAAAAAAAAAAAAAAAAAAAAAAAAAAAAAAAAAAAAAAAAAAAAAAAAAAAAAAAAAAAAAAAAAAAAAAAAAAAAAAAAAAAAAAAAAAAAAAAAAAAAAAAAAAAAAAAAAAAAAAAAAAAAAAAAAAAAAAAAAAAAAAAAAAAAAAAAAAAAAAAAAAAAAAAAAAAAAAAAAAAAAAAAAAAAAAAAAAAAAAAAAAAAAAAAAAAAAAAAAAAAAAAAAAAAAAAAAAAAAAAAAAAAAAAAAAAAAAAAAAAAAAAAAAAAAAAAAAAAAAAAAAAAAAAAAAAAAAAAAAAAAAAAAAAAAAAAAAAAAAAAAAAAAAAAAAAAAAAAAAAAAAAAAAAAAAAAAAAAAAAAAAAAAAAAAAAAAAAAAAAAAAAAAAAAAAAAAAAAAAAAAAAAAAAAAAAAAAAAAAAAAAAAAAAAAAAAAAAAAAAAAAAAAAAAAAAAAAAAAAAAAAAAAAAAAAAAAAAAAAAAAAAAAAAAAAAAAAAAAAAAAAAAAAAAAAAAAAAAAAAAAAAAAAAAAAAAAAAAAAAAAAAAAAAAAAAAAAAAAAAAAAAAAAAAAAAAAAAAAAAAAAAAAAAAAAAAAAAAAAAAAAAAAAAAAAAAAAAAAAAAAAAAAAAAAAAAAAAAAAAAAAAAAAAAAAAAAAAAAAAAAAAAAAAAAAAAAAAAAAAAAAAAAAAAAAAAAAAAAAAAAAAAAAAAAAAAAAAAAAAAAAAAAAAAAAAAAAAAAAAAAAAAAAAAAAAAAAAAAAAAAAAAAAAAAAAAAAAAAAAAAAAAAAAAAAAAAAAAAAAAAAAAAAAAAAAAAAAAAAAAAAAAAAAAAAAAAAAAAAAAAAAAAAAAAAAAAAAAAAAAAAAAAAAAAAAAAAAAAAAAAAAAAAAAAAAAAAAAAAAAAAAAAAAAAAAAAAAAAAAAAAAAAAAAAAAAAAAAAAAAAAAAAAAAAAAAAAAAAAAAAAAAAAAAAAAAAAAAAAAAAAAAAAAAAAAAAAAAAAAAAAAAAAAAAAAAAAAAAAAAAAAAAAAAAAAAAAAAAAAAAAAAAAAAAAAAAAAAAAAAAAAAAAAAAAAAAAAAAAAAAAAAAAAAAAAAAAAAAAAAAAAAAAAAAAAAAAAAAAAAAAAAAAAAAAAAAAAAAAAAAAAAAAAAAAAAAAAAAAAAAAAAAAAAAAAAAAAAAAAAAAAAAAAAAAAAAAAAAAAAAAAAAAAAAAAAAAAAAAAAAAAAAAAAAAAAAAAAAAAAAAAAAAAAAAAAAAAAAAAAAAAAAAAAAAAAAAAAAAAAAAAAAAAAAAAAAAAAAAAAAAAAAAAAAAAAAAAAAAAAAAAAAAAAAAAAAAAAAAAAAAAAAAAAAAAAAAAAAAAAAAAAAAAAAAAAAAAAAAAAAAAAAAAAAAAAAAAAAAAAAAAAAAAAAAAAAAAAAAAAAAAAAAAAAAAAAAAAAAAAAAAAAAAAAAAAAAAAAAAAAAAAAAAAAAAAAAAAAAAAAAAAAAAAAAAAAAAAAAAAAAAAAAAAAAAAAAAAAAAAAAAAAAAAAAAAAAAAAAAAAAAAAAAAAAAAAAAAAAAAAAAAAAAAAAAAAAAAAAAAAAAAAAAAAAAAAAAAAAAAAAAAAAAAAAAAAAAAAAAAAAAAAAAAAAAAAAAAAAAAAAAAAAAAAAAAAAAAAAAAAAAAAAAAAAAAAAAAAAAAAAAAAAAAAAAAAAAAAAAAAAAAAAAAAAAAAAAAAAAAAAAAAAAAAAAAAAAAAAAAAAAAAAAAAAAAAAAAAAAAAAAAAAAAAAAAAAAAAAAAAAAAAAAAAAAAAAAAAAAAAAAAAAAAAAAAAAAAAAAAAAAAAAAAAAAAAAAAAAAAAAAAAAAAAAAAAAAAAAAAAAAAAAAAAAAAAAAAAAAAAAAAAAAAAAAAAAAAAAAAAAAAAAAAAAAAAAAAAAAAAAAAAAAAAAAAAAAAAAAAAAAAAAAAAAAAAAAAAAAAAAAAAAAAAAAAAAAAAAAAAAAAAAAAAAAAAAAAAAAAAAAAAAAAAAAAAAAAAAAAAAAAAAAAAAAAAAAAAAAAAAAAAAAAAAAAAAAAAAAAAAAAAAAAAAAAAAAAAAAAAAAAAAAAAAAAAAAAAAAAAAAAAAAAAAAAAAAAAAAAAAAAAAAAAAAAAAAAAAAAAAAAAAAAAAAAAAAAAAAAAAAAAAAAAAAAAAAAAAAAAAAAAAAAAAAAAAAAAAAAAAAAAAAAAAAAAAAAAAAAAAAAAAAAAAAAAAAAAAAAAAAAAAAAAAAAAAAAAAAAAAAAAAAAAAAAAAAAAAAAAAAAAAAAAAAAAAAAAAAAAAAAAAAAAAAAAAAAAAAAAAAAAAAAAAAAAAAAAAAAAAAAAAAAAAAAAAAAAAAAAAAAAAAAAAAAAAAAAAAAAAAAAAAAAAAAAAAAAAAAAAAAAAAAAAAAAAAAAAAAAAAAAAAAAAAAAAAAAAAAAAAAAAAAAAAAAAAAAAAAAAAAAAAAAAAAAAAAAAAAAAAAAAAAAAAAAAAAAAAAAAAAAAAAAAAAAAAAAAAAAAAAAAAAAAAAAAAAAAAAAAAAAAAAAAAAAAAAAAAAAAAAAAAAAAAAAAAAAAAAAAAAAAAAAAAAAAAAAAAAAAAAAAAAAAAAAAAAAAAAAAAAAAAAAAAAAAAAAAAAAAAAAAAAAAAAAAAAAAAAAAAAAAAAAAAAAAAAAAAAAAAAAAAAAAAAAAAAAAAAAAAAAAAAAAAAAAAAAAAAAAAAAAAAAAAAAAAAAAAAAAAAAAAAAAAAAAAAAAAAAAAAAAAAAAAAAAAAAAAAAAAAAAAAAAAAAAAAAAAAAAAAAAAAAAAAAAAAAAAAAAAAAAAAAAAAAAAAAAAAAAAAAAAAAAAAAAAAAAAAAAAAAAAAAAAAAAAAAAAAAAAAAAAAAAAAAAAAAAAAAAAAAAAAAAAAAAAAAAAAAAAAAAAAAAAAAAAAAAAAAAAAAAAAAAAAAAAAAAAAAAAAAAAAAAAAAAAAAAAAAAAAAAAAAAAAAAAAAAAAAAAAAAAAAAAAAAAAAAAAAAAAAAAAAAAAAAAAAAAAAAAAAAAAAAAAAAAAAAAAAAAAAAAAAAAAAAAAAAAAAAAAAAAAAAAAAAAAAAAAAAAAAAAAAAAAAAAAAAAAAAAAAAAAAAAAAAAAAAAAAAAAAAAAAAAAAAAAAAAAAAAAAAAAAAAAAAAAAAAAAAAAAAAAAAAAAAAAAAAAAAAAAAAAAAAAAAAAAAAAAAAAAAAAAAAAAAAAAAAAAAAAAAAAAAAAAAAAAAAAAAAAAAAAAAAAAAAAAAAAAAAAAAAAAAAAAAAAAAAAAAAAAAAAAAAAAAAAAAAAAAAAAAAAAAAAAAAAAAAAAAAAAAAAAAAAAAAAAAAAAAAAAAAAAAAAAAAAAAAAAAAAAAAAAAAAAAAAAAAAAAAAAAAAAAAAAAAAAAAAAAAAAAAAAAAAAAAAAAAAAAAAAAAAAAAAAAAAAAAAAAAAAAAAAAAAAAAAAAAAAAAAAAAAAAAAAAAAAAAAAAAAAAAAAAAAAAAAAAAAAAAAAAAAAAAAAAAAAAAAAAAAAAAAAAAAAAAAAAAAAAAAAAAAAAAAAAAAAAAAAAAAAAAAAAAAAAAAAAAAAAAAAAAAAAAAAAAAAAAAAAAAAAAAAAAAAAAAAAAAAAAAAAAAAAAAAAAAAAAAAAAAAAAAAAAAAAAAAAAAAAAAAAAAAAAAAAAAAAAAAAAAAAAAAAAAAAAAAAAAAAAAAAAAAAAAAAAAAAAAAAAAAAAAAAAAAAAAAAAAAAAAAAAAAAAAAAAAAAAAAAAAAAAAAAAAAAAAAAAAAAAAAAAAAAAAAAAAAAAAAAAAAAAAAAAAAAAAAAAAAAAAAAAAAAAAAAAAAAAAAAAAAAAAAAAAAAAAAAAAAAAAAAAAAAAAAAAAAAAAAAAAAAAAAAAAAAAAAAAAAAAAAAAAAAAAAAAAAAAAAAAAAAAAAAAAAAAAAAAAAAAAAAAAAAAAAAAAAAAAAAAAAAAAAAAAAAAAAAAAAAAAAAAAAAAAAAAAAAAAAAAAAAAAAAAAAAAAAAAAAAAAAAAAAAAAAAAAAAAAAAAAAAAAAAAAAAAAAAAAAAAAAAAAAAAAAAAAAAAAAAAAAAAAAAAAAAAAAAAAAAAAAAAAAAAAAAAAAAAAAAAAAAAAAAAAAAAAAAAAAAAAAAAAAAAAAAAAAAAAAAAAAAAAAAAAAAAAAAAAAAAAAAAAAAAAAAAAAAAAAAAAAAAAAAAAAAAAAAAAAAAAAAAAAAAAAAAAAAAAAAAAAAAAAAAAAAAAAAAAAAAAAAAAAAAAAAAAAAAAAAAAAAAAAAAAAAAAAAAAAAAAAAAAAAAAAAAAAAAAAAAAAAAAAAAAAAAAAAAAAAAAAAAAAAAAAAAAAAAAAAAAAAAAAAAAAAAAAAAAAAAAAAAAAAAAAAAAAAAAAAAAAAAAAAAAAAAAAAAAAAAAAAAAAAAAAAAAAAAAAAAAAAAAAAAAAAAAAAAAAAAAAAAAAAAAAAAAAAAAAAAAAAAAAAAAAAAAAAAAAAAAAAAAAAAAAAAAAAAAAAAAAAAAAAAAAAAAAAAAAAAAAAAAAAAAAAAAAAAAAAAAAAAAAAAAAAAAAAAAAAAAAAAAAAAAAAAAAAAAAAAAAAAAAAAAAAAAAAAAAAAAAAAAAAAAAAAAAAAAAAAAAAAAAAAAAAAAAAAAAAAAAAAAAAAAAAAAAAAAAAAAAAAAAAAAAAAAAAAAAAAAAAAAAAAAAAAAAAAAAAAAAAAAAAAAAAAAAAAAAAAAAAAAAAAAAAAAAAAAAAAAAAAAAAAAAAAAAAAAAAAAAAAAAAAAAAAAAAAAAAAAAAAAAAAAAAAAAAAAAAAAAAAAAAAAAAAAAAAAAAAAAAAA4l6/RxlWW7krtTH0oG909u9YhqVYW/8AqlsTvjijb/tVUOVaWvbu0iZtPkjjLo3O62uywW3O8yY8W2rGtr3tFaxHptaYiPflgnZ/K7xp05ZWbBzpxfWsQK9J6NPcMNmclC5nYjmzYvC2shkIn/jE6I6JFd69OvRelUwch51uOOLa55ifLNJiPm2iI/VRfzrx18GunptXmvU/JKZa696lN3hzZI004Tjw2yZInjwia6zx07JYLznxMPDjDd7IOTr2emYj+6HB6Ru031mpGrWstZDAY6hKsqSL0VkzmorVRytXoi1TF0V1Fk7cEUj6a9P1otM/qIy5n7Zns88u1rj51l3WSNdYw7PeT5tNLZMGOk668NLzHCYmYnTXGmR+Ld4tUve+zYvlnMe29rWJjtSwUX2hqqiLJD+dtuxaNY1F6r7nY7onoinup0Bz23z1tvX3b2/YpKzN37e3ghtu96nBz7cd2eHq9rhjvemPW7rHw/dd2fQ6X5wfjR/gfnP9mdB//wBNOz8nnOv43a/VZP5tTv8AMD8Gv7M6n+99j/8A7Fyqnxe/GOzL7c2qc1Y9nYrvft6vpr4lVFREj6UOQbs/e7r6fU7fT1VPQ428PedxGsZNtPuWv+zjh3YPb+8Fs1+5k2PUeKunz1tttJj3Pgb+86+9p6XvcN8UvxCyixpe2rbNcR6RK52Z0bPTpD7nXvST9XoM65Vg6fX7Eci9fq9x5cnQ3UNPnceO/uXr/C7q6eXe294Ab2Yjc77f7PXTX12yz2017dfUVz/O+XTX6XVnDWPNfxQ25Ym4jnjj6B0/b7bNiyztOkVXNc9rFj2+DBvZI5G9Ea5Ed3KjencqItLz9Nc+2/8AtNrmnT4sd/8A1O8kzkvtIeBXP+7Gw6o5TWbdkbjLO0ns1003VcMxPonjrpHbMQ2Nw2ewex0Y8nr2axOexs3/ACshhsjTylGX/wDDt0Zp4H//AEOUo+TFlw27matqX80xMT8yUvcu5pyznG2je8p3ODdbO3Zkw5KZKT7lqTas/Ndsdb3gAAAAAAAAAAAAAAAAAAAAAAAAAAAAAAAAAAAAAAAAAAAAAAAAAAAAAAAAAAAAAAAAAAAAAAAAAAAAAAAAAAAAAAAAAAAAAAAAAAAAAAAAAAAAAAAAAAAAAAAAAAAAAAAAAAAAAAAAAAfEkkcUb5ZXsjijY6SSSRyMjjjYiue973KjWMY1OqqvoiCImZ0jtcbWrSs3vMRSI1mZ4RER2zM+SIadcqefPizxKturluTcdtGbqPdE/XuP413DILPGqJLXku41/wCr1GxCq9HstXoHNcit6dyKiXHsOlOe8w0tjwTjxT9Fk+BHzJ+FPvVlj31x7U/gf0HOTBv+dYd7zLHOk4NjHyvJ3o7azfHPqKWjsmMmakxOsdsTCOzkn4yGRkWerxBw/TqsRXfZ87yPmJrskjVVyN93VtafSZXe1ER3VMvKiqvTp6dXXfsvDqkaW5huJn6XHGn+lbX/AFIYjdY/pDd5ebYOgOn8dK/Q5uYZZvM+7ttvNIrPl/5q0eTThrOi++/EP8uN/wDdhn5Wv6nj5O/sx+hY/G6l7HudUd7WYx1ZNmXo1URvfef29OqdHdVW6dp0h0/tOMYIyX8+SZv+pPwf9FjJ1T7W3j31V3seXnuXYbS2umPY48e17uvmy46/Kfc1zTpprGk6zOpWx7jt2421v7dtOx7VeVeq3djzmTzltV+svVbOTtWplXq5f+L8Klfw7fb7avc2+OmOnmrWKx8yIhAvOOoef9Q5/lXP99vN9uvj7jNkzW+qyWtPlnyvOHco4AAAAAADusDsmxatfjyusZ/Na5lIlRYslgcpexF+JWr1asdzHz17DFRfo6OQ6suHDnp6vPSt6ea0RMfMlUuV845vyPdRvuS7rc7Pe17MmDLfFePcvjtW0fNblccfEa8s+OXQRJyM7e8bD29cXyPj4dpbP2oqJ7+bV9LbHdUX16ZFvX6V9S3N50dyDeaz6n1V58uOe7/o8af6LIjo/wBr3x46QmtPwxPNNnX/AHXMMcbnvafGza03XzNxCR/ib4weh5d1XHcy8c5nT7T3Mil2PTLLNmwXcqIrrVvD3fzdnMZWb6p2QPycvoip16r22dv/AA83WPW/Lc1clfi3ju29yJjWsz7vdhmB0H+kE6X3802niJyfccvzTMRO42lo3OD02thv6vNjr6KTuLdnn4SjcX828Tc0Ytcvxbv2ubnVZEya1Bi7qNy2OZIvbH+d8DcbVzmGe9fobbrwuXr6IWNvuWb/AJbf1e+xXx28mscJ9y0a1n3plm30T4k9B+I2y+X9Ec12fMcEVibVxX+y44ns9bgvFc2GZ8kZcdJnzMpHhXuAAAAAAAAAAAAAAAAAAAAAAAAADEHIPkBwlxUkzeQuVNG1W1Aiq/F5LYcf+fXI3+t7Gv15p83ZVv4UjruVFVP6UKhtOU8z3/8AyeDLkrPlis936r52Pmo/6r8VvDboaLR1bzzlmxz17cWTPj9f72Cs2zW/e45aWbz8V7xa1dZYdbfvfIthquZFJrmsLisa56d3rNb3C5rttkP1f68daZV6p0RU6qly7XoLnufjm9Vhj6a2s/MpFo/Vhjl1N7dfgjySbY+TzzTm+aOETt9t6rHr6bbu+3vEemuO/k4acY1I3D4yuyTOni0DhHCY1rfq1r+4bXfzbpPRV9yfE4XG4BIPVenY27J9HXv9eiXBt/DnDGk7vdWt54pWK/q2m36yBOoP0iHOMk2x9K9NbbDEfO33e6vm19NsWHHg7vuRmt+646RrRs3xUfLnPOkdis9pWlI9erWazpGMttiTu7uka7k/bXqnT6v1lcvT/b6lawdC9P4v9pTLl/dXmP8AU7iGude3F4+c0mZ2O65by2J8m22eO2nufK53U+jjM/N4sE53zb8sti9z84c9cg1/da9rvzFlWav0R8ftKsf6s18R7Lkb6orO1Wu+snR3qVTF0zyDD85tMM/uo73+tqjDmntJ+O/N9flfVPNqd6J/2GWNt2xpw+T1xaejTTSeMceLFuT505tzXuLmeYuVMssz2STLk+Qttv8AuvjRGsfJ9qy8ve9jUREVeqoiHupyvlmL/Z7bBXTzY6R+tCyN74neJXMdfwh1DzzP3piZ9Zv91fWY7JnvZZ1mPJq8lb3bcshKk9/bdnuzoxI0mt57K2ZUjaqq1iSTW3v7Gq5eideidT0V222pGlMdIj0ViP2FA3HUnUW7yet3W/3uXLpprfPltOnm1m0zo/ODb9tqzR2K20bFXnid3xTwZvJQzRu+jujkjstex3r9KKh9nb7e0aWpSY/cx+04Yuf89wZIy4d7u6ZazrFq5skTE+eJi2sPVY3mrmTDP93Ectcm4qVJYpkkxu+bTRf70C90MvfVysTvdhd6td9LV+g6L8t5dkjTJt8Fo9NKz+vCu7PxH8Q+XW7/AC/n3OsF9YnXHvdzSda9k61yxxjyT2x5GVcB5reWGtuY/Hc98jWFjRqNTP5t+1tXtbK1O9m0R5hkqqkq9Vciqqo1V9Wt6eDL01yHN8/tMMfua93/AFdF88q9pDx25PaLbTqnm95j+PzTuo4a9sbmMsT2z2668JnjEabEaj8Vryv158X59vaJvkTXN95uyafXx00sfRjX9kumWtWjilVGq5rvbc1r3erXNRGlH3HQfIc0fYoy4p+lvr/rxZLfIPbo8deU2r+E8vK+aUiePyjaVxzMcNdJ2lttET2zE92YiZ41mODbzQfjJYCd8VflDhnLY1iK1JstoewU8yruvRHKzAZ+DBrEjV9f/wBRkVUXp6dPW3934c5Y47Hc1tPmvWY/0q97/VT90r+kO5VltXF1t07uMNfLl2WembX3MGeuHTT/APcW1/X3z4x89fFXlR1erh+VcRruYsdrUwm+sm0u62V69I60d3Ntr4G/ZkX0ayrcncqqiJ6qiFq73pTnuw1tkwWvjj6LH8OPd0r8KI92IZR9F+1L4G9czTBy/nm32fML6fYd9E7O+s9lYvm7uC9p8lcWW8zPDtbfQzQ2YYrFeWKevPFHNBPDI2WGaGVqPililYrmSRSMcitciqiovVC3piazpPCYZAY8mPNjrlxWrbFasTW0TExMTGsTExwmJjjExwmH6nxzAAAAAAAAAAAAAAAAAAAAAAAAAAAAAAAAAAAAAAAAAAAAAAAAAAAAAAAAAAAAAAAAAAAAAAAAAAAAAAAAAAAAAAAAAA8ByNypxzxHgXbNyXueA0zCo50cVrN3o68l6diI51XF0W99/L3UYvd7FWKabt9e3oiqevZ7Decwy+o2WO+TJ5qx2emZ7Ij0zMQtXq/rnpDoHlc856y5jteXcu1mItmvFZvMce7ipxvlvpx7mOt7acdNERnOHxfcJQW5huANGkzthqSQx7tvzZsfiUei9qWMZqlGePK34XNXuY+3Zova5PrQOT6ZA5Z4e5b6ZObZe7HxMfGffvPCPei3usBvEv8ASAct2s5OXeFXLJ3WWNYjeb6Jx4tfjY9rS0ZbxMcYnLkwzE/PYphEly95Qc8c6TTLyVyTsOZxkkiPZrNWwmG1OBWq5Ylj1nENpYeSaFr1a2aWKSwrf60jiQOX8j5VyuP6FhpW/wAaeN/qp1n3onT0MCuv/GvxR8Tslvxx5xu9zspnWNvW3qdrXTs02+KKYpmNdIvatr6dtpYDKqisAAAAAAAAAAAAAAA7jAbDn9Uy1PP6xm8vrmcx0vvUMzgsjcxOUpSonT3Kt+hNBagf0Xp1a5OqHXlw4s+OcWetb4p7YtETE+7E8FR5VzbmvI9/j5pyXc7jZ8zw21plw5L4slJ89b0mtqz7kwlR8ffiwcpaKtLAc34pOVdZjVkK7HRSniN/x8CKje972tr4PZ0hjb0ayw2pZkcquktuX0LE5v0Fsd1rl5Zb1Gf4s6zjn+FX3tYjyVZxeFHt2db9MTj5V4l4Pw5yaNI+UU7mLfY6+eZ0rh3OkdkZIxZLTrN9xKcvhfyD4i8gMC/P8Wbjj9hZWbF+dcQ7vobHgpJU+rFmsDcbDkaTXPRzWTdjq07mO9qSRGqpGHMuUcw5Tl9Vvsc0meye2tvctHCfc7Y8sQ2aeHXiv0D4rcrnmvQ/MMW7rSI9bi403GGZ7IzYL6ZKazrFb6TjvMT6u9oiZZnKakUAAAAAAAAAAAAAAAAAAADXPmPyy8fuCG2IeROR8LSzcDFVNTxD37BtskntrJFE/A4dtu5jksInRktxK1fqvrIiepWOXcg5tzXSdnhtOKfo5+DT6qdIn3I1n0Ih8QvHjwp8L63x9Xc422PmVY/5XFM591M6axE4MUWvj73ktl9Xj894RY8t/GJvSutY7g7i+GrD0eyvtHJVpbFlyOajfci1LXrkdetLEvVzHSZWw1y9O+LoitW+uX+HdY0vzPPMz8XHGkfV2jj9THusH+vf0hG5va+08M+SVpj4xXc8xt3rTr5Y2uC8VrMdtZtuckTw71OExMbvJ3mb5NcuLPFt3Lm0xYuwr0fgNYtN0/AugerelazjtZZjI8nDH2p2/bFsP6+quVeql5bLpvknL9J2+3x+sj6K0d+3uxNtdPe0Yeda+0V4z9fTbHz/AJ/vq7G+uuDbWjaYNJ+htj28Y4yRHk9b6yfLrrxawuc57nPe5z3vcrnvcquc5zl6uc5y9Vc5yr1VV+krnYha1rWtNrTM2mdZme2ZfwOIAAAAAAAAAAAAGcuJfJXnPg6xHJxlyTseu0WS+7JgHWm5XVrLld1kWzrGXZewcksiKqLKkCTNRV7XtX1KXzDkvK+aRpvcNL2+NppaPctGlve10Sb0H4yeJvhnli3RfOd5tNtFtZwd71u2tPl722yxfDMz2d7uReNeFonilu4M+L5jbb6WE8gtIXFPckMD960GOa3Q7vSN1rL6ldnlv1Y0RO+WSlZtOc5VSOq1ERCwOaeHt665eUZe9HxMnCfci8cJ9EWiPTZnt4Ze3/s89sfLfFflvqLTpWd7sYm1NeybZdre03rHltbDkyTMzMVwxGkJfeOeU+OuXMAzZ+NNywO54Rz0iluYS9HYfSsK3vSpk6Tvbv4m92dHexaihmRqovb0VFI93mx3nL8vqN7jvjy+a0dvpieyY9MTMM/+kOuOkevuVRzvo3mO15jy2Z0m+G8Wmlu3u5KcL4r6ce5krS+mk6aTD3x5F1AAAAAAAAAAAAAAAAAAAAAAAAAAAAAAAAAAAAAAAAAAAAAAAAAAAAAAAAAAAAAAAAAAAAAAAAAAAAAAAAAAAAAHm9t3HVdCwGQ2rddhw+ra5iolmv5nOX6+OoV29F7GLPYexr55nJ2xxN7pJXqjWNc5URe7b7fPu8sYNtS2TNbsisaz+p+rPZHlUfn/AFDyPpblWXnnUe72+x5RgrrfNmvXHSvmjvWmNbT2VrGtrTpWsTMxCFnyR+LY1i5HVvGrC96p7lZeUNsoJ2dyPc37Tq2o243e5G5iI6OxlWtXqqtfS9Ecsk8m6A7M/Oren1VJ/UteP1Yr9U1x+MPt6RWc3I/Bvbazxr+Et1Thrr89ttreOMaaTXJuYjyxbbdlphg3vkTeuT9gs7VyFtmd3DYLfVsmTz2Qnvzxw9znsqVGyuWGhQhVy+3XgbHBEnoxjU9CSNrs9rscMYNpjrjwx5Kxp78+efPM8Z8rXT1R1b1P1rza/POrN/uuYc2yduTPkte0RrrFaxM6UpGvwcdIrSscK1iHjT0rdAAAAAAAAAAAAAAAAAAAA9Lp+57Zx/sOO2zSNiy+q7JiZfex+Zwd6fH3q7l9JI/egexZa1hnVksL+6KaNVY9rmqqL0bjbbfd4Z2+5pXJht2xaNY/+PmntjyK10/1Fz3pTm2Hn3TW73Gx5xgtrjzYb2pevnjWsxrW0cLUnWt6zNbRNZmE7fif8VDDbQ7G6J5JrR1rPye1Uo8oU4YqWr5WZVSNn624+FrIdZtyL0V1uBPzcqq5XsqMb1dFvP8AoXJg7265LrfF2zinjaP3E/RR6J+F5ptLZ94E+3Dy7ndsPTHjF6rZc1nStOZUiKbbLPZHyrHGkba08NctI+TzMzNq4KxxmVrWa9yvBbqTw2qlqGKzVtVpWT17NedjZYZ4JonOjmhmjcjmuaqtc1UVF6EczE1ma2iYtE8YbEMObDuMNdxt7VvgvWLVtWYtW1bRrFqzGsTExMTExOkxxh+x8dgAAAAAAAAAAAAAABo15DfEE4B4AdkMG/Mu5D3+k6au/S9Lnr3HULsSuY6vsefVX4jAuimb2zRK6e9Evr9mUujlHSXNubaZYr6naT9HfhrH0te23onhWfjMZfFr2r/Crwqtl5bbcTzfqrHM1nZ7O1b9y8cO7uM/HFg0nheut81f4mUIXOvxHvI7md1vGYzPpxVp86Swpr3H9i3jshaqyOXozM7a6RM9ekdCqxytrvpVJmKqOr+qkm8r6O5Ny3S96ev3EfRZNJiJ9FPnY9GvemPO1q+J/tgeL/iLOTZbPd/gPp+2seo2NrY8lqzPZm3Wvr7zp8G0Y5w4rxrE4uLQiSR8r3yyvfJJI90kkkjle+R71Vz3ve5Vc57nL1VV9VUuuIiI0jsYs2ta9pveZm8zrMzxmZntmZ8sy+Q4gAAAAAAAAAAAAAAAAAA9zx7ybyBxRsEG08cbfndOz0Ha37fhL0tX7TC1yP8AsuRq9XU8pRe5Orq9mOWB/wDxMU8u72W03+GcG8x1yYp8lo109MT2xPpjSVz9J9adV9C82rzzo/mG65dzSv0eG8170a693JXjTJSZ7ceStqT5aynF8Yfiu4DY5Mfp/kfRqapl5Paq1eScJXl/Vi9MvSNrtmw7Pes6/LK7p3Wa/vU1c5VdHWjb1Ix530FlwxO45NM5MfbOO3z0fuZ+i9ydJ9NpbMPBX26uVc4vi6f8YMWPY8wnSteYYaz8mvPZHyjFGtsEzw1yY+/i1mZtXDSNUx2LymMzeOpZfC5Ghl8Tkq0V3HZTF269/HX6dhiSQW6V2pJLWtVpo3I5kkbnNci9UVUI6vjvivOPLWa5KzpMTGkxPmmJ4xLYXst7suZbTHzDl2bFuNhmpF8eTHet8d6WjWtqXrM1tWY4xaszExxiXPOD1AAAAAAAAAAAAAAAAAAAAAAAAAAAAAAAAAAAAAAAAAAAAAAAAAAAAAAAAAAAAAAAAAAAAAAAAAAAAAAAAAA0N8rfPvinxriu61RfFyByukC+zpmIuRtp4KaRvWCfc8vEk7MO1Gr7iU2NkvSt7VWOKORsyXVyHpTf86mM1vsOw1+fmONv3EeX3fnY88zGjF3x09qjobwcpk5NtZrzXrru8NpivHcwTPzs7vLGsYvjRiiLZrR3da0peMiuZzt5I8ueRmxLn+TdnsZCvXmlkwmsUVko6nrcUvVPZwuEZK+CKT2lRj7MqzXJ2tT3Zn9E6TFyvk3L+T4fVbKkRMx8K08b2/dW/YjSI8kQ1CeJ/jD194vc3/CvWm9vmxUtM4dtTWm128T5MOGJmsTpwnJbv5bxEesyW0hgkqiMAAAAAAAAAAAAAAAAAAAAAAAAAkL8OPPze/HC9j9P22S/u/DM1hsc+vzTe9mdPjmevvZDTLViRqRwse/3ZcbK5Kk6o721ryyPldaPUXSe15zWdxt9MXMoj57yX9F4j5kWjjHl1iIhlp7PXtU9UeD+5xdP8+nLzLw6tfS2CZ1zbSJnjk2lrTwiJnvW29p9VeYnuTiva15suce8iaZyrqOH3rQc/R2TWM5WZZo5GjJ3drla10tO7A7tsY/JU3u7LFaZrJ4JEVr2tcnQhbebPc7DcW2u7pNM9Z4xP68eeJ8kxwnyNyvSfVvTvXPINv1P0rusW85LuaRamSk+jjS9fnseSk8L47xW9La1tWJh7Q8y4wAAAAAAAAAAAYJ538keI/HLXE2Dk3ZocfPaindg9ZoI2/tWyTQNVXQ4XDMkZLJEknRj7MzoaUD3tSWZnc3rVeVcm5hzjN6nZUmYj5608K192f2I1mfJEow8UPGHoHwg5R+FetN7XFlvW3qdvT4e53E1jsw4YmJmNdInJeaYaTMRkyV1jWvb5NfEg5m51dkNb1Gefirjad09dMNgL0qbLnqTlVifrNssPs2Fjni699Omlet2vWOVbHRHrLfJOjeW8r0zbiIz72PLaPg1n6Wv7M6z5Y07Gpvxn9sHxE8TrZuT8gtbkXR1ptX1OC8/KM9J4f0ncRpbS0duLD3MekzS/rdItMdheDEYAAAAAAAAAAAAAAAAAAAAAAAANwvFzzV5a8X8nFUwlt21cdWbf2jM8cZu5M3EyrI5y2bmv3OyzLrGYl71V00DHwzORq2IZu1qNt3nnTXL+eU72WPV7yI4ZKxx9y0cO9HonjHkmGQfgl7R/XvgpvK4OW5J33SF8nezcvzXn1U6z8K+C+lp22WddZvSs0vOk5ceTu10suePnkpxZ5K6kmz8c5pJLdNldux6nklhrbRqtyw1yx18vjmSy9a87o3pBbhdLUsdjkjkVzJGshfm/Jd9yXceo3lfgz87eONbR6J8/nidJjyxxhuV8J/GTofxk5D+GukNzrnxxWNxtcmldztr27K5ccTPwbaT3MtJtiyaWit5tW9a59KSlQAAAAAAAAAAAAAAAAAAAAAAAAAAAAAAAAAAAAAAAAAAAAAAAAAAAAAAAAAAAAAAAAAAAAAAAAAAAAAA49u3Ux9S1fv2q9KjSrzW7t23NHWqVKlaN01i1asTOZDXr14WK973qjWNRVVURD7Wtr2ilImbTOkRHGZmfJDq3G4wbXBfdbq9Me2x0m973mK1pWsa2ta06RWtYiZmZmIiI1nggr8zfie2LT8rxj4z5OSrUb72Pz/LsHVlq2qp2T1ePkXo+pA1FVi5Z6JM53VajWI2O1JKXTfREViu+51XW3bXF5I9OTz/ALjs+NrxrGsT2ivbVy57Z+i/BnNNNvGtM/Na8LW8lq7Dy0rHGJ3Ux35nWcEViKZ7QjWbNi5Ynt255rVu1NLZtWrMr57FmxO90s0880rnSTTTSOVznOVXOcqqq9STIiKxFaxEViOENbGbNm3Ga243FrXz3tNrWtM2ta1p1m1pnWZmZmZmZnWZ4y/E+uoAAAAAAAAAAAAAAAAAAAAAAAAAADbLxP8ALnkDxZ3Bt/Cyy5vQczdrv3bQ7EyNo5iCNqwLkcZLIyT80bFUgd+JsxoiS9jY52yRIjUoHPun9pz3b9zL8Hd1j4F/LHonz1nyx5O2NJTx4E+PnVfgf1BG65ba256V3GSs7zY2nSmWsR3fWY5mJ9VuK1+dyV4W0rTLF6RERan4s5R0vmbRMByNoGVZl9a2Gr79aVWpFbp2Y3LFdxWUq9z3UsrjbLXRTxKq9r29Wq5itc6Cd9sdzy3dX2e7r3c1J4+afNMT5YmOMS3kdD9bdOeInTG16v6VzxuOTbunerPZelo4XxZK6z3MuO2tb1mZ0mOEzWYtOQjyLsAAAAAAAAAEVHmL8SrVeHn5XjvhZ2L3jk2D3qOV2B7m3tO0mz0dHLE59eVGbFsdN69FrRu+y1pU6Tve9j6y35070Xn5jFd5zLvYtlPGK9l7x/BrPn7Zjs4TFmDPtCe2RyPw+tn6R8OZwcz6zrrTLnn4e02duyY1rOm43FJ/3dZ9Xjtwy2tatsM15933vceStmye5b5seV2rZ8xMs+QzGXsus2ZV6r7cETfqw06NZi9kFeFscFeNEZGxrERqS5tdrt9lgrttrSuPBWOERGkf/jM+WZ4zPGZal+pep+oesedZ+ouqN5n33OtxbvZMuW02tPmrHkpSscKY6RWlKxFaVrWIiPJnoUEAAAAAAAAAAAAAAAAAAAAAAAAAAD3nGvJ298QbfjN6452O/q+zYp/4i/Re1WWK7nxvnx2SpzNkp5TFW1iak1axHJBKiJ3NXonTy73ZbXmG3ttd5SL4LeSf14ntiY8kxpMLp6N606n8P+oMPU/SG8y7LnWCfg3pPC1ZmJtjyUnWmXFfSO/jyVtS2kaxOkLOHht5y6T5QYePAZZKOn8wYur35jUH2Wsp56KFkj5s3pb7Mz7OQoNiiV9is7us0V6o/wByJGTyQn1H0vueR5PW49cnLrTwv5a/S304RPmnst6J4Ruj9nj2mumvGvl8cq33quX+IOCmuXazbSmeIiZnNs5tM2yU0jvZMc65MPGLd+ndy23vLVZQAAAAAAAAAAAAAAAAAAAAAAAAAAAAAAAAAAAAAAAAAAAAAAAAAAAAAAAAAAAAAAAAAAAAAAAAAAAAdDs+0a7pWv5ba9tzWO13XMFTkv5fNZa1FTx9CrGqNWWeeVzWor3uaxjU6vkkc1jUVzkRe3BgzbnNXBt62vmtOkREazMqXzvnfKOm+U5+e8+3OHacn2uOb5c2W0UpSseW1p88zERHba0xWsTMxE1p/Nzz+2byGvX+P+O58hq3C1Oy+KSFHOq5jkOSvM72crsPayOelhPqo+ti+5W9ek1nvlSOOtNHTPSeDlFI3e8iMnMpj3Yx+ivnt57e9XhrNtNntKe1Vznxa3WXpTpK2XY+HGO8xMa93Lv5rPDLn4RamHy49trp2ZM3ev3KYY2i82HQAAAAAAAAAAAAAAAAAAAAAAAAAAAAAA3S8LPLvYvFvkBj7b7mW4r2m1Wr73rEb3yOhYnSGLacDA6RsUOwYqNU7k9G3azVgeqL7MsNt9SdP4eebTSuld/jj4Fv4NvpZ/0Z4x5YnI32cvH7m/gj1XFs85M/Q++vWu920TM6R2RucEa6RnxR2x2ZscTitpPq747V+ubHgtvwGH2nWMpTzevbBjqmWw2WoSpNTyGOvQtnq2oJE6KrJInovRURzV6o5EVFQgjNhy7fLbBnrNc1JmJie2JjthvN5PzflnP+VbfnfJc+Pc8p3eGuXDlpOtMmO8Ratqz5pifLpMdkxExMO6OpUgAAAAAONdu08dTt5DIW61ChQrT3b167PFVp0qdWJ09m3bszuZDXrV4WOfJI9yNY1FVVREOVa2vaKUiZvM6REcZmZ7IiPO6dxuNvs9vk3e7yUxbXFS173vaK0pSsTa1rWtMRWtYiZtaZiIiJmZ0V/POH4kuR3WTMcS+PeVsYrS0Wxjtn5Hpumq5bbmKx0FnGatL1jnxOtP7nNltdG2r3REjWKv3faJZ6Y6MptorzDm9Ytue2uOeMU80289vNHZXy6z87ql9pf2xN51JfcdB+E2e+Dpz4WPc8wprXLuo00tj208LYtvPGLZdIyZuHcmmLX10OBIrXmAAAAAAAAAAAAAAAAAAAAAAAAAAAAAAO513Ys7qWdxOzazlr2C2DBXq+Tw+YxliSrfx9+rIksFmtPEqPZIx6f7lTqioqKqHXmw4txitgz1i2G0aTE8YmJ8kqjyjm/M+Q8zwc65Lny7Xm21y1yYsuO01vjvWda2raOMTE/N7J4LOfg15y4LyVwUOmbnNRwXNeCo9+Qx7Pbq0N3oVY097Y9ch6oxltjE779BnrAvWWJFgVUhhLqjpfLyXLO520Tbllp4T2zSZ+ht6Pi28vZPHt3S+zL7TXLPGTlleneorYtr4kbXFrkxxpWm8pWOO428dkXiOOfBHznG9I9VrGOQ8tBlsAAAAAAAAAAAAAAAAAAAAAAAAAAAAAAAAAAAAAAAAAAAAAAAAAAAAAAAAAAAAAAAAAAAAAAAAAHntr2vW9G1vM7ft+Zo69rWvUZslmczkpkgp0acCJ3SSO6K98j3qjI42I6SWRzWMa57mtXu2+3zbrNXb7es3z3nSIjtmf/XvRHGeCk8957yfpjk+46g6g3GLacm2mKcmbNknSlKR5Z8szM6RWsRNrWmK1ibTETV983PNzZPJ7ZHa7rrr2vcM69edJr+vyOWC5styBXxx7TtMcb1Y+29ir9kqdXR0o3dE7pXSSOm/pnpnDyTD67NpfmV4+FbyVj4tfR557bT6NIaUPaT9pPnHjVzieUconLtPDvaZZnBgmdL7i8axG53MROk3mNfVYtZrhrPlvN7zoOXWxYAAAAAAAAAAAAAAAAAAAAAAAAAAAAAAAABL/APDB8vl0LZK/j1yFlFbpe4ZFP+nuTuzfidZ3C/KqLgHPf19nEbbZkRIkRUZDkVT6vSzK9se9b9PfK8M832lf6Tjr9kiPoqR9F7tPL56/uYhsB9irx/npbnNPCbqzPp05zDN/QMl54bbd3n/Yaz2Yt1adK8dKbjTh9mvathwiFtrAAAABwcnk8dhcdfy+Xv08XisXTs5DJZLIWYadDH0KcL7Fu7dt2HxwVqtaCNz5JHuRrGoqqqIhypS+S8Y8cTbJaYiIiNZmZ7IiPLMvNvd7tOXbTLzDmGXHg2ODHbJkyZLRSmOlIm1r3taYrWtaxM2tMxEREzMq2nnd5+5fnTI5Pi/inIXcPwxSldUyV+NJKeR5Ks152P8Atl5r2stUtWimhRalJex9hPx1lO5Y4YJm6W6Tx8rpXfb+ItzKeMR2xjjzR5Jt57eTsr5ZnTr7UHtU8w8Tt3m6J6Fy5Nv4dY7d3JeNaZOY2raJ799dLU20TETiwzpN/wDaZo1muPFF6XwwmAAAAAAAAAAAAAAAAAAAAAAAAAAAAAAAAB3+q7VsWj7Hhtu1LMXsBsuvX4MnhsxjpfZt0btd3dHLG7o5j2OTq2SN6Ojljc5j2uY5zV6c+DDusNtvuKxfDeNJieyY/wDXzO2FW5Hzzm/TXN9vz/kO4y7XnO0y1yYcuOdL0vXsmPJMeS1Zia2rM1tE1mYm1h4WeWuC8puOvtllKmJ5N1SOrR37WoV7Ivfla5tTZcJG+SSR+AzaxPVrVVZKlhkkL+5qRSzQR1LyDLyLed2uttlk1nHb9etvpq/qxpPniN5vs5ePXLPHDpH5Rm9Xg602MVpvtvHCO9MfB3GGJmZnBm0nSJmbYskWx21iKXybmFuMiQAAAAAAAAAAAAAAAAAAAAAAAAAAAAAAAAAAAAAAAAAAAAAAAAAAAAAAAAAAAAAAAAAAAAAADi3r1PGUrmSyNqvRx+Pq2L169bmjr1KdOpE+e1atWJXNigr14I3Pe9yo1rUVVXohyrW17RSkTN5nSIjtmZ7Ih0bnc7fZbbJvN5kpi2mKlr3veYrWlKxNrWtadIrWsRMzMzpERMyrGee/m7kvIrZp9C0G/docKa1fc2sxjpaz+QMtTmcjNmysDoobDMTE5OuOpy/1GoliVrZnNZBNnSnTNOT4Y3e7iJ5neOPl9XE/Qx6fjTHuRw4zpb9qb2lN54u85t0t0tlyYvDfZ5fgxGtZ32WkzpuctdItGKJ/5fFbsjTLeIyWiuKOEvJh8AAAAAAAAAAAAAAAAAAAAAAAAAAAAAAAAAB9RyPieyWJ745I3tkjkjcrHxvYqOY9j2qjmva5OqKnqiiYiY0nscq2tS0XpMxeJ1iY4TEx2TE+SYWrvADyfTyP4arxbBdSbk3jpKOubykj+tjLRPhlTAbd0V73vTYKdR7bDl7euQrWFRrY1j6wR1ZyT8DcymcMabLNrano+NT97M8PpZjy6t5nsqeNUeMHh3THzbJ3utOUdzb73WfhZYmJ9Ruu2Zn19KzGSZ0+z48ukRWaa71lrMngAB8SSRxRvlleyOKNjpJJJHIyOONiK573vcqNYxjU6qq+iIIiZnSO1xtatKze8xFIjWZnhERHbMz5IhXL+Id52WOW8pkuFeJMw+PirEWlrbVsGPlaici5elY6rDUtQSP97TMdPE1Ye1Ubfnb7zu6JsCrMXSHS0cvpXmXMK/0+0a1rP+7ifPHx58vxY4durUJ7WvtPZevd7m8OOgtxMdDbe/d3OfHMf0/LS3ZW1ZnXZ47RE000jPePWTrSuOUTZfzBAAAAAAAAAAAAAAAAAAAAAAAAAAAAAAAAAAABmPgTm3b/AB85P13kzTrD/tWJsJDl8S6Z8VHZdesvjTLa9k0aj2uq34GfUerXLXnbHMxPcjYqU7mvLNvzfY32W5j4No4T5a2jstHpj9WNYnhKQ/C3xJ6g8J+tdp1n09efX4L6ZcUzMU3GC0x63Bk7da3rHCdJml4pkr8OlZi3rxRyfqfMvHur8laTd+267tWNjvVe/sS3RsNc6DIYjJRRvkZBlMPfikrWWI5zWzRO7XOb0cuPm/2O45bu77Lcxpmx20nzT5pj0TGkx6Jb/OheteQ+InSex6y6byet5RvsMXrrp3qW+dyYskRMxXJivFseSsTMRes6TMaTOQzxrtAAAAAAAAAAAAAAAAAAAAAAAAAAAAAAAAAAAAAAAAAAAAAAAAAAAAAAAAAAAAAAAAAAAAAAQD/E18037FkMn438W5bpr2LnWvypsWPnci5vMVpUVdJozwuRq4fESxouRciu+020SD6rIJPflforpqMNK8531fs1o+xVn6GJ+jn0z9D5o49sxpqt9s/2jrc33ebwe6Iz/wD2nBbu8z3FLT9my1n/AJOlo4eqxTH9Inj6zL9i+DXFf1sLhJLXKAAAAAAAAAAAAAAAAAAAAAAAAAAAAAAAAAAAAbT+G/kFZ8b+ddX3aexK3UMnImr8g1I2ySpPqGXsV0u3G14kdJNbwNmGK/A1id8j63tde2RyLQuo+UV5zyu+2iP6RX4WOfp47I9y0a1n3dfInH2efFfN4P8AidsupctrRyDNPybfViJnvbXLavfvFY4zbBaK56RHG04+5rpe2tuypbq36lW/RsQ26V2vDbp260jJq9qrZjbNXsQTRq6OWGeJ6Oa5qqjmqioY+2ralppaJi0TpMT5Jhv22+fBusFN1tr1ybbJSLUtWYmtq2jWtqzHCYmJiYmOExOrkHx2gEJHxNPNd+IjyvjZxVl3MydiL7Nyxs+NsIi0Kk8fc7QcfZh6uS7biei5Z7HN9qJUqKqukssjkzorpr1k151v6/AjjirPln+MmPNH0Hnn4XkrM62fbP8AaQtsKZ/BzobcTG9vXu803OO3zlLR/wAjjtHHv3iYndTEx3a/0edZtmrSBslRq5AAAAAAAAAAAAAAAAAAAAAAAAAAAAAAAAAAAAAEr/wtvJ93GvI7+DdsyDo9I5SyEa61JO9VgwXIskcVWixvVfxVbb4IY6T+iO63GVf6rVlcWF1zyT5bs/wpt4/pWCPhfTY+2ffp897ne9DOz2IvGq3R3WE+GfPs0x01zvLHyebT8HDv5iK0iPNXdViuGeE/Zq4OyJvZY8IcbgAAAAAAAAAAAAAAAAAAAAAAAAAAAAAAAAAAAAAAAAAP4qo1Fc5URqIqqqr0RET1VVVfRERA+TMRGs8IhpBtvxGPEPTs9f1y9yk3K3sZK+vcs6zrmy7Fh22Y3uZJDWzeLxVjFZH21b6yVpZofXoj1VFRLn2/R3UO4xRmrg7tbdkWtWs6emszrHvxE+hjVz72vPAHp7mmXlG555Gfc4bTW9tvt9xuMUWiZiYrmxYrYsmnxsdr046RbWJiPN/M/wDDn7wM7+wW5foY7vxI6i/iqfbKftqP+et7PX9q7r7x3f8AMnzP/Dn7wM7+wW5foYfiR1F/FU+2U/bPz1vZ6/tXdfeO7/mT5n/hz94Gd/YLcv0MPxI6i/iqfbKftn563s9f2ruvvHd/zJ8z/wAOfvAzv7Bbl+hh+JHUX8VT7ZT9s/PW9nr+1d1947v+ZPmf+HP3gZ39gty/Qw/EjqL+Kp9sp+2fnrez1/au6+8d3/MnzP8Aw5+8DO/sFuX6GH4kdRfxVPtlP2z89b2ev7V3X3ju/wCZPmf+HP3gZ39gty/Qw/EjqL+Kp9sp+2fnrez1/au6+8d3/MnzP/Dn7wM7+wW5foYfiR1F/FU+2U/bPz1vZ6/tXdfeO7/mT5n/AIc/eBnf2C3L9DD8SOov4qn2yn7Z+et7PX9q7r7x3f8AMnzP/Dn7wM7+wW5foYfiR1F/FU+2U/bPz1vZ6/tXdfeO7/mT5n/hz94Gd/YLcv0MPxI6i/iqfbKftn563s9f2ruvvHd/zJ8z/wAOfvAzv7Bbl+hh+JHUX8VT7ZT9s/PW9nr+1d1947v+ZPmf+HP3gZ39gty/Qw/EjqL+Kp9sp+2fnrez1/au6+8d3/MnzP8Aw5+8DO/sFuX6GH4kdRfxVPtlP2z89b2ev7V3X3ju/wCZPmf+HP3gZ39gty/Qw/EjqL+Kp9sp+2fnrez1/au6+8d3/Mvl3xQPDprXOTfc+9WtVUY3QtwRz1ROqNar8QxiOcvonVUT+lUH4kdRfxVPtlP23y3tr+z3FZmOa7qZiOyNju9Z9HHFEfNmIdJ81XxJ/tfev2Ku/lJ2/iJz/wCLi+rj9pTfz5fAX7o5n953+uPmq+JP9r71+xV38pH4ic/+Li+rj9o/Pl8Bfujmf3nf65t1wZz5xt5Fafa3fjDJ3slhaGbta7kEyWKu4i5SzFOnQyEtSavcjakn/scpXlR8TpI1bIid3cjmpb/NOU73k+4ja76sVyzWLRpMTExMzGvD0xMcfMnzwy8U+jvF3p+/UvRWbLm5bi3Ntvk9ZivivTLSlMk1mt44/AyUtFqzaultNe9ExGZympFAAEb/AMRLy9Tx80Buh6TkWR8u8h46xHjpYJP/AHOnavK6ald2tyN6uhyFmVklbGden49kkydfs6tdeXR/T34X3fyrcx/9vwzx817dsU9yO23o0jysPva48f48J+lY6X6bzRHX3NsNoxzWfhbTbTrS+69F7TFse310+HF8ka+pms1hpJHyvfLK98kkj3SSSSOV75HvVXPe97lVznucvVVX1VSboiIjSOxpWta17Te8zN5nWZnjMzPbMz5Zl8hxAAAAAAAAAAAAAAd7rmrbPuGTiwuo65ntpzM6KsGJ1zEZDN5OZEVEVYqGMr2rUiIqonoxfpOrNnwbenrdxemPHHltMVj5s6QqnKOR866g3teW8g2e633MbdmLb4smbJPuUx1tafehuHpXw5vLzdY4bMfFc2r0ZmdyXN1zmD1ySP0VWsmw9m+/Y4nu6dPWl0Rfp6Fu7nrHp7bTNZzxe8eSlbW/ViO7+qyD6c9kPx+6krXNTkdtltbRr395mw7eY9E4rXncRPu4eHl0bBYv4PvkRZj9zKb3w9i1cxrmQQ5fcMjO1yq7vZY7dLrV2K1ETorJJUXr+DoUm/iHyes6Y8W4t71I/hz+tCV9l+j88XM1O/veadP4JmI0rGXd5LemLabOtY/e2tr6HNs/B357ZA91PkniGeynb7cVm5udSB/V7Uf32ItQuyR9saqqdIndVRE9OvVOFfETlWvwsO4iPRFJ/hx+u9Ob9Hx4p1xzO35x0/bN5Itfd1iePHW0bS8xw1+hnWeHDtjD+1/C58utbY+THapq+6xxo9z3apueHa/tZ0+syvtD9YtTK5F6o1kbnr0+jr0Rajg646fzcL5L4p+mpP8AB70I+577Enj7yes32mx2PMqRrr8l3eLXSPNXcztrT6IrWZ4dnY0437h3lbiyx9m5G463LS3Ok9uGfYteyeNoW3dXIi0MlPXbjshGqsVEdBLI1VaqdeqKXHtOY7DfR3tnmx5f3NomY92O2Pfhj11V4e9ddD5fU9X8o5jy2ddItuMGTHS37jJavq8kcJ40taOE8eEsbnsWcAAAAAAAAAAAAAAAWcvhfc9ScscBM0XNW0n2zhiajqkne9XT2tLs15ZNKuydUa1EqVqdjGNa3r0jxzHOXukIS645VGw5t8qxRpt9zE29y8fPx78zFv30+Zul9ijxSt134Vx0xzLJ3ufdOWptZ1n4Vtnaszs7z5PgVpk28RHZXb1tPGySksxmO0N89vLWv4z8Zfm/WrdaTlrfILmP02qqxTvwFJiJDktzu1XI9vtYz3UZSZK3ssXVb9WSOKdqXV0pyCedb3v5on8H4pibz8afJSJ9Pl07K+aZhi77Uvjzi8Gei/knJslJ685pW+PaV4WnBSOGTd3rOsaY9dMMWjS+aY4WpjyxFV+9euZO7cyWRtWL2QyFqxevXrc0li3cuW5Xz2rVqxK58s9ixPI573uVXOcqqq9VJ0rWtKxSkRFIjSIjsiI7Iho83O53G93OTebu98u7y3te97zNrXvaZta1rTrNrWmZmZmdZmZmXGOToAAAAAAAAAAAAAAAMtaHwJzXygkUnH/FW+bXUmVEZlMTrOVmwrVXqrfezjq0eHro7p6LJO1F/AU/dc15bseG7z4sdo8k2jvfU66z8xfvS/hb4kdaxW/SnI+ab/b27MmLbZZw+/mmsYq/vrw2w1r4Xnl9n2RSXtN1vUo5Wte1dl3XX3Pax7Fe10sGuWthsQu6IiKx7Ekaq9FaiovSg5uuOnsXCuS+SfpaW/hRWE7cm9ibx/5rWL7rl2z2FbRE/wBI3mDXSY14129s9o9MTEWiZ0mI46ZNj+D/AOTD42PdunB0Tnsa50Umzb2skauRFWN6xcayRK9ir0Xtc5vVPRVT1PDPiHyWJ/2W6+pp/OL0r+j98ZrVi08y6ZrMx2Tud7rHonTl8xrHomY80y4GT+EX5Q0Ifdq5/h7NP7ZF+zYza9nim6sRFazuzOkYmv3SqvRv4zoip9ZUT1OdPEDkd50tTcVjzzWv7F5eXe+wL42bXH38G76e3NtJ+Dj3W5ieHk+y7PFXj5PhaefRgbc/h8eXmkRy2LnDuYz1OPv7bOmZHCbfJMjO5VWLFYHJXM76o30R1Rqr1RETr6FV23V3T26nSu4rS3mvFqfq2iK/qot6i9k7x+6apbNuOntxutvXX4W0yYd3M6ebFgyXz+5riiZ93g1Izuu7Bq2Rlw+zYLMa7l4ERZ8XncZdxGRhRXOaiy0chBXsxormKnq1PVF/oLgxZsWenrMFq3xz5azEx82OCBeaco5ryTeW5fzra7jZ7+nz2LPjviyR7tMkVtHZPbHkdOdinAAAAAAAAAAAAAAP2rWbFOxBbqTzVbdWaKzVtVpXwWK1iB7ZYZ4JonNkhmhkajmuaqOa5EVF6nyYi0TW0RNZjjDtw5s23zV3G3tamelotW1Zmtq2rOsWrMaTExMRMTE6xPGFvHw458g8i+BdR3qxPE/a6MS6tv1ePsa6vuGEhrx37KwxojIIs5VlgyMTG9UjittZ16tUx86j5VPJ+a5NrEfYJ+Fj/cW7I/ezrWfTGrfz7PPini8XfC3YdT5bVnnuKvybfVjT4O7wxWL20jhEZqzTcViOFa5YrrrWW0hQ03AAAAAAAAAAAAAAAAAAAAAAAAAAAAAAAAAAAAAAAAhz+Jp5nro+JveO3GOWRu47BQ9vkrO0ZkWXV9cyNdrmavUlicqw57Y6U3dZcvR1bHyIjUV9lr4ZF6K6b+VZI5xvq/0ek/Y6z9FaPop+lrPZ57eiuk69fbP9ov8AFnY5fCPovPp1Du8WnMc1J47bb5K6xtqzE8M+4pOuSe3HgtERrbNFsdfAltqdAAAAAAAAAAAAAAAAAAAA9vxtx5tHLG96vx1plB2R2TbMtXxWNg+ukMSyqr7N+7Ixki18bjKkclizL0VIq8T3r6NPLvd5g2G1vvNzOmHHXWf2Ij0zPCI8szoubo7pLnfXfU+y6R6dxTm5xv8APXFjrx0jXja95iJ7uPHSLZMltNK0ra09i4NwTw1q/AXFuqcX6pG11LX6LUyGTWFIbWwZ6yiTZrYLzUfKqWcpeVz0Yr3pBF2QsX242ImPPNeZZ+bb7Jvs/wA9eeEeStY+drHoiPmzrPbL9A/hh4d8l8K+iNj0TyKInbbTFHrMmmls+e3HNnvGs/Cy31nTWYpXu46z3aViMvFPX+AYy5j5X1bhHjXbOT9xnWLC6rjJLi143NbbyuQlc2ticJj0citdfzOSmirxdfqNdJ3PVrGucnt5dsM/M97j2O3j7Lktp6Ijtm0+iI1mf1OKy/ELrrknhr0bv+teobact2OGb92PnsuSZiuLDT6fNkmuOuvCJt3rTFYmYp9cv8q7ZzZyNtHJm62/tWd2fIPtPijc/wCx4ujGiQYzC42N7nOhxuIoRxwQtVVcrGdzlc9znLkNy/YbflmzpsttGmKkaemZ8tp9Mzxn9p+fnr/rnn3iR1fves+pMnf5pvcs2mI17mOkfBx4ccT2Y8VIrSkduka2mbTMzjY9qzQAAAAAAAAAAAAM78HeNXMnkRmlxPGGo3MnUrzMhy2z3kfjtSwPe3vRctnpo1qxTLGiubWi963K1FWOJ/RSlc051y7k+L1m+yRW0xwrHG9vcr2+/OkR5ZSj4Z+DfiH4t8x+QdFcvyZ8FLRGXc31x7XBrx+y55juxOnGMde/ltGvcx2Tb8GfCW4m09lTL81529yln2pFLJr+Mku63pFSZG9zoXrUni2LPJDKiK2R89OGRqdJKyoqoRnzTr/f7iZx8spGDF8adLXn5vwa+5pMx5LNk3hl7BvQfT9cfMPEjdZeec1jSZwY5vt9nSfLE920bjPpPZa18NLRwvhmJ0ShadomlceYeLX9D1PXdOwkParMXrWHoYam6RG9qzzQ0IIG2LL/AKXyyd0j3KqucqqqlkbndbneZPXbrJfJl89pmZ/V8noZsdPdL9N9JcvrynpfYbPl/La9mPb4qYaa+eYpWsWtPltbW0zxmZmXqzzq6AAAHEv0KOUp2cdk6VTI4+5E+C5Rv1obdO1BInR8NmrYZJBPE9Ppa5qopype2O0XpMxeOyY4THuS6N1tdtvdvfab3HjzbTJWa3pesXpas9sWraJi0T5YmJhoNzX8NXxq5aiuXsHr0nE20z+5JFmuP2Q0cQ+w5r+xMhp0qLr8tRJHdz202UJ3qnT3kQuvlnWnOuXzFct/lGCPJk4z71/ntfd70ehiv4kexv4N9e0ybnlm0nkPPLazGbYxFMU246es2k/YJrrOsxirgvb+MhCN5G+AfO/jvFdz9vFRb7x7Ve5zt40+Gxagx9bqvZNs2Ec12U11OiIj5nJNRY9zWJZc5yIsmcn6s5VziYxVt6rdz9BfhrP0tuy3ucLfStbHi/7K3ih4SUy813GCvNOk6T/zu0i1q46+Sdzhn7Lt/prTF8MTMVjNMzETpCXOxpAAAAAAAAAAABsDx74p+R3KfsP0fhvespTs9v2fL3cPJruvzd30e1seyuw+Bf0RUV3Sz9VFRV6IqFJ3fPuTbHWN1ucVbR5InvW+prrb9RK/SfgX4v8AXHdt0107zPPt7/O5b4p2+CdfNuNxOLBPp+ycI0meEp6Ph5+F+6eMdbcdu5Iy+Mdtu8UMVi2axg7C36OAxmOs2LjnZLKdkcF/L2rEzU7a6OggjYvSWVZF9uKurupNtzu2Pb7Otvk+KZnvW4TaZ4cI8kR6eM+aNOO0j2S/Zz6j8F8PMOf9YbjDPPuZ4sWKNtht36YMeO1rz6zLpFb5bWmI0x60pWs6XvN/gb78m8jatxHoW0cj7reTH61qWKmymQlTsWedWq2GnjqMckkTbGTyt6WOtVi7m+7YlY3qnXqWpstnn5hu8ez20a5sltI/ZmfREazM+SIllN1p1fyPoHpbfdYdR5fVcn2GCcmSeHetpwpjpEzEWyZbzXHjrrHevatdY1VAeeuatr8geUtm5P26V7bebtLFisUk756et67Vc9mG13HdzY2pVx1Z31nNYxbFh8s709yV6rkLyrluDlOxpsdv87WOM+W1p7bT6Zn5kaRHCIfn88UvEfnviv1vvetef2n5Rub6YsXem1Nvt66xh2+Ps+Djr2zER38k3y2jv3tM4dKij0AAAAAAAAAAAAD3/HPFfI3LmebrPGmmZ/c80rWyS1cJRksR0oHqrW2sped2UMTSV6dvv2pYYe707uqoh5N5v9ny/F6/e5KY8XntOmvoiO2Z9ERMrr6Q6H6v6+5pHJujeXbrmPMdNZrhpNopE/RZL8KYqa8O/ktSuvDXVLXwt8H/AGPJsqZbnnf4darvSOSXTtBSvlc4jHer4b205GGTCY21F06K2tUyUTu7qkqdOi2BzLxDw0mcfKsU3n4+ThX3qx8KY92az6Gefhx+j95xva49/wCKPNa7LFOkztNj3cubSe2L7nJE4cdo82PFuKzrwvGnGUzi3ws8ZeIErTanxPrlrL1mN7di2uB2355Z0RqOtwXNhdfjxlh/b6/Yo6zERVRrURVRbG33UvO+YaxuNxeMc/Q0+BX3NK6a/vtWb/RHs4+C/QEUyci5Ds78wpH/ADG6id3n73xovnm8Y7T/APwa447YiIiZhtG1rWNaxjWsYxqNYxqI1rWtTo1rWp0RrWonRET6ChdvGe1N1a1rWK1iIrEaREdkQ+g+gAAB4/dePtF5IxD8Dv8AqGublh3o/wD+P2TD0cvXidIjUdNWbdgmdUsfVRUliVkjVRFRyKiKejbbvdbPJ63aZL48nnrMx83Tt9yVv9SdJ9MdYbCeV9Vcv2fMeXzr9j3GKmWsTPlr34nu24RpaulomImJiYhFhz38JTjfaorub4Hz0/HGed3zR6psFi9ndItydqdIK1+Vbey6/wC5J1c6RX5GJvo1kDG/RfXKuv8AeYJjFzWkZsXx66VvHuxwrb/RnzzLB7xS9gvo/nlMnMvC7dW5PzSdZja57XzbO86fO1vPf3GDWeM213FY+drjrHZCFzJwNytwHsi6xyjqOQ121K6VcZkValrAZ6CFW99rA5yv34/JwtbI1XtY/wB2FXo2Vkb/AKpJvLua7DmuH1+xyRevljstX0WrPGP1p8ky1qeIfhd1z4Wc4nkvW2wy7TPMz6vJp3sGesaa2wZq648kcY1iJ71NYi9a24MQFRR+AAAAAAAAAAAABKn8KDm2TReb8lxPlLSs17l3GOjoRyOckVbddar2slipWq7rHCmTxH22s9E7VmnWunVe1qLYnXvLI3XLK7+kfZtvbj6aW0ifmT3Z9Eas5PYT8SbdMeJeboTe305Rz/DpSJnhXebetsmKfNHrMXrsc9k3v6mNfgxCyQQ03EAAAAAAAAAAAAAAAAAAAAAAAAAAAAAAAAAAAAAAB4zkT9eF0Tbk4z/M3/UF2v5RunO2GSSPCx7C+pI3GS5F0cFlXQQ2Va/tVise5Ea5WtVXJ6dn8l+VY/lve+Sd+O/3fnu7rx07PIt3q78ZvxX5hHRnyf8AGudpkjaevmYwxnms+rnJpW3wYtpOkxpMxEWmKzMxXKzXww/MzY8vlM/noNRy+bzV+3lctlchvtWzeyORvzvs3LtuxLA6SaxZsSOe9yr1VykxY+t+nMOOuLFOSuKsRERGOYiIjhER7jUJzH2K/aJ5vzDPzXmleX7jmW5y2y5cuTfVtfJkvabXve011m1rTMzM9sy6z5VXlt/Y+jfttS/Jjn+PfT/xsv1EvF+Y149fc/LPvyn1p8qry2/sfRv22pfkw/Hvp/42X6iT8xrx6+5+WfflPrT5VXlt/Y+jfttS/Jh+PfT/AMbL9RJ+Y149fc/LPvyn1p8qry2/sfRv22pfkw/Hvp/42X6iT8xrx6+5+WfflPrT5VXlt/Y+jfttS/Jh+PfT/wAbL9RJ+Y149fc/LPvyn1p8qry2/sfRv22pfkw/Hvp/42X6iT8xrx6+5+WfflPrT5VXlt/Y+jfttS/Jh+PfT/xsv1En5jXj19z8s+/KfWnyqvLb+x9G/bal+TD8e+n/AI2X6iT8xrx6+5+WfflPrT5VXlt/Y+jfttS/Jh+PfT/xsv1En5jXj19z8s+/KfWnyqvLb+x9G/bal+TD8e+n/jZfqJPzGvHr7n5Z9+U+tPlVeW39j6N+21L8mH499P8Axsv1En5jXj19z8s+/KfWnyqvLb+x9G/bal+TD8e+n/jZfqJPzGvHr7n5Z9+U+tPlVeW39j6N+21L8mH499P/ABsv1En5jXj19z8s+/KfWnyqvLb+x9G/bal+TD8e+n/jZfqJPzGvHr7n5Z9+U+tPlVeW39j6N+21L8mH499P/Gy/USfmNePX3Pyz78p9afKq8tv7H0b9tqX5MPx76f8AjZfqJPzGvHr7n5Z9+U+tPlVeW39j6N+21L8mH499P/Gy/USfmNePX3Pyz78p9a/qfCp8tlVEXEaK1FVEVy7rT6NRV+le2q53RP8AYiqPx76f+Nl+on9t9j2GfHqZ09RyuP8A+cp9alW8EvA//tiXL73v+Tw2ycqZ6gmIrLhUsWMJqGCkfHYt08ZcvVadm7lsrNFH9qs+zE1kcSQxdWOlfNYnVPVX4b7u12lbU2FJ1nvfPXt5JmImYiI8kaz26z5IjOX2YPZe/IrO46n6qzbbedcbrF6qvqe9bDtMMzFr0x3vWlr5csxX1uTuVitaxjx61m9skkhZjMQAAVvvileTTuTOTI+EtVv+5pHFN+ZuwSV3r7Oc5F9t9XI+4vX8ZBqMEj6EadGqlt9tV72+05Jk6G5J8i2X4Tzx/Ss8fB+lx9sfV/Pe53fS0+e2740W6z6zjw25Hl16a5Fln181nhm3+k1ya+eu1rM4K8I0yzuNe9HcmIpS/GCwAAAAAAAAAAAORUqW8hbq0KFWxdvXbENSlSqQyWbdu3ZkbDXq1a8LXzWLFiZ6MYxiK57lRERVU+WtWlZveYisRrMzwiIjyy7tvt8+6z02u1pfJucl4pSlIm1r2tOla1rGs2taZiIiImZmdI4prPEr4V1rLxYzfvJllvGUJPZuY3iajZkqZS5C9qSRu3fLVJY7OHje1eq4+o9ttOqe7PA9r4FjXn/XVcc22nJNLX7JyzGsR+4ieE/up4eaJ4S2P+A3sO5t/TD1V4zxkw7WdL4+V0tNcl4njE7zLSYtiifLgxTGXs9ZlxWi2KZy9b1nXdOweO1nU8Hitc17EV21cXhcLRr43GUa7VV3t1qdWOKGNHPcrnKidXOVXKqqqqRfmz5tzltn3FrXzWnWbWnWZ92ZbNOT8l5R09yzDybkW2wbPlO3p3ceHDSuPHSvmrSsREceM8NZmZmdZmZd4dSpgAAAAAAAHy5rXtcx7WvY9qtexyI5rmuTo5rmr1RzXIvRUX6R2cY7Xy1a2rNbRE1mNJieyYQ1ebvw1cPtNTL8reOuFr4XbK8VjI7JxjjYmV8NtDWdZZrunU42thw+wozuV1GPtqXeiey2Kx1SzI/TPWmTBauw5xabbeeFcs9tfRefLX6btr5dY+d13+0p7G/L+d4Nx114Rbam257Stsm45djiK4tzEcZvtKRwxZ9NdcNdMWbSPV1pl1jNABPBPVnmq2oZa1mtLJBYrzxvhngnhesc0M0MiNkilikarXNciK1U6L6ksRMWiLVnWstVGXFlwZbYc1bUzUtNbVtExatonSYmJ4xMTwmJ4xPCX5H11gAAAAyzx5wPzPyxJE3jnjDddugmesaZLE4C+/CROaqtVLWfmhhwlNEc1U6zWGJ1Tp9J4N5zXluwj+mZ8WOfNNo73vV+en3oX50l4X+IvXdqx0hyXmW/xWnT1mLBecMT9NnmIw048PhXjjwb68c/CT8idpSC1vea0rjGk9GLNVt5F+2bDF3p1Xsx+u+5g5FjT+si5Ri9eiJ19VS1N51/yfBrXa1y57eeI7lfm2+F/ospekPYL8XOdxXN1RueW8l206a1vkndbiNfNj2+uGdPLruY4+/Mb7cdfCO8fNa9mxv+xbtyZcZ2e9Vfci07X5u31d0oYJX56LvX+jKr0T6PX1LU3niBzfNrG0piwV8+nft823wf9FlL0j7A/hRybu5uqt3zLnW4jTWs3jaYJ8/wMGueNf8A9z2fNb4cd+OvBXE7a68ecUaPrNut2+1mKmBp2di+qvVnu7LkGXNgsdi+rfcsu7VVVTp1Utbec45pv9flm4y3rPkm0xX6mNK/qMoekfCPwx6Eik9Jci5ZstxTsy1wUtuPRruMkXz208neyTp5GZympFAK7/xVfJ1277xW8ftRyD11Xjy4l3eZq0jmw5re1jVsWKkVjlbYp6jTlVqp6J9vnma5vdXjcS90JyT5LtZ5tuI+z5o0pr5Kef3bz/oxHnlqS9uXxqnqXqWnhRyDNP4D5Tk7+9ms8M2904Yp04WptaTpMfx98kWjXFSUQhITAAAAAAAAAAAAAH6wQT2p4atWGWzZsyxwV68Eb5p555npHDDDDGjpJZZZHI1rWoquVeiep8mYrE2tOlYdmLFlz5a4cNbXzXtFa1rEza1pnSIiI4zMzwiI4zPCEw3ir8K7Y90gxm8+RNjI6Vrc6Q3KPHOPc2vuWWru7Zo12S49sjNUpzs6I6q1r8krXOa/7HI1FWPOe9dYdtNtryeK5c0cJyT85H7mPop9Pzv7qGwbwN9hznHUeLD1N4uXzct5PbS9OX4/g7vLXhMfKLzrG1paNNccRO40mYt8nvEazscfcaaDxTrlfUuONSwmna9Wd7jcdhKUdZs9hWMjfdv2PrW8nkJWRtSSzZklnkRqdz16EW7ve7vf5p3G8yWyZp8tp196PJEeiNIbPOk+jeleheUU5D0hsNty/lNJ19XhpFe9bSIm97cb5MkxERbJkta9tI1tL3B5VzAAAAAAAAADxHIfG+i8r6tkNL5E1jFbZrWTZ0sY3Kwe4kcqNc2K5RssWO3jcjW7lWGzXkinid6se1T1bPe7rYZ43OzvbHmr5Y/WmOyYnyxOsStrq3o7pjrrkmXpzq7ZYN/ybNHwseWuuk+S9LRpfHkr21yY7VvWeNbRKt15q/D/ANn8cZbm/aJJf2/hmxaja+7Mxs2f0ea3KsdejsqV42R2sVJKrY4MkxkcayPbFMyORY3TTJ011Zg5zEbTdaY+ZRHZ9DfTy180+evvxrGumnn2j/ZT514QXydVdMWy8w8O73iJvMa59lNp0rTcd2Ii2KZ0rTcRFazaYx5K0vNJyRwF5MPgAAAAAAAAAAAej0/acvo22axumAmSvnNS2DD7Lh53IqsiyWEyFfJUnSNarVfGlis3ub1Tub1T8J07jBj3W3vtssa4slJrPuWjSf11Y6f55v8Apnn2y6j5Vbucz2G7xbjFbyRkw5K5KTPnjvVjWPLHBdN0Pb8byDpGob3hl/8Aity1nB7RjmrI2V0dTO42tkoIZHsRGrNAyyjH+idHtVFRF9DG3dbe+03WTa5P9pjvas+7WZj9h+jfpfqDZ9V9Ncv6n5d/yPMdlh3OPjrMUzY65KxMx5Yi2k+mJ4Q9WedXQAAAAAAAAAAAAAAAAAAAAAAAAAAAAAAAAAAAAAAAAAAAAAAAAAAAAAAAAAAAAAAADVHzQ8gY/HHgfaN0pWIWbjlkbqugV5UZIsm05iGdIb/sP6tlhwFCGe+9rkVj/s6Rr6yJ1r3TfKZ5zzWm2tE/Jq/CyfuY8n76dK+/r5EFe0Z4r08IPC7e9R7a9Y6hz/0XY1nSddzli2l9J7YwUi+eYmNLerik/PwqLzzz2p5rVqaWzZsyyT2LE8j5p555nrJNNNNIrpJZZZHK5znKquVeq+pkDERWIrWNKw0GZcuXPltmzWtfNe02ta0zNrWmdZmZnjMzPGZnjM8ZfkfXWAAAAAAAAAAHptN0zauQ9nw2maTg7+ybRsFxlHEYbGxJLat2HNc9y9XOZDBXghY6SaaVzIYIWOkkc1jXOTo3O5wbTBbc7m0UwUjWZnsj/wBdkRHGZ4RxVrp3p3nnVvOtv0503tcu853u8kUxYcca2vbt8ukVrWIm172mKUpE3vatYmYsw+F3gLp3jlj8fu26w4/b+abNZJZcu+JLGI0j7VA1s+K1OOZFR12NHOjnyatbPM1XMiSKJz2yQt1J1XuecXnbbbXHy2J7PLfTy39HlivZHl1nTTcz7Ofsr9PeEO0w9SdSVxcw8R701nLMd7Fs+9X4WLaxPbeNZrfczEXvEzWkY6TaLSKFnsuQAAAAAAAAAAAAIZPiQeCrtxhy3kHw5hXybdWjfd5L0/FwOkk2mnDHE122YOlC312GhBGrr8DGquQiT3mp9pZIlqR+jeqfk815RzG39HnhjvP0M/EtPxZ+hn6GeHzund11+2D7MU9Q48/ix4e7aZ5/SJvzHaY66zuaRERO6w0j/f0iJnPSsfZ6/ZKx66toz1/yWWqd7HT+O9/5Cu/m7Q9J2zdLyPax9XVtey2emiV3RUWZuMqWfYYjV6q5/a1rfVVRPU8243m02le/usuPHXz2tFf15hcXT/SPVXVu4+SdLct3/MdzrpNdtgy55j3Yx1t3Y8szOkRHGeDd7jr4X3ldvSQ2MtrmvcbY6ZWuS1vewQRW1h9Fe5uG1yHYsvDN06o2OzDWVXJ6q1q9xbO8635DtdYx3vmvHkpXh823dj5kyyU6R9ijx16niuXf7Pacm2luPe3ueItp5fsW3jcZYnzVyUx6z2zEcW+fHXwdOP8AHLDa5S5X2faZURskmK03FY/U6DZEVOsEuRyj9mvXq69F6ujjpyL19O3p62rvPETd3+DsdvTHHnvM3n5kd2I/VZSdI/o9ulNnNc/W/Pd7vr9s4tpiptaa/FnJkncXvX01rhtPo8u+/G/hb4v8V/Z5tW4c1KfJVvbfHm9pqSbnmY7Efr9srX9rly78bZc7qqrUSBqdVRqI30LU3nUnPN/rGfc5IpP0NZ7ke5MV01j3dWUvR/s5eCfQ/cycj6e2Ft5TSYzbms7zNFo+jrfdTlnHafPi7keSIiODZ+OOOKNkUTGRxRsbHHHG1GRxxsRGsYxjURrGManRET0RChzMzOs9qa61rSsUpERSI0iI4RER2REeSIfYcgAAA1i8vufqXjjwZte+pNEmzW4l1rQqciMf9s3LMVrKYuR0L/qzVsRDBLfnavRHwVXtRe5zetb6e5TbnPNMe00+wR8LJPmpExr788Kx6ZQt4/8AiptvCDwy33VPer+Gslfk+xpOk9/d5a29XOk9tcUVtnvHlpitXXWYVC79+7lL13J5K1PeyORt2L9+7alfNauXbcz7Fq1ZmkVz5p7E8jnvc5VVzlVVMg6VrSsUpERSI0iI7IiOyIaBN1utzvtzk3u8vbLu82S173tMza97zNrWtM8Zta0zMzPGZnVxTk84AAAAAAAAAAeg1TVNk3nZMNqGoYa9sOy7DehxuGw2NhWe5euTqvbHG3qjGRsYivkkerY4o2ue9zWNc5OnPnw7XDbcbi0Uw0jWZnsiP/XvzPCFW5FyLnHU3ONvyDkG3y7vnO7yxjw4ccd69727IiOyIiNZtaZitaxNrTFYmYsueFvw/dQ8d6WP3rf4cbuPNM8TZm31Y23gdD9xjkdS1Rk8LFlyyxydljJvakqp1jrpFGsizwv1J1buOcWna7TvY+Wx5Oy1/Tb0eavZ5Z1nTTcr7OXspdP+Em3xdT9VVw8w8RrV17+nfwbLWPnNrFojXLpOmTczHen5zFFKTecsj5ZrMEAAAAAAAAAAAADg5PGY7NY6/iMvQp5TFZSnZx+SxuQrQ3KGQoXIX17dK7UsMkgs1bMEjmSRvarXtVUVFRTlS98d4yY5muSsxMTE6TEx2TE+SYebe7Lacx2mXl/MMWPPsc+O2PJjyVi9MlLxNbUvW0TW1bVmYtWYmJiZiYVlfiAeE0vjlske/cf1bVnhnbb74K0Tny2p9Dz8/uT/AKt3p5O6WbD3I2udjbMjnSdsb4JnLIxktibOk+po5zh+SbuYjmWOOPk79fjR6Y+ij344TMRpg9qz2br+EHOK9VdKUvfw73+WYrEzNrbLPOtvk97TxnFeImdvktM20rbFknv1rfLG4Xkw7AAAAAAAAAAABZ8+FlyI7dfFfFYCzY97IcabVsOnSI9yLOuNsSw7RiJHJ9PsR19gdWiX+iqqf8JCPXWz+Tc9tlrHwM+Ot/f+dn/V1n3W6v2IOrp6k8D8HKs1+9u+Tb7PtJ17fV2mNzin9zFc846+jHp5Ej5ZrMEAAAAAAAAAAAAAAAAAAAAAAAAAAAAAAAAAAAAAAAAAAAAAAAAAAAAAAAAAAAAAAAArI/FD55XlPnyTQMNddNqPDcFjWmMimbJVubpbfHPuGQajF9JKUsUGMVruqskoSK3okik2dD8q+Q8p+V5I03G5nvemKR85Hv8AG376PM0u+2z4oz1x4qT0ry/JNuQdO1tt4iJia33lpi27vw8tJim2mJ7LYLzHC8o0i9GGoAAAAAAAAAAdnhMJl9kzGM1/AY27mM5mr9XGYnFY6vJavZHIXZmV6lOpWia6SaeeZ6Na1E6qqnDLlx4cds2W0VxViZmZ4RER2zL3ct5bv+ccww8q5VhybjmW5y1x4sWOs2vkyXmK1pWscZtaZiIiFpPwc8MMH4w6c3ObFDTy/Me14+u7acyjIJ49aqStjnXTdessWVEpVZ0Rblhjv/f2I0d/yo4WsgzqfqTLzvceqwzNeXY5+DHxp+PaPPPkj6GPTMt3Xszezpy3wV6ejmfN649x4h7/ABV+U5tK2jb1nS3yTBaNfgVtp63JWfs+SsW+cpjrXfUtVlIAAAAAAAAAAAAAAAYCv+K/jdldot7nk+D+Mcjsd+V9m9evahh7cNy3K9JJb1nGz1pMXPkJpfrvsOgWd71VyuVyqq1anPec48Ebam6zxhjsiLzGkeaJ1109GuiK914HeD2+53k6i3vTPJc3N8tpte99pitF7zOs3tjtWcU5JnjOSad+Z1mbTMzLN+OxmNw9KDHYjH0cXj6rPbrUMdUgo0q8af8ABBVrRxQQs/2NaiFLve+S03yTNrz2zM6z82Ul7PZbPl+3rs9hixYNpSNK0x1rSlY81a1iKxHuQ5xxekAAAAAAAArPfFL56Xk7nVnGuFuvl1ThqGzg5mRyo6tc3nILDNtVvozp3PxSQ18b2ydVimqz9vRJF6zV0Nyr5Dyv5bkj+kbmYt6YpHzse/xt6YmPM0ze294pfjp4nx0dy7JNuRdO1thmIn4N97fSdzbh2zi0pt9Lca3xZe7wvOsYpezCwAAAAAAAAAAOXj8ffy1+jisXTtZHJ5O5Wx+Ox9GCW1dv37szK1SnTqwNfNZtWrEjWRxsarnvciIiqpxvemOk5LzEUrEzMzwiIjtmZ8kQ9G02m63+6xbHY475t7myVx48dKza973mK0pSsRM2ta0xWtYiZmZiIjVaF8DvCvFeNmoxbduNOlkeadqosdmrytist0zF2GRypqGGsI6WP3muRHZC1EqJYmRI2q6GJjnwf1V1Lk5zuPk+2mY5bjnhHZ35+PMf6sT2Rx7Zlux9l32cNj4Ocgrz/qHHjzeI++xR66/C0bPFaIn5LhtxjXy58lf9pf4ETOOlZtIWWiyzAAAAAAAAAAAAAAAPGch6Bq3KWlbJx9uuNjy2sbVi7GKytN69kntTIixWqk3RzqmQoWGsnrTt+vDPGx7frNQ9Oz3efY7mm721u7nx21if2J88T2THljgt3q3pXkfW/Te86U6kwxn5LvsFsWWk8J0nstSe2uSloi+O8caXrW0cYhT/APIPhTYvH3lrbOLtj7p5MHd97DZX23Rw5/W73Wxg83AiojU+2UnIkzGq5IbLJYu5VjVTIXlHMsPN+X499h4RaOMfFtHz1fens88aT5X5/PFjw35v4T9eb/onm+tr7bJrhy6aRn29/hYc1f3dNO/EaxTJF8eszWWFypI4AAAAAAAAAACaT4Nm7PrbrzNxzJIro81q2A3apEq+kL9Zy0uCyMkadPpst22qj16//dNI28Rtt3tttt5HbXJak/vo70fM7k/NbG/0ePUlsPUnUXSF51rudjg3lY807bLOHJMfuvlWPX9zCfcihtRAAAAAAAAAAAAAAAAAAAAAAAAAAAAAP4qo1Fc5URqIqqqr0RET1VVVfRERA+TMRGs8IhEhzR8W3jjj3dMnqXHXHV7lerhLc+OyW0rt1fUcFavVne3YTXnt1zaLOZoQzI6P7S9laOVzFdF7kSslfIHLegN5u9tXcbzNG3taNYr3O/aIn43wqxE+jjp5dJ1hgT4je3r0f0n1Hm5D0jyjLz3BtslseTc/Kq7XBa9eFvUT8n3Ns1InWvrJrjraYmcffpNb2xD86L/TZ/OL/KwqH5N/+t/kf+KsD/MZ/wDDv72/7YfOi/02fzi/ysH5N/8Arf5H/in+Yz/4d/e3/bD50X+mz+cX+Vg/Jv8A9b/I/wDFP8xn/wAO/vb/ALYfOi/02fzi/wArB+Tf/rf5H/in+Yz/AOHf3t/2w+dF/ps/nF/lYPyb/wDW/wAj/wAU/wAxn/w7+9v+2Hzov9Nn84v8rB+Tf/rf5H/in+Yz/wCHf3t/2w+dF/ps/nF/lYPyb/8AW/yP/FP8xn/w7+9v+2Hzov8ATZ/OL/Kwfk3/AOt/kf8Ain+Yz/4d/e3/AGw+dF/ps/nF/lYPyb/9b/I/8U/zGf8Aw7+9v+2Hzov9Nn84v8rB+Tf/AK3+R/4p/mM/+Hf3t/2w+dF/ps/nF/lYPyb/APW/yP8AxT/MZ/8ADv72/wC2Hzov9Nn84v8AKwfk3/63+R/4p/mM/wDh397f9sPnRf6bP5xf5WD8m/8A1v8AI/8AFP8AMZ/8O/vb/th86L/TZ/OL/Kwfk3/63+R/4p/mM/8Ah397f9sPnRf6bP5xf5WD8m//AFv8j/xT/MZ/8O/vb/th86L/AE2fzi/ysH5N/wDrf5H/AIp/mM/+Hf3t/wBsPnRf6bP5xf5WD8m//W/yP/FP8xn/AMO/vb/th86L/TZ/OL/Kwfk3/wCt/kf+Kf5jP/h397f9sPnRf6bP5xf5WD8m/wD1v8j/AMU/zGf/AA7+9v8Ath86L/TZ/OL/ACsH5N/+t/kf+Kf5jP8A4d/e3/bD50X+mz+cX+Vg/Jv/ANb/ACP/ABT/ADGf/Dv72/7Y6y38Z3MvlRaHj3jK0HYiLHb5MtXZfc6r3OSaHRsexGKnTo32+qdPpXr6c6+G+OI+Hu7TPoxxH8OXj3H6RXmNr67XpPDTFp2X5ja86+7Gyxxp6O777i/Oa2b7g8F/EDIfuocvycYPuu/2uPrnR/mJ85/wrtfv6/8AVWxfit8S7J+RPM2u8R5LhyHW02Wpnp4NixW3WMxHinYHAZPPPdksfPrlHuqXW477O2RJ2e3PKxO13d6UfnvRdOT8tvzCm5m/cmvwZppr3rRXhPenjGuvZ2RKXfA72y974ueIuz6B3nT1dnG9x57Rnxbq2WMU4MGTPPrMdtvT4N/V+ri0Xju3tWNLd7hLAWEzsAAGFPIvlqrwbwlyNyhYWJbOsa7akwleZU9u7s2QdHitYovavVXRWs9drtk6I5WxK53RURSp8n5fbmnM8Oxj529473orHG0+9WJ09KOPF3rzB4ZeG3N+tsvd9dstpacNZ7L7jJpi21J9Fs98cW0idK96dJ0U2shkLuWv3spkrU17I5K5ZyGQu2XrLYuXbkz7Fq1Yld1dJNYnkc97l9VcqqZF0pXHSKUiIpWIiIjyRHZD88W73W53+6y77eXtl3mbJa972nW173mbWtafLNrTMzPlmXEOTzgAAAAAAAAABP8AfC28RoddwVbyU5AxTXbDsVaaPizH3YursNrdiN0Fnb1ik6LHkNjY58dNyt6sx/WVqubaTtifrnqCc2WeS7S32Gk/ZZjy28lPcr2z9Nw+hbV/Yj8A8fKOWU8Y+q8ETzfd0mOW47xxw7e0d2260nsybiNa4p04YPh1mYzx3ZnSN2xUAAAAAAAAAAAAAAAAAAAAAAAAAADDPkNyzT4N4W5E5Stey+XVNesz4itYRzob2x35IsVrOPmaxzZFgu5+9WjkVq9Wxuc78HUqXKNhbmnMsOxrrpkvxnzVjjaferEyjrxa682/hn4cc363z92cmx2lrYq27L7i8xi2+OdOOl898dbadlZmfIpr5PJX8zkshl8rbmv5PK3reSyV6y9ZLF2/enktXLc8i+r5rFiVz3L+FyqpkZSlMdIx44iKViIiI8kRwiH54d5vN1zHeZeYb7JbLvc+W2TJe062ve9pte1p8s2tMzM+WZcI5PMAAAAAAAAAAE5PwrPEyKdE8m9+xbJWslt47iPHXY0cxJYJJaWZ3l0DkVqvhmZJRxyuX6r22JuxFStKkYdd8/mP/sm0t5pyzHzYp/Ct70fGhsz9hvwHplj8tHVOCLVi18fKsd41jWJmmbezXzxMWw7fXsmMuTu6xhunSIubOQAAAAAAAAAAAAAAAAAib+LDwJFu/EeL5qwtBH7PxVYiqZ2WCNFsXtBzlxledJexqzWE17O2IbMaf1YK9i3IvROql/dBc1nbcwty3LP2DPGtfRkrH8KsTHpmKwwQ9u3wtp1L0Fg8R+W4tedcivFM81j4V9jmvFba6cbeozWpkr5KY8m4vPDWVcgmJqCAAAAAAAAAACQX4YOzJr/mBo9F8ntxbbgN11mVyq1Gdf1avbDXjerns6e9d1+JjeiOVZHNTp69UtLrfD67p7Lby470t/pRX9a0ssPYq5z+CvaB5ZtrTpj3+13m3mfJ/wAvfPWJ4x23wViO3W0xGnHWLSxBjd4AAAAAAAAAAAAAAAAAAAAAAAAAAAAAQ6/E18zl0bEXvHbjLKKzctioIzkjPUpk79Y1rIwdU1epJGqujz2x1JO6y7qi1ce9ERFkstfBInRXTfyrJHON7X+jUn7HWforR9FP0tZ7PPb0V0nXt7Z/tFfizy/L4R9GZ9Oot3i05hnpPHbbfJX/AJasx2Z9xWdck8Jx4J0iJtmi2KvcS41OAAAAAAAAAAAAAAAAAAAAAAAAAAATY/B04rS3sHKnM9+oqx4ahj+PNbsvajonXstJHntoWLqv4u1RpUsazuROvt3XtRURXIsaeIm/7uHBy2k8bTOS0eiPg196Zm3v1bI/0e3Q8bjmvPPEXdY/gbfFj2G3tPGO/lmM+5081qUpt417e7mtGukzrPURU2kgACEv4xHLTqeD4w4Sx9pWyZm1b5E2euxWtcuPxqz4LVY39Or5K9zIS5KRzV6N9ymxfVU+rJnh3y/vZc/M7xwrEY6+7PwrfMju/Nlrb/SD9eTt+W8k8NtpfS+4vbf7msdvq8few7aJ8s1vkncWmOEd7FWeMxwgYJUatwAAAAAAAAAA2t8MfH2XyP531jSrkE7tPxXftW/WYVcz2tWxEsKzUUmanWKfPX5oKEbk+uz7QsiIqRqUHqTm8cm5Vfc1mPlFvg44+mny/vY1t72nlTp7OvhRfxg8UNl05uK2np/Brud9aOGm2xTGtNfJbPeaYKzHGvrJvEaUlblpU6mOp1MfQrQUqFCtBTpU6sTIK1SpVibBWrVoImtjhgghY1jGNRGtaiIidDH+1rXtN7zM3mdZme2Zntlvy2+3wbTb49ptaVx7XFStKUrEVrWtYiK1rEcIrWIiIiOERGkOScXcAAAAAAA4N3J43GpG7I5CjQbKrkiW7bgqpKrOivSNZ5I0erUcnXp16dTlWl7/ADkTPuRq8253uz2cRO7y4sUW7O/atddO3TvTGujgfrRrP+IsF/e+P/KDn6jP8S/zJeX8N8m+69r9tp9cfrRrP+IsF/e+P/KB6jP8S/zJPw3yb7r2v22n1x+tGs/4iwX974/8oHqM/wAS/wAyT8N8m+69r9tp9cfrRrP+IsF/e+P/ACgeoz/Ev8yT8N8m+69r9tp9cfrRrP8AiLBf3vj/AMoHqM/xL/Mk/DfJvuva/bafXH60az/iLBf3vj/ygeoz/Ev8yT8N8m+69r9tp9cfrRrP+IsF/e+P/KB6jP8AEv8AMk/DfJvuva/bafXH60az/iLBf3vj/wAoHqM/xL/Mk/DfJvuva/bafXH60az/AIiwX974/wDKB6jP8S/zJPw3yb7r2v22n1x+tGs/4iwX974/8oHqM/xL/Mk/DfJvuva/bafXH60az/iLBf3vj/ygeoz/ABL/ADJPw3yb7r2v22n1x+tGs/4iwX974/8AKB6jP8S/zJPw3yb7r2v22n1x+tGs/wCIsF/e+P8Aygeoz/Ev8yT8N8m+69r9tp9cfrRrP+IsF/e+P/KB6jP8S/zJPw3yb7r2v22n1x+tGs/4iwX974/8oHqM/wAS/wAyT8N8m+69r9tp9cfrRrP+IsF/e+P/ACgeoz/Ev8yT8N8m+69r9tp9che+L5zVSl17jPhfX8tUuJl71vkDaUoWoLCMp4tJsJq9aV9eSRHQ3L1nISvY7p0fTid6/gkjw95baM2fmWasx3YjHXWPLPwrT70RWPflrn9v/wAR9vflPJfDnlOfHkjcZbb7c9y0W0pi1w7aszWZ1i97Z7TE+XFSePkgiJTavgAAAAAAAAAAzt41cJ5TyE5o0ni/HrYgp5nIpa2XJ12or8LqeMT7bsOTa97Hwx2I6Ebo63uJ2SXJYY19XoUvnXM6co5bl319JtWulY8954Vj5vGfREz5EoeDfhtvfFnxG5b0TtO/Xb7nN3txkr24drj+HnyazExFopE1x97hbLbHT6JcN17X8NqmBwur67j6+JwOu4qhhMLjKjPbrY/F4urFSo04Gfgir1oWtT8PRPX1Md82XJuMts+aZtlvabTM9szM6zPzX6DOU8q5dyLle25LyjFTByvaYKYcOOsaVpjx1ilKVjzVrERDuDrVAAAAAAAAAAAAAAAAAAPPbdq+I3fVdl03P10tYPa8DltczFZen47G5qhPjrsbVVFRr3V7Du1enovRTu2+fJts9NzinTLjvFon01nWFJ5/yTYdS8j3nTvNaes5Zv8Aa5dvlr58ealsd493u2nSfJPFSw3vUMlx/u236LmU/wDldN2bOavkXJG6JslzBZOzjJ5o2PVXJFNJWV7PVerXIvVU9TJLa7im722PdY/9nkpW0e5aIn9l+cbqjkG86U6k5h0xzH/nuXb3NtsnDTW+HJbHaYifJM11j0TDyh6FCAAAAAAAAAGy/hrm3a/5VcA32SOjWxyhq2EVzVlRVbs2Qj1t8a+yrX9srMqrV6/VVF+t1b1QovUeL13It3TzYLW+pjvfsJm9nfmVuU+OXSu6rMxN+d7bD5ezc3jbzHDjxjLp5uPwuGq4IY8v0DAAAAAAAAAAAAAAAAAAAAAAAAAAAAAEMmf+D/i9kzmY2HL+RW2ZPK5zJ3stkcjldKo38neu5CzJas2r9520RLbuTyyq6STsb3vVV7U69CR8XiHfDirhx7PHXHWsREReYiIiNIiI7vCPQ1181/R+7LnHM9xzbf8AV+/zb7c5r5cmTLs6ZMl73tNrWyX+Ux37zMzNraRrOs6R2Op+TLrP3+Z3+H+P/ew7Pyj5vuSv2yfrHg/y6+Tf4q3P3hT+tHyZdZ+/zO/w/wAf+9g/KPm+5K/bJ+sP8uvk3+Ktz94U/rR8mXWfv8zv8P8AH/vYPyj5vuSv2yfrD/Lr5N/irc/eFP60fJl1n7/M7/D/AB/72D8o+b7kr9sn6w/y6+Tf4q3P3hT+tHyZdZ+/zO/w/wAf+9g/KPm+5K/bJ+sP8uvk3+Ktz94U/rR8mXWfv8zv8P8AH/vYPyj5vuSv2yfrD/Lr5N/irc/eFP60fJl1n7/M7/D/AB/72D8o+b7kr9sn6w/y6+Tf4q3P3hT+tHyZdZ+/zO/w/wAf+9g/KPm+5K/bJ+sP8uvk3+Ktz94U/rR8mXWfv8zv8P8AH/vYPyj5vuSv2yfrD/Lr5N/irc/eFP60fJl1n7/M7/D/AB/72D8o+b7kr9sn6w/y6+Tf4q3P3hT+tHyZdZ+/zO/w/wAf+9g/KPm+5K/bJ+sP8uvk3+Ktz94U/rR8mXWfv8zv8P8AH/vYPyj5vuSv2yfrD/Lr5N/irc/eFP60fJl1n7/M7/D/AB/72D8o+b7kr9sn6w/y6+Tf4q3P3hT+tHyZdZ+/zO/w/wAf+9g/KPm+5K/bJ+sP8uvk3+Ktz94U/rR8mXWfv8zv8P8AH/vYPyj5vuSv2yfrD/Lr5N/irc/eFP60fJl1n7/M7/D/AB/72D8o+b7kr9sn6w/y6+Tf4q3P3hT+tHyZdZ+/zO/w/wAf+9g/KPm+5K/bJ+sP8uvk3+Ktz94U/rR8mXWfv8zv8P8AH/vYPyj5vuSv2yfrD/Lr5N/irc/eFP60fJl1n7/M7/D/AB/72D8o+b7kr9sn6w/y6+Tf4q3P3hT+tHyZdZ+/zO/w/wAf+9g/KPm+5K/bJ+sP8uvk3+Ktz94U/rR8mXWfv8zv8P8AH/vYPyj5vuSv2yfrD/Lr5N/irc/eFP60fJl1n7/M7/D/AB/72D8o+b7kr9sn6w/y6+Tf4q3P3hT+tHyZdZ+/zO/w/wAf+9g/KPm+5K/bJ+sP8uvk3+Ktz94U/rT7j+DLqySMWXnrPviR7VkZHoWOjkdGip3tZI7aJWxvc30RytciL69F+gT4j59OG0pr/wDMn61yp+js5JFom/VO6mmvGI2OOJmPLpPymdJ9Ok6eaUpPAvBmkeO3G+K4z0OO67FUJ7WRv5PKSxT5bO5q/wC39vzGTlghr11szshjja2ONjIoIo2NTo3qtjc15puecby293WnrJiIiI7K1jsiPR5fTMzLN3wt8MumvCPo/B0Z0vGSdjitbJfJkmLZc+a+nfy5JrFa960RWsRWsVrStaxGlWZSmpEAAFS/z/5Kdyd5Xcq34rDp8XqeWZx5hmq9XxwVtLj/ADRkm13dzmrBa2SO9Zarfqr7/VPp6rPvSey+Q8hwUmNMmSvrJ92/GPmV7se80Oe1X1lbrTx155uqXm2y2GeNhhjXWK12ceqyd3yd224jNkjThPf18rTQuNjsAAAAAAAAAAFmP4WHCEXHHAH/AFGydRse0cx3vz57kjGpYradiJLOP1al3fW/F3XLayKK1UR8V2JHIjmEK9dcznec2+R0n7Bto7vu3nSbT73CvuxPnbmvYe8NadH+FX4373HFed9Q5fXazHwq7TFNse2p7l59ZuNYnjXNSJjWqTgslmkAAAAAAAi/+Ix5o5Px+weN4x4yvQ1uVdzxz8jczKMZYl0jVZJZqkWRrRSsfXXPZu1BLHUV6P8As8UMkqtRywOW+Oj+m6c2y23u9iZ2GOdIj49u3SfpaxpM+eZiPOwo9rz2jN74U8sw9F9GZa0655jhnJfNpFp2e1mZpGSsTE19fmtW1cWuvq60veaxacUq3uwbHsG2Za3ntozmX2POX5FlvZjO5K5lspckVVXvs37809qZ3r9LnKTJiw4dvjjFgrWmKOyKxERHuRHBp75rzfm3Pd/k5pzvc7jecyyzrfLnyXy5Lz57XvNrT78umOxTgAAAAAAAAAAAAAAAAAAAAAAAAAAAAABYc+EbwezWOM9o5yy9NiZnki9JrurzyM/G1tM1u7JDkZYHqxrmMzu0QSNmb1c1zcZA5FTqqEReIHM5z72nK8c/Y8Md63pvaOH1Nez91LbX7A/hpXkvRm98TeYY4/CPOMs7fbWmONdpt7zGSazpExGbcxaLRxiY22O0eVL+R42AgAAAAAAAAAAAAAAAAAAAVZficaPHpnlxudyvB9np71hNY3itGjejFku41MHlJ2en1vtWc1+1K5fX673f7ic+id1O56fx1mdbYrWpPvT3o+ZW0Q0ge2j01Tp3x85juMVe5t+abbbbyseTW+P1OSY/dZsGS0/TTKP4u1ikAAAAAAAAAMmcK5BcRzJxLlW+73Yzk3Q8gnsv9ubrS2nFWU9qRFRY5esX1XfgX1PFzKnrOXbjH8bBePm1mF6eHG7nYeIfId9GuuHnWyycJ0n4G5xW4T5J4cJ8krp5jY/RwAAAAAAAAAAAAAAAAAAAAAAAAAAAAAAAAAAAAAAAAAAAAAAAAAAAAAAAAAAAAAB5beNoqaPpW4bpf7PsOoatsG0Xfcf7bPsmv4m3lrPfIvoxns1HdV/Anqd+1wW3W5x7anz2TJWse7aYiP11E6m53g6a6b5h1HutPkvL9jn3N9Z0ju4MV8ttZ8kaVnipNZPI3cxkshlsjO+1kMpdt5G/Zk9ZLF29PJZtTvX/ANc08rnL/tUyXpSuOkY6RpSsRER5ojhD82+83e45hvMu/wB5ab7vPktkvae2172m1rT6ZtMzLhHJ5gAAAAAAAAB6/j7TcjyJvmmaFiOqZPdNpwOr0X9jpGw2M5k62NZYka3ovs1lse5IvVEaxqqqoiKp593uabPa5N3k+cx0taf3sTP6q4Ok+nt51d1Ry7pbYf8AO8x32DbUnTXS2bJXHFpjzV73et5oiZnSF1TXsFi9WwGD1nCVm08NruHxmCxFNi9W1cXiKUOPoVmr+FsFSuxqf7jGvNlvny2z5Z1yXtNpnzzM6zPzX6POU8r2XJOVbbkvLaRj5ds9vjwYqR2Vx4qRjpWP3NaxHvO4OtUAAAAAAPM7nt+B0DUtl3faLjcfrup4TJbBmbaojnRY/F1Jbdj2Y1c1Z7MjIuyKJF7pZXNY3q5yId+22+Xd7im1wRrmyWisR6ZnT5nnnyQo3UfP+V9K8h3nUvO8kYuUbDbZM+a/mx4qze2kcO9aYjStY42tMVjjMKcPOPLef505V3TlPY+sV/a8vJarUEldNDh8PXYylhMJXe5G98OJxNeGBHdGrI5ivVO5ymRXLOX4uV7DHscPzmOumvnnttb351n9R+efxM695r4ndc8x635x8Hdb7cTatNdYxYqxFMOGs+WMWKtKa6R3pibTGtpYoPesQAAAAAAAAAAAAAAAAAAAAAAAAAAAAAAdvr+Cym0Z/B6zhKzrmZ2LL43BYimxejreUy92HH0KzV/A6e3YY1P9qnXmy0wYrZ8s6Y6Vm0z5oiNZn5iocp5Xved8023JuW0nJzHd7jHgxUjttky3jHSv761oj310rjHQ8Xxfx1pHHWFRv5t0vV8LrlaVGNjdaXF0Ias9+ZrURFs5GxG+eV30ulkcq+qmNu+3WTfbzLvMnz+W829zWddPcjsj0P0a9FdL7LonpHlvSPLtPkfLdlh29Z0073qqRW15+myWib2ny2tM+V7o8q5wAAAAAAAAAAAAAAAAAAAK8/xjsZFFzDxNmURvvX+NbeMkd7LWuWLE7Rk7USLOn1pGtdmn9GL6M6qqf11Jd8OrzPLtxj8kZon5tYj+C1L/AKQvZUx+IPIeYxp6zLya2OeHHTFuclo+F2zxzTw8nGY+elD4SG19gAAAAAAAAD0ul25qG46nerq1J6ezYG3Arm9zUmr5SrNGrmr6Oaj2J1T8J0bmsX2+Ss9k0tH6kqz05nybXqHYbrDp63HvcFq68Y1rlrMcPdhd2MZn6UwAAAAAAAAAAAAAAAAAAAAAAAAAAAAAAAAAAAAAAAAAAAAAAAAAAAAAAAAAAAAANLviF7a7T/EDmO3DL7dvNYnEalWb1VFmbtWxYjC5KJFRF+jDW7LlRfRUaqfhLk6R2/yjqHbVn52tpvP72s2j9WIY5+1nz63T/s/9Q58dtM+5wYtrX0xudxiw5I+02yT6dNFTUnxofAAAAAAAAAACQX4Yekt3Dy5029NX+009EwO17tbjc1XRsdWxbtexliRU/qfZc5slWVi9U/Gsanr16LaXW+5+T9P5KxOlst60j3570/NrWY9xlh7FfTcdQePnLtzkp39vyva7reWjThHdxfJ8dp83dzbjFaJ+NFfcWliDG7wAAAAAABDX8W/yB/V7Tdd8e8Bc7crvP2ba939p/wBevqWKvu/MWMl6fR+fNhounXoqOazHdFTtl9ZG8P8AlPrtzfm+WPseLWtP3cx8Kf3tZ0/fehrw9vbxX/BPTuz8J+VZNN9zPu7reaTxrtcV/sGOf/nZ6TefLFdvpPwcivwS01RAAAAAAAAAAAAAAAAAAAAAAAAAAAAAAABvh8NnjqPkLy10GS1AljG6FVzPIuQYrUXtk1+s2rgZ0VyOaxa22ZXHydeir0b0Toqo5LV6z3k7TkGWKzpfLMY4/fTrb5tIsyi9jrpGvVnjzyq+evf2fKqZt/kj04K93BPo7u6y4Le9w0nSYtVkEt5QAAAAAAAAAAAAAAAAAAAACBj4zawfrDwAjXSfaUw3IizNXs9pIFvaeldzOi+57jpEl7uqInRG9Oq9ekqeHGvqd38XvY/1r/8A4NXH6RScX4W6UiJn13yff6xw07vf2nd08uuve114cI08qEskxraAAAAAAAAAHrNCpJkt50vHOkWJt/bNcpLKje9YktZinAsiMVWo5WJJ16dU69Dz7q3c2uS/mx2n5kSr3S22jedTcu2cz3Yy7/b017dO9lpXXTy6art5jO/ScAAAAAAAAAAAAAAAAAAAAAAAAAAAAAAAAAAAAAAAAAAAAIWvO34i+8cVck2eIeCrGBq3tXirpu233sdWztiLPTtbYdreJqXfdxMTMbUexLkskU0i2JHQtSJ0L1fJPS3R+13+yjmHNIvNb/OUie78H40zHHjPZETHDjx14a5Paf8Aa76m6G6xv0B4YX2tN1sor8s3d8dc9ozz8L5PipfXFEY6zHrbWre3ftOOPVzjtNtDPmfeY33gYL9gtM/QxdX4kdO/xNvtl/22Ln56vtC/2ttvvHZ/zJ8z7zG+8DBfsFpn6GH4kdO/xNvtl/2z89X2hf7W233js/5k+Z95jfeBgv2C0z9DD8SOnf4m32y/7Z+er7Qv9rbb7x2f8yfM+8xvvAwX7BaZ+hh+JHTv8Tb7Zf8AbPz1faF/tbbfeOz/AJk+Z95jfeBgv2C0z9DD8SOnf4m32y/7Z+er7Qv9rbb7x2f8yfM+8xvvAwX7BaZ+hh+JHTv8Tb7Zf9s/PV9oX+1tt947P+ZPmfeY33gYL9gtM/Qw/Ejp3+Jt9sv+2fnq+0L/AGttvvHZ/wAyfM+8xvvAwX7BaZ+hh+JHTv8AE2+2X/bPz1faF/tbbfeOz/mT5n3mN94GC/YLTP0MPxI6d/ibfbL/ALZ+er7Qv9rbb7x2f8yfM+8xvvAwX7BaZ+hh+JHTv8Tb7Zf9s/PV9oX+1tt947P+Zb7fDx81+eufOZs7x7yhlMPseEboeV2atbp65jMLexN7E5fBUWOSbDV6leajcjzDmSNmY5fcSNWPb9ZslqdX9Ncq5Ty2m72NbUy+tisxNptExMWnyzPGNPJ5NdfRlN7JPtIeKXin4i7rpLrbPt95y2OV5dzW1Nvjw3xXxZcFI44a0rNLxlmLResz3u53bV4xaaIjdsYAAEVnxeM6/HeNerYeJzkfsXLWAr2G/XRr6ON1rbclIiq1yNVyX4Kyo1yKip1X6URS+/D7FF+dZMk9lNvb5s2pH62rBv2/eZ22fg5seX45mLbvn2Ctu3SaY9vusk/6cY+E6+We2FbcmVp3AAAAAAAAAACZz4NWvNs8gc27X7fV2F07VteSXtVexuzZrIZJ0fd3Iie6upIvTovXs+lOnrG/iNm7u022D42S1vqaxH8NsV/R38pjN1X1Jz3T4W25ftsGvm+U5r5JjX0/JY8nk8mnGf8AInbVwAAAAAOqzubxetYTMbHnLkWPwuv4rIZvMX5uvs0cXiqk1/IXJe1HO9qtUge93RFXo07MWLJny1w4o1y3tFYjzzM6RHvy8PM+ZbLk3LdxzfmeSuLlu0wZM2W89lMeKk3yXn0VrWZn0QpveQfMGW545i3vlHLOmamy5qd+GpTKnXE61RRtDW8SjGvfEx9DDV4WSqz6sk/fIv1nqq5Fco5dj5Vy7FscenwK8Z89p42n351080aR5H55vFjxA3/ih4hc063382iN5ubThpP+629PgbfFpEzETTDWkW04Wv3r9tpYaKkjoAAAAAAAAAAAAAAAAAAAAAAAAAAAAAAAJtfgz6rHNsHOm7yxok2Nw+l6rRl6sVXR5y7ncvlY0RHe4xGO16mq9URru70VVavSM/EfPMYdrtY7LWvaf3sViP8AWlsm/R28jpk5t1P1LePsmHb7PbUnh2Zr58uWPPGk4MXk0nXh2TpPMRW2jAAAAAAAAAAAAAAAAAAAAAK5nxgtijv8+6DrcL2yN13iylbs9E6LDez2zbE98DusbXK5KGNrSf1nN6SJ06L3ExeHmGacpy5p+jzzHvVrX9mZ+Y1C/pA+b13Xipyrk+OYmNpyOlrei+fc7iZrPD4mPHbtmNLeSdUS5fzA0AAAAAAAAAZa4CxaZvnbhXCqyORMvy1xxi1jlc5kUiX9xw1RWSPZ9dkbkl6KqeqJ9BT+bX9Vyvc5Pi7fJPzKTK/fCvZRzLxP6b5dMRMbjn3L8ekzMRPf3eGukzHGInXjMcV0ExvfovAAAAAAAAAAAAAAAAAAAAAAAAAAAAAAAAAAAAAAAAAAANbPLLn/AB3jdwltPIkrqs2wuiTA6Li7Lmq3LbllYpmYqN8KvjdYp4xkUt+2xrmudUqyI1UcrStcg5TfnPM8ezjWMPz15jyUjt9+eFY9Mwhzx48Vdp4O+G2+6tyTS3Npr6jZYrf73d5YmMUTGsd6mOItnyxExM4sV4iYmYVBsrlMjnMpks3mLtjJZbMX7mUymRtyOmt38jkLElu9dtSu6ulsWrMznvcvq5zlUyDx46YqVxY4iuOsRERHZERwiI9yGgHfb7ecz3ubmXMMl82/3GW+XLkvOtr5Mlpte9pnjNrWmbTPlmZlwDm8gAAAAAAAAAATAfBywqz8ycrbF7SqmL4yr4VZuyVUjXPbViLyRLIn4lqypraqiO+s7s6t9EcR54i5NOW4MPxs+v1NZj+E2B/o9eXTl8Q+e8304YOS1w66Tw9fucV9Nezj8n10njOnDhErDZETbSAAIWvjL3JGaVwZj0axYrW0bnce9evuNko4nCQRtb69vY9uRcruqderU6fh6yT4cVidzur+WKUj5s2/aa5P0iO5tXpzpjaREdy+93d5ny60xYaxHuT6ydfchASSu1XAAAAAAAAAABPL8GOCFuB8gbLY2pPNl+OIJJf+J8NeluckEa/g7Y32pFT/AOupFfiPM+t2lfJ3cn69P2m0X9HXixxyvqvNER62245fWZ8sxWm8mI96bW+bKbYjNsnAAAAAAim+K7zuug8NYziLCXfZ2Ply29uWSCVzLNTRcDPXs5PvWP68Lc7lXVqidyo2es20z6yI5EvzoLlXyvmNuYZY1w7eOHmm9tYj6mNZ9E92WDHt1eKE9LeHeDoDluTu845/kn1vdnS1dlgmtsmunGPXZfV4uOkXxxnrxjVW9JkaegAAAAAAAAAAAAAAAAAAAAAAAAAAAAAAAAWF/g40Yo+H+Wckiu963yVUoyNVG9qRY/V8ZPCqKid/c5+Tf16qqdETp09esReItpnmO3p5IwzPzbT+020fo9NtSnh9z7eRr6zJzmtJ82mPbY7R6e3JP6mnlTCEeNggAAAAAAAAAAAAAAAAAAAACpb8QDeWb95ccxZCvYWejgc5U0ik3u7mV10vF0ddykUS9VRGOz1G3IvT07pFJ96T2s7Tp/bUmNLXrN5/fzNo/wBGYhoa9qzqavVPj31Du8V+9tdrua7OnlivyPFTBkiPR6+mW3u2lpsXGx4AAAAAAAAAG2/gdgHbJ5ecFY5je9a+3yZ9U7lb0bqmEy20Pd1RzVXsZh1Xp19enTov0Lb/AFVl9T09urz5cfd+qtFf2U+ey9yqeceP3TG0rGs05hOfzf8AK4cu5mfJ2Ri19PZx7FuQx/b8AAAAAAAAAAAAAAAAAAAAAAAAAAAAAAAAAAAAAAAAAAADFHL/AAdxZz1rtLVOWdTh23BY7KxZujUkyecw01TJw17NRlqDIa9k8Tko1WtbkY5iTe29rvrNXonT38v5pvuVZpz7DJOPLNe7M6VnWOE6aWiY7Y8yxPEDwz6H8UuUY+RdebCu/wCV4c8ZqUnJmwzXJFbUi1cmDJiyR8G9omO/3ZieMTwa3/LX8KvuX/mLyx+/ZWfxz6l+6f5PF9Yh/wDM59nD/Dn94c0/rp8tfwq+5f8AmLyx+/Y/HPqX7p/k8X1h+Zz7OH+HP7w5p/XT5a/hV9y/8xeWP37H459S/dP8ni+sPzOfZw/w5/eHNP66fLX8KvuX/mLyx+/Y/HPqX7p/k8X1h+Zz7OH+HP7w5p/XT5a/hV9y/wDMXlj9+x+OfUv3T/J4vrD8zn2cP8Of3hzT+uny1/Cr7l/5i8sfv2Pxz6l+6f5PF9Yfmc+zh/hz+8Oaf10+Wv4Vfcv/ADF5Y/fsfjn1L90/yeL6w/M59nD/AA5/eHNP66fLX8KvuX/mLyx+/Y/HPqX7p/k8X1h+Zz7OH+HP7w5p/XT5a/hV9y/8xeWP37H459S/dP8AJ4vrD8zn2cP8Of3hzT+uny1/Cr7l/wCYvLH79j8c+pfun+TxfWH5nPs4f4c/vDmn9dPlr+FX3L/zF5Y/fsfjn1L90/yeL6w/M59nD/Dn94c0/rrYnh/gXiLgPD5HBcSaTj9Px+Xtx3cq6C3lcrkcnYgbK2suQzWev5XM3IabZ5EgiksOigSR/ttb3u60fmPNeYc1yRl5hlnJesaRwiIjz6VrERGvlnTWdI1S54f+FvQPhZy/NyzoLluLl+13GSL5e7bLlyZLV1ivrM2e+XNeKd63cra81p3rdyI7065eKev8AAQY/Gi//wCbP/5i/wD6sJQ8N/8A63/8n/8AVayf0jP/APx3/wDdv/8AGIMiUGskAAAAAAAAAAJ5fgxzRO1/yArpIxZ4sxxzNJEip3sinpbkyGRzfpRkr68iNX8KsX+givxHifW7SfJ3cn69G0b9HXkpPKuq8UTHrK7jl8zHliLU3cRPuTNbae5KbYjNsmAAAAB/FVGornKiNRFVVVeiIieqqqr6IiIHyZiI1nhEKh3mhzk7yA8hd43Spc+16tjrf6o6N2OVa6alrss9ajcr9XOVI85cfYyKoq+j7ip6IiImQfTfK/wTyjFtrRpnmO/f93bjMfvY0r7zQN7RniZbxW8WeZ9R4MnrOSYcnyXZafO/JdvNq0vX0ZrzfcT6csxwiIiNViuoNAAAAAAAAAAAAAAAAAAAAAAAAAAAAAAAABYL+DdlEm4u5iwndF3Y/fsNlFajZEmRMxrrKjXSPVfadE5cGvYiIjkVHdeqK3pEniNj0322y+fFMfMtr/CbYP0eW+jJ0R1Dy3Wvexc1w5dOOv2XbxXjPZp9hnTTjExOvbCZAjpsMAAAAAAAAAAAAAAAAAAAA8NybvWM4w473fkTMdFxulatm9lsxdyMdaTE4+e5FRhVVRFsX54mwxJ9LpJGp+E9Wy2t99vMWzx/P5clax6NZ0197tlbPWnU+y6K6R5l1dzD/k+W7HNuLRrpNvVY7XikfTXtEUrHltaIUr8zl7+fy+VzuVsOtZTNZK9l8laf0R1m/krUty5YcieiOmsTOcv+1TJPHjpix1xY40pWsREeaIjSH5xuY7/dc15hn5pvrzffbnNfLktPba+S03vb37TMutObxAAAAAAAAACUD4SuoyZ3ydv7G6Jy1dH452TKJY69GMyGYt4nW6tdUTqrpJ6OVtvRF9OkTl69eiLY/X+4jFySMP0WXNWPeiJtP6sR81mx7BnILc08acvN7Vn1HLOT7jL3vJGTLbFt61921MuWY8mlZ8umtlshduUAAAAAAAAAAAAAAAAAAAAAAAAAAAAAAAAAAAAAAAAAAAAAAAAAAAAAAAAAAAAAAg/+M/SWTHeO+R9xEbVu8pUli7VVXrfg4+nSRH9ejUjTGqip09e//Z6yd4b20vvKeeMU/M9Z+21pfpFtvNtn0ju9eFMnMqaefv12FtdfR6v39fQgkJSawAAAAAAAAAAAmS+DdtUdLkzmPSnS9r9j0fA7LFEqdElXT87LjXqjlcn4yNu6dUb0VVarl9EResc+IuCbbLbbnyUy2r9XXX+A2Hfo8ueU23WfUPTdraW3nLMG4iPP8kzTjny9sfLOzSeGs8NONgkiVteAAAABpN8QfmOxwz4w7tkMXYfW2LeH1+NtdnjVrX17e0V7n52tMeq98U1TV6N+SF7EVzLDY1Tp/WS5ukeXRzLneKl41w4vslvcrppHv2muvo1Y2+1j4h5fDvwV5lu9leac35nNeX7e0dtbbmt/W2ie2JrtqZ7UmOMXik8O2KnpPTRKAAAAAAAAAAAAAAAAAAAAAAAAAAAAAAAAABMn8G/cI6HJfMWhvlRrtm0rA7TBG5GokkmmZufGSJG5W9fdSLdld2oqK5rVVUVGdWxz4i7eb7Lb7qPoMtq/V11/gNh/6PLqCu16y6h6XtbSd7y3BuYjzztM0450nz6bzXSJ4xEzpPd4WCCJW10AAAAAAAAAAAAAAAAAAACIz4t3N0WqcT67wpiriNzvJuThzGwQxSJ7lfStYtR2o2WGNVJI0zWzMrey7+q9lCwxUX8EgdAcsnPv78zyR9iwV0r+7tGn6lddf3UMBvb18SsfIuhNp4b7HJpzTnWaMueInjXZ7a0WiLR2x67cxj7k9kxgy1081dcmBqMAAAAAAAAAACfz4OGhOo6Ly/ybYh6frFtGE0vGyvarXpBqmMlzGTdD16d0Fqfa67XO6KivrKiL1a5CJ/EXd97dbfZRPzlLXn99OkfM7s/NbVv0efS1tt0x1B1nlr/zm9w7PHM9vd2uOcuSY+ltbdUiZ7NcemusSmfI3bFgAAAAAAAAAAAAAAAAAAAAAAAAAAAAAAAAAAAAAAAAAAAAAAAAAAAAAAAAAAAAAId/jH4h03EfEeeSJqsxvI2QxDp/YVzo3ZvWb1xkSWe1UibMmAcqs6p7ntovRez0kTw6yacw3GLy2wxP1Nojs/ff+tWvj9IZsJydA8g5p3YmuHnF8Xe04x67bXvEd7ya+omZjX4XdiePd4V7CXGpoAAAAAAAAAANyfALkqPjDyu4rylyy2tiNlyljQsw58ntROr7lVkw+NdPKv1I4KuwzUp3ud9VGwr1VE+sludWbKd9yHPSsa5KV9ZH7ydZ+bXvR77Ij2VesqdFeOnI97uLxTYbzPbY5dZ0ju7us4sfensitc84bzM8IivGYjjFtIgJvkAAAABGz8UfiLcuU/HnH3dJxdvO3+PNyq7flsPj4H2sjY11MLmsVk7dGtF3T2pcY/IRTyRsa532dsr/APg6LefQ3MNtsebzXc2ilc2OaRM8I73eiYiZ8mukx7ukeVh17bfQPUXXHhLi3PTeDJut1ynmNd3lxY6zbJbB6nNiyXpWPhWnHOSt7VrEz6uL2+hVilRWqrXIqKiqioqdFRU9FRUX1RUUm1pZmJidJ7QPgAAAAAAAAAAAAAAAAAAAAAAAAAAAAAAAANrfCLlNnEHk9xTtNuwlbCX88mn7E969tduF3GGTXpbVpU+slfEW70N5enr1qp6KnVq0HqbY/hHkmfBWNcsU79f3VPhaR7sRNffTr7NfXFfD/wAauRc83F+5y3Luvkm4mfnfU7uJwTa3l7uK16Zp08uOO3sm3cY+t+4AAAAAAAAAAAAAAAAAAOrzeaxOt4bLbFnshWxWDwWNvZjMZO5IkVTHYvG1pbl+7ZlX0jgq1YXPev4GtU54sWTNkrhxRNst7RERHbMzOkRHuy8XMuZbDk/Ls/N+aZaYOWbXDfLlyXnSmPHjrN73tPkrWsTMz5oU/PKTnXJeRfNm4cl2/ehxNu0mJ0/GzojX4jTsS+WDBU3sRz2stTxOdatIjlatyzKrfqqiJkNyPldOT8sx7Kuk5IjW8+e8/PT7nkj0RD8/Pjd4nbzxd8SOYdZbjvV2GS/qtpjntxbTFMxhpMcdLWiZy5NJmPW5MkxwmIa9lXRMAAAAAAAAAAFuzwf4zdxR4ucR61arOq5fIa6zb89HKxY7Lctuc8uySV7jF/q2cZUyMNNyenRK6IvqimPvU+9+X883Gas644v3K+bSnweHomYmffb9vZp6Mt0L4I8g5NnpNN/l2kbvPExpb1u7tO4mt4+NjrkpinzeriO1teUFOwAAAAAAAAAAAAAAAAAAAAAAAAAAAAAAAAAAAAAAAAAAAAAAAAAAAAAAAAAAAAAEbXxWdbdnPEzI5RsavTTd+0vZHuRjnJC21Pe1BJFVrVSNFftSM6u6J1f069VRFvPoPN6rn8U/jMV6/M0v/BYde3PyeeZ+A+bexGscu5rs9xPDs71r7TX0cd1Eazp26dswrEk2tLAAAAAAAAAAAftWsT07EFurNLXtVZorFaxC90c0E8D2ywzRSNVHRyxSNRzXIvVFTqfJiLRNbRrWYduHNl2+WufBa1M1LRatonSa2idYmJjjExMaxPklcX8X+aKPPvBug8lV5oX5PJ4iLH7VWiVqLj9ww7Ux+x1HxJ0dBHJkIXTwI5EV1WaJ6J0eimO3POW25TzTLspj4Fba1nz0njWfmcJ9MTD9CXgn4jbXxU8MuVdY4bVne5tvGPdVj/d7vF8DcVmPJE5Im9InTXFeluy0M/FJSqAAAADF2xcHcK7fclyG2cP8XbRfnlWee9sXH+p5u5NOqORZpbOSxNmaSVUcv1lcq+qnuw805lt69zb7jPSkeSuS9Y+ZEwsjm/hn4cc/3Ft3z7p/km93Vrd619xsdrmvNvPNsmK0zPGeMzq87/2v+NH/AI78Gfwk0H93zu/DnOvuzdfbcn1yk/kU8Gv8I9Mf+17H+YP+1/xo/wDHfgz+Emg/u+Pw5zr7s3X23J9cfkU8Gv8ACPTH/tex/mD/ALX/ABo/8d+DP4SaD+74/DnOvuzdfbcn1x+RTwa/wj0x/wC17H+YP+1/xo/8d+DP4SaD+74/DnOvuzdfbcn1x+RTwa/wj0x/7Xsf5g/7X/Gj/wAd+DP4SaD+74/DnOvuzdfbcn1x+RTwa/wj0x/7Xsf5g/7X/Gj/AMd+DP4SaD+74/DnOvuzdfbcn1x+RTwa/wAI9Mf+17H+YP8Atf8AGj/x34M/hJoP7vj8Oc6+7N19tyfXH5FPBr/CPTH/ALXsf5g/7X/Gj/x34M/hJoP7vj8Oc6+7N19tyfXH5FPBr/CPTH/tex/mD/tf8aP/AB34M/hJoP7vj8Oc6+7N19tyfXH5FPBr/CPTH/tex/mEEHxJeQuC6W3RcG8H8V8T6w/ULv2jkTc9Q4/0/C5WxsLGK2DT8bmMThqtuClhWSK7IrFL+OtuSB3b9mlbJKfRm05pbb/hTmefcX9ZH2Ol8l5ju/HmJmY1t9DrHCOP0UaavvbF6s8Mttz+vhn4acj5Dsrcvyd7f7vabHaYcts8Rw2mPLixVtWmGJ13Hdt8PLMYp7vqbxeLYvlhCAAAAAAAAAAAAAAAAAAAAAAW5fCTnmHyC8fNO2i1c+07dr9aPTN8ZJIj7K7PgKtaGXJz9On/AO4sfJBkEVERqOsuYnqxemP/AFNyqeU83yYKxpt7z36ebu2meH72da+9r5W/L2bPFHH4r+E/Lud58nf5/tKRs97Ezrb5TgrWJyW//cY5pn80Tkmscay22LfT0AAAAAAAAAAAAAAAAAEGnxT/AC4iWOXxl49yqvkV9a5y5laEye3G1ix28ZobJ41VXyK9GW8mjeiNRIa6uVVsxNlDoXp+dfw3u68OMYon5k3/AGK+/PxZay/bg8fKTS3gv0nn1vrW/NctJ4RppbHsotHbOvdy7jThGmPFMzM5qVgvJQaxwAAAAAAAAAAz54u8TS83c+8YccLWdZxma2apa2RqdyNZqeER+b2dz5W+kLpMJj5o4lVURZpGNT1ciLSeeb+OWcpz7zXS9aTFf3dvg1/0piZ9GqVPBPoS/iV4p8l6Pmk32e53tLbjzRtcOubc6z5NcOO9azPbe1Y7ZiFx1rWsa1jGtYxjUaxjURrWtanRrWtTojWtROiIn0GOvbxntfoXrWtaxWsRFYjSIjsiH0H0AAAAAAAAAAAAAAAAAAAAAAAAAAAAAAAAAAAAAAAAAAAAAAAAAAAAAAAAAAAAADWvzF012/eLvOWtxQfarL+Ps1m6VZEVz7GR1NjNsxsMTUa5XTy38JG2NPRFeqeqfSla6d3PyTnm1zTOkeuisz6L/An9SyHPaE6dnqrwT6m5PSvfzTynNmpXy2ybWI3WOI+mm+GsV9OnGO1T4Mhn59gAAAAAAAAAAASp/C38ma/FfJl3hzbb6VtL5ZvU0wlmxK1lTCchxsbTxrnK97I4odsqIyjK7o5zrUNNPqsR6lidc8knf7KOY7eNdzt4nvR5bY+2fqJ+FHom3oZyexH4zYuh+s8nh5z7L3OnOfZKeptadK4d/EdzHPGYiI3VdMNp4zOSu3jhXvSskENNxAAAAAAAAAAAAAAABHv5++YVPxu0B+rajfgk5k3rHzRa3Ax0U0upYWZ8tS3ut+uqr2ujdHLDjWyJ2TXWq9UfHXmYt3dJ9O25zu/X7iJ/B2KfhfT27YpH6k280cOEzEsTvaq9oLb+D3Ss8j5BlrPiHzPFMbesaTO1wzM1tvL18mmlqbeLRpfNE20tTFkrNXKzZsXLE9u3PNat2ppbNq1ZlfPYs2J3ulmnnmlc6SaaaRyuc5yq5zlVVXqTjERWIrWIisRwhpJzZs24zW3G4ta+e9pta1pm1rWtOs2tM6zMzMzMzM6zPGX4n11AAAAAAAAAAAAAAAAAAAAAAG+3w+vKJvjlzBHR2e+tbi7kZaWC3J8z3fZcFcikkTAberEa5UZiLFl8VpU6f+ysSv6OdHGhanVvI/wxy7vYI132HW1PPaPoqe/prH00R55ZS+yh4218IfEGNtzrL3OiecdzBu5mfg4bxM+o3WmnZita1cmn+5yXtpa1KQtRRyRyxslieySKRjZI5I3I+OSN6I5j2Paqtex7V6oqeioQVMTE6T2t4tbVvWL0mJpMaxMcYmJ7JifLEvsOQAAAAAAAAAAAAAABHP54+b2G8c9Zt6Jo96pk+bdjx6JQrM7LVbRMZdaifrJnI0d2pkpa7nOxtR/VXyds8rVgajJ7x6V6Yyc4zxut1E15ZSePk78x9DX0fGn3o48YxD9qL2leXeEPJsnS/TOXHm8Sd5i+BWNLV2WO/wD9RmjXT1k11nb4p+etplvE4oiuSsPkMhfy1+9lcpctZHJ5O5ZyGRyF6eW1dv37sz7Nu5ctTufNZtWrEjnySPcrnvcqqqqpNtKUx0jHSIilYiIiOEREdkRHkiGlfd7vdb/dZd9vsl829zZLZMmS9pte97zNr3vaZmbWtaZta0zMzMzMzq4hyecAAAAAAAAAAJ3Pg/8ACTq9Hf8An7MU+12Qd/080qSaFUctStJVym3ZOusjej4rFttKpHLH9D69mNV/rIRb4h8z1ti5Tjns+yX93jFI+Z3pmPTWW0D9H74bWxbbmvirzDHpOWfkGzmY+grNcu6yV17Ytf1OKtq+XHmpr2wm/IxbLAAAAAAAAAAAAAAAAAAAAAAAAAAAAAAAAAAAAAAAAAAAAAAAAAAAAAAAAAAAAAAAHHt1K1+pao3IWWKl2vNUtQSdVZPWsRuhnheiKiqySJ6tX/Yp9raaWi1eFonWHVuMGHdYL7bcVi+DJSa2rPZNbRpMT6JiZhSn5R0m1xtyTv3H1z3FsaVuOx6w6SROjp2YTLW8fDaRUREdHbhgbK1yejmvRU9FMldjua73ZYt3Xsy462+qiJ097sfnA626bz9HdY816U3GvreW8w3G2mZ+ijDltji3uWisWieyYmJjg8Iepa4AAAAAAAAAAfUcj4nslie+OSN7ZI5I3Kx8b2KjmPY9qo5r2uTqip6oomImNJ7HKtrUtF6TMXidYmOExMdkxPkmFmn4evmnS571KtxlyBlYouZdQxzI0nuSRRP5CwFONzGZyj1ci2M9jq8SJk4URHO9LLO5r5WwQp1d01blW4ne7Sv/ANtyT5P93afoZ+ln6Gf3s+TXc97JvtHbbxS5DTovqvPWviJy/DEa3mInf4KRpGanH4WfHWIjc001nhmrrW2SMcmBZTMwAAAAAAAAAAAADTfy+8x9G8WNU7bKw7Dybn6FiTTNJgmb3vVO+CPP7G9jvcxmt1bLVTu/51yRjooEXtlkhuPp7p3dc9z/AAfgbKk/Dv8Awa+e0x70ds+SJx49oD2hemfA/kWmbu7vrTdYrTtNnWeM9tYz7iY449vW3DX5/LaJpjjhkvjqu8gcgbfyjt+c3zfM5c2LadiuOuZPJ3HIrnuVEZDWrQsRsFKhSga2KvXiayGCFjWMa1rUQnTabTb7Hb12u1rFMFI0iI/9cZntmZ4zPGWjzqvqvqDrfqDc9UdUbnJu+d7vJN8mS89vkitYjStKUrEVx46xFKUiK1iIiIeOPSt0AAAAAAAAAAAAAAAAAAAAAAAAJ5fhp+b9fIU8J43cs5ZkGToxR47ijacjYayPJ02dGVdDydqeT6uTqNVGYly/VnhalT0kZA2aK+tOmJpa3OdhXWk8ctY8k+XJEeafo/NPwuyZ02jext7S2Ld7fbeD3XmeK73FEY+WbnJbSMlI4V2WS1p/2lezaz2XpEYOF64oyTbEZtkwAAAAAAAAAAAAACM3zW+ITq3AdXKcecY2cdtnM0jJadpWqy7gOPHPjc11vOuY50N/YoXORYcYiqjHJ32lY1Gwz3r010jn5rau830Tj5b2x5LZPRXzV89ver54wy9pD2suR+FmDP0l0XfDv/EWYmluy+DYax89m04X3EcO5t/oZ+Fn7sRXHlrX7FsWd23O5bZtmy17O7Bnb1jJ5jMZOxJav5C/akWWezZnlVXvke9f9yJ0RERERCZ8OHFt8VcGCsVw1jSIjhERHkhpx5vzfmfPuZ5+dc6z5d1zbdZbZMuXJabXyXtOtrWtPGZmfmdkcHTHYpwAAAAAAAAAAes0TSs/yPuer6Fq1Rbuw7dnMdgMTX+ska28lZjrsmsPa13s06yPWWeRU7YoWOe70ap591ucWz2191nnTDjrNp9yI/XnsiPLKvdL9Oc16w6j2XS3I8frObb/AHOPBir5O/ktFYm08dKV1717dlaRNp4RK5Pw/wAZYHhnjHSuL9ab/wDEabgquKjnViRSZC71fay+YsRtVWst5rL2J7cyJ9X3Z3dPQx05jvcvMt9l32b/AGmS0z7kdkR7lY0iPRD9D3h/0Xyvw76L5b0VyaP6By7a1xRbTScl+NsuW0Rwi2bLa+W+nDvXnTgyQeJeAAAAAAAAAAAAAAAAAAAAAAAAAAAAAAAAAAAAAAAAAAAAAAAAAAAAAAAAAAAAAAAABWX+KvxbJo/kq7da1dY8PyxrWM2BkrI1ZAmwYKGHW89UYqqrXzJBRpW5VTp1dd6r6qqrNfQm+jdcl+TWn7Jt7zX97b4VZ/VmI/ctMXtzdEW6a8ZJ6kw005fz7Z488TEaV9fgiNvnpHnnu0w5benN50ZherDAAAAAAAAAAAAHc67sWd1LO4nZtZy17BbBgr1fJ4fMYyxJVv4+/VkSWCzWniVHskY9P9yp1RUVFVDrzYcW4xWwZ6xbDaNJieMTE+SVR5RzfmfIeZ4Odclz5drzba5a5MWXHaa3x3rOtbVtHGJifm9k8FlXwr+IRqXPtLE8fclWcfqXM8UMVOFJXxUsDyFLG1jEua+5/tw0s/ZX1mxfXq53V9bvYrooYX6l6R3HKbW3eyicnLe3z2x+i3nrHkt71uPGdyPs4e1jyHxU22DpPrK+LYeItaxSNZimDfzERHfwTOkUz27b7byzrbD3q60xyWllsygAAAAAAAAAAjB8wfiQaNwlDlNE4mmxfIHLDfepW7Ucv2vT9HsN6slfmLVZ7WZvN139Wpj68iNhkRftMkas9mW9+nujd1zOa7rfxbDsO2I7L39yJ+dr9NPb9DE66xhV7QPthdM+G2PP0v0HbBzXruNaWtE9/abK0cJnLas6Zs1Z4Rgx20raJ9des19XeuVum67XyLtGZ3Td87f2XaNguSXstmMlIklm1O/oiNaxjY4KtWCNEjhghZHBBE1scbGMa1qTFtttg2eCu221IpgpGkRHZH7c+eZ4zPGeLUJ1H1Jz3q7ne46j6l3WXec73eSb5cuSdbWtPmiNK1rWNK0pSK0pWIpStaxER5c71DAAAAAAAAAAD3XGPHeyctcgalxvqNVbew7hmqmHoNVsjoayTOV9zJXFia98eOxNCOW1ZkRF9uvC96+jTy73eYeX7TJvNxOmHHWZn9iI9MzpEeeZhdHRfSXOOvOq9h0fyCnrObcw3NcNOEzFdeN8l9ImYx4qRbLktp8HHS1vI3V+Ip4zYXx033jaPUKz2ahsvG+Gxsdx8KQvv7Xo1apgNkuzpGrolu5Wm/H37Coqd1m5J6InRVtro/neXnG0zTuJ/pFM0zp5qXmbVj3InvVj0RDI/wBrnwY5b4Q9U8mp0/SY6f3vJ8OOLzGk33WyrXBuL204d/LScGfJMduTLfhpprHgXexIAAAAAAAAAAAB9RyPieyWJ745I3tkjkjcrHxvYqOY9j2qjmva5OqKnqiiYiY0nscq2tS0XpMxeJ1iY4TEx2TE+SYTp+E/xM6y1sVxX5LZlYbEKRUdb5cyEiLDYi9I62O3+XtRYJoU6MZl16tkb0W52ua+zJF3U3RVu9bf8lrwnjbFH6s4/rPqfJWNnPs3e2dhnDg6G8ZNx3ctdKbfmt54Wjsrj30/QzHZG67LRp8o0mLZrzgVrNe5Xgt1J4bVS1DFZq2q0rJ69mvOxssM8E0TnRzQzRuRzXNVWuaqKi9CMZiazNbRMWieMNluHNh3GGu429q3wXrFq2rMWrato1i1ZjWJiYmJiYnSY4w/Y+OwAAAAAAAAAeT3fe9N421y/t2+7Nh9T1vGs7rmXzd2GlVa9WudHWhWRySW71jsVsNeFr55n/VjY5yoh6Nttdzvc0bfaUtkzW7IrGs+76I88zwjyqD1L1R070dyfLz/AKp3u32HJ8MfDy5rxSsTx0rGvG17aaUx0i17zwrWZ4IHPLL4pewbpHktE8cvzpp+sStmp5Hki2xaO35qF3dFKms1UV0uqUJW9VZac785ua5rmpTe1UWU+QdDYdtNd1zju5M/bGOONK/up+jn0fO/uoavPHj23ua9R0zdL+EPr+X8ltE0ycwtHc3eaOyfk1e3a0mOMZZn5RMTExG3tExMO0sss8sk88kk000j5ZppXuklllkcr5JJJHqr3yPeqqqqqqqr1UkSIiI0jhENe973y3nJkmbZLTMzMzrMzPGZmZ4zMz2y+D64AAAAAAAAAAAAnA+Ep42unt5jyX2mi5sFP84anxfHYjVEntSMfT27aYO+NO6OrE5cXWkY5zXPkusciOjapGPX/OdK15LgnjOl8vudtK+/89MfufO2XewX4O2y59x4y87xT6rH6za8ti0dtpiabrc11jsrGu2x2rMxM23NbRE0rKdsi1s+AAAAAAAAAAAAAAAAAAAAAAAAAAAAAAAAAAAAAAAAAAAAAAAAAAAAAAAAAAAAAAAAAEaXxTOG38keOb91xlVbGwcPZdu0s9tvdPJquTSHFbbXj69EbHXi+y5CV3VOkWOd06qqIt6dC8x+R84+TXnTDuK9399HGn7NY9NmGvtv+HlusPCGepNlTv8ANentx8pjTjadtk0xbqseiserz2n4uCe2eCsiTY0ugAAAAAAAAAAAAfUcj4nslie+OSN7ZI5I3Kx8b2KjmPY9qo5r2uTqip6oomImNJ7HKtrUtF6TMXidYmOExMdkxPkmEqXjP8Unkziyvj9S5kpXeWdLqtirVs2tuOLkTCVGdrUamSuKlXboYmNXtjvvitOc71uIxrWJYnOuhtlvpnccumNvuZ4zXT7HafcjjT97rH0uvFnH4M+271n0Pixch8Q8eTn3TlIitc3eiN/hrGn+8v8AB3URHZXPNcszPHcd2IqnH4X8o+C+facMvGu/4jJ5V8CT2dUyEqYfcKHRPxzbOu5BYb8sdd6K109ds9VV9WSuaqKsYcy5HzTlNpje4rVx6/PxxpPuWjhx806T6GzHw58bfDHxU29cnR3Ndvm30171trkn1W7p5+9t8ml5is8Jvji+OfobzExM7AFJSsAAAAABqNzd5xeOXBEdursu9U9i2iqkjf1K0Z9bZtjSwxHr9lvtrWY8XgpurU+rkLVV3RyKiKioXByzpjnPNZi2HFNME/R31rX3Y1jW372JQH4le0x4QeF9cmDnPM8e753TWPkeymu43HejX4N+7aMWCfRnyY50mJiJ1QceSvxKeZ+cYr+s6asvEnHtpHQTYzX8lLLtWbrKr2uZndqiipWI6tqNej6lJleJWuWOV1hvqsn8l6M5byuYz7n+kbuPLaPg1n6WvHjHnnWfLGjWd4ye2P4i+JlMvJene9yDpO+tZx4Mkzuc1eMaZtzEUtFbR24sMY6zEzTJOWOKOQvFiAAAAAAAAAAAAABYG+FH4xP1fWr3kbuGOWPOblTnw3HNa1H0lx+o++iZXYkikb3RWNkuVkhrP6NclGFz2q6K2RL15zuM+aOT7efsWOdckx5b+Sv72J1n6afPVtc9hXwVtyTk2Xxe6gw93mfMcdsPL62jjj2ve+y7jSeMW3F6xXHPCfU0m0TNM7Y34l/DDuV/GjPZrGVPtGy8UW28gYxY41dPLhqNeWrt9JHNa5yQJgZ33XNRPryUI09Cj9Fcy+Qc6pivOmHcR6ufdnjSfqvg/vpS/wC2X4dW678Gd1zHZY+/znkWT5dj0j4U4aVmu7prx+D6ibZpjy2wUhVsJyaRAAAAAAAAAAAAAAG6HjV5183eNjq+GxOTZunHjJOs3H+1WLFjHVGOcrpXazkkWTIavM5XOd2Qd9N0j1fLWkf0VLb510tyznWuTJX1e8/jK9s/uo7Le/x8kTDIzwb9p3xK8HJpy7YZo5j0lFuOx3NrWx1iZ4/J8nHJtpnWZ0prhm0za+G9uKdXgv4jfjhzPFSx2S2NnFm42Ejjk1vf7FfG0ZrT1RixYjbVVmv5BkkzkZCyaSpbmVU6V0X0Iu5p0dznlszelPX7ePosfGdPTT56PTprEeds78Mfa+8H/EWmPabzeRyPqG+kTt99auOk2nhpi3XDBkiZ0ikXtiy3meGJvjDNDZhisV5Yp688Uc0E8MjZYZoZWo+KWKViuZJFIxyK1yKqKi9ULVmJrOk8JhlFjyY82OuXFatsVqxNbRMTExMaxMTHCYmOMTHCYfqfHMAAAAHit65I0DjHDP2DkPcdc0zDtSTtvbFlqeLjsPjRiugpMsysmv2vxjUSGBskrlciI1VVEPTtdnu99k9Ts8d8mTzViZ+bp2R6Z4Lb6n6w6V6K5fPNereY7Pl3L410vuMtMcWmNNa0i0xN7cY0rSLWmZiIiZmEUfPHxctG19l7CcBavPvWXb7kMO5bZBcwuoQPRXtS1SwaOq7JnI/qp0bMuLT63Xucidq35yrw/wB1mmMvNrxix/Eppa/uTbjWvvd5gt4o+3x0zyquXlvhXsrcz5hGsRu91W+Ha1nj8KmH4O4zR6L/ACbt11nTSYT+XudOVudtgXZOUtyy20XI5LDsdSsS+xhMHFYc10lXBYOskWMxMDkY1HezG18vYiyOe5O4kvl/K9hyvD6nY460r5Z+it6bWnjPvzw8jW71/wCJvXPifzb8Mdb8xz73cRNvV0tPdw4Yt21wYa6Y8VeERPcrE20ibzaeLEpUFhAAAAAAAAAAAAAZ08cOCtk8i+W9Z4y15s0EORsJd2bNxw+9FrWqUpInZvOTo5WxK+vBIkdeN7mpPblii6osiKUvnPNMPJ+X33ubSZiNK1+Nefna/sz5oiZ8iTvCDww5x4u9e7LovlMWrjzX7+4zRGsbfa0mPXZrdka1rPdx1mYi+W2PHrE2W/8AStN17j3Udc0fU6EeL1vVcRRwmGoxr3ezSoQthjWWRUR09mbtV80rur5ZXOe5Vc5VMetzuc283F91uJ72bJabTPpn9jzR5I4P0B9N9Pcp6S5Bs+meRYowcn2O3phw0jyUpERGs9trT89a08bWmbTrMy9QdCtgAAAAAAAAAAAAAAAAAAAAAAAAAAAAAAAAAAAAAAAAAAAAAAAAAAAAAAAAAAAAAAAADrsxiMbsGJymBzNOHI4fN469iMtj7LVdXv43JVpad6nYaiorobVWZ7Hp1Tq1ynPHkvhyVy45muStomJjyTE6xPvS8fMNhs+a7DPyvmOOubl+5w3xZcduNb48lZpelo81qzMT6JU3PIXh/KcDcyb5xbk0sSM1rNTMwt+yxrX5fWryNv65l+rPxLn3sPZhdKjFVsc/fGv1mKiZF8o5jj5ry7Fvqaa3rxjzWjhaPemJ088aT5X55fFnw/3vhd4h806I3vfmuz3MxhvaNJy7e/w9vl4cNb4rUm2nCt+9TtrMRhgqSOQAAAAAAAAAAAAAH6QzTVporFeWSCxBJHNBPDI6KaGaJyPililYrXxyRvaitcioqKnVD5MRMaTxiXPHkyYclcuK01y1mJraJmJiYnWJiY4xMTxiY4xLbfjnzv8AKzjGGvSwfL2fy+Kr9rW4rdY6W7VvZZ07KsVrZa2Ry1KsxrURrK1mFGt9G9E9CgbzpbkO9mbZdvSuSfLTWk+7pWYiZ92JT30h7UHjp0Vjpt+Wc/3W42NNPsW8im8rpHZWLbiuTLSsdkRjyU0jhGkNvNZ+MRzbRbGzbOM+M9iaxyd0uIXZdZtSx9WdfcfPl9iqpKvR31mQtb6p9X0Xut7N4d8stx2+fPT3e7aP1qz+qn7k36QfxJ20RXnvJuTbusT24vlG3tMcO2bZdxXXt4xSI4x8HhOuUYPjQzthjbZ8cIpp0b0lkg5cfXhe78KxwScZ2nxt/wBiyPX/AGnhnw3jX4O84f8Ayv8AiQvfF+kYyxjiM3R9bZdOM15rNYmfRE8utMfVT7r87fxoLj4VbR8c61efub0lt8sS3YUb/wASLBDxxQerlT6F9xOn9Cn2vhvWJ+FvJmPRi0//AFJcM/6RfcWx6bbpClMuvbbmk3jT3I5fSf8AS96WF9s+L15DZeKSvq+ocZagx6elz825zYMrEvtIzrFNkc3FiuiSKr+j6T/oan0I7uqW38PuUY51z5M+SfNrWsfqV1/0kc899v7xa5hScXJOX8l5fWfo/V5s+WOGnCcmaMXbrPHDPkjyT3tLuTvLbyP5gis1N95c2zI4q2issYDGW4dZ12eLqvbFZwOswYjFXWMReiLPFI78Kqq+pcmy5Bybl0xbabfHXJH0Ux3re9a2sx70sc+tPHrxg8QKXwdUc/3+bY5OFsGO0bbb2jzWwbeuLFeI+nrafPMzxa6FYRCAAAAAAAAAAAAAA3F8JvF7I+TvLtLD3YLUPHOpvp5zkbLw90aMxayyLR16rYRW+3ldonrPgiVF74oGTzojvZ7Vt3qbnlOScvnJWYneZNa449PltPorrrPnnSPKyF9m7wT3njT19j5duK3r0hsJpm5hljhpi1nuYK28mXc2rNK6ca0jJliJ9XpNsnHY6hh8fQxOKp1sdi8XSq47G4+lDHXp0aFKBlanTqV4mtigrVa8TWRsaiNa1qIidEIDve+S85MkzN7TMzM9szPGZn0y3vbPZ7Xl+0xbDY46Ydlgx1x48dIitKUpWK0pWscK1rWIisRwiIiIftaq1r1axSuQRWqluCararTxtlgsVrEbop4JonorJIponq1zVRUVF6KfK2mtotWdLROsS7M+DDucN9tuK1vt8lZrato1rato0tWYnhMTEzExPbCn15ZcG3PHnnbduO3wyswLLzs9pNqT3Fbe0vNyzWcG9ksqq+xLjmtkoWJF9HW6cvT06GQ3IOaV5vyvFvNfsundvHmvXhb5vz0eiYfn48d/DLceEvifzLpG1bRyuMvr9nadfh7PNM2wzEzxtOOO9gvby5cV9ODXArKHwAAAAAAAAAAAAAADNfGXkdzrw4sTeNeU9w1elC9ZGYWDKPv60sjlRVll1fLtyGuzyr0/rPqud09OvqpTN7yblfMf+dwY72n6LTS31UaW/VSR0X4weJ/h5Na9Hc85hsttWdYw1yTfb6+edtl9Zt7T6ZxzLenSfi6eRWBbBX3DW+Ot8rxt6TW5sVkdazlhyJ07lt4XItwkXVfVUbjf93Qtfc+H/J8us7e+bFPm1i1fmWjvf6TJ3pv2+fF3lcVw9QbPlHNMMRxtOLJt81v32HJ6mPTpt/c0bC4n4zlB0bW53x+uQzNWNHy4nkiG1HIiqvuyNr3NLqOgVqdO1iyyd34XIUjJ4cX1+xbuJj049P1rz+slnYfpFdrNIjmfSmSuThrOLmEWifPPdvs6zGnkjvW188PR3PjK6EyJq4/hHb7M3uIjo7m14ajEkXa5XPbNBjMi90iPRqI3sRFRVXuTp0Xpr4c7qZ+HuscR6KTP7MKxuP0iHS1aRO06a5hfJrxi+6w0jTjx1rjyTrrpw7seWdeGk4x2P4zG1WGvZqPBOv4l6L0jn2Pd8jsLXIjpfrvqYzX9ZVivarPqJM7tVHfWd1Tt92Hw4wR/zG6vaPpaRX9WbW/WWVzj9IlzzLWa8g6X2mC3ktuN5kzx5eM1x4NtprGnDvzppPGdY01P5A+Jn5a73HPWq7niNAoWeqSU+P8AXqmLka1enRsGZzEmf2Op2qno6K6xy/hVUK9tOiuQbWYtbHbLePLktM/qR3az79UE9V+2d489UUthwcx2/KtrftpscFcU/vc2Wc+4r7tc0T55aPbHtOz7hk5c1t2x57aczOiJPltjy+QzeTmRFVUSW/k7Fq1IiKqr6vX6S58ODBt6eq29KY8ceSsRWPmRpDGjm/POddQb23Muf7zdb7mNu3LuMuTNkn3b5LWtPvy6I7VLAAAAAAAAAAAAAAcmjRuZO7TxuOq2L2QyFqvRo0akMli3cuW5WQVatWvE18s9ixPI1jGNRXOcqIidVONrVpWb3mIpEazM9kRHbMu/bbbcb3c49ntKXy7vLetKUpE2te9pita1rGs2taZiIiI1mZiIWqfA7xPqeM3FrLGfqwS8r73FTym8XvqSvw8LY1kxmm0pmOfGlTCNmc6w9iqli7JI7udGyBGQT1Vz63Ot9pimfkGLWKR5/PefTbyeaunlmdd5Psu+BODwY6JjLzWlbddc0rTJvb8JnFERrj2lJjWO7h1mckx/tM1rTralcUV3pLXZOAAAAAAAAAAAAAAAAAAAAAAAAAAAAAAAAAAAAAAAAAAAAAAAAAAAAAAAAAAAAAAAAAAAAiJ+K543O3nj/G89avjnT7PxpWTG7gytGr58hx9YsyzNvOYxr5JXanlrbpndERGU7VmV69sKdJB6D5z8l3duVZ50wZ51pr5MmnZ+/iNPdisR2sBPbp8HrdTdKYfFLkmGbc65NT1e7isa2ybC1pnv6RrM/JctpvPkjDlzXtPdxwrtEvtRwAAAAAAAAAAAAAAAAAAAAAAAAAAAAAAAAAAAB7bjnjzbeV9213j3RsVLmdo2jIR47GUo+rY2q5HSWLt2forKeNx1WN89md/1IYI3vd6NU8283m32G2vu91bu4KRrM/sR55meER5Z4Ll6Q6S59111JtOk+mcFtxzve5ox46R2ee17z2Ux46xN8l54UpW1p4Qtx+Mvj3q3jTxTheOtd9u5fb/8pt+xrCkVnZ9ptxRNyOUkb6uhqRNiZXqQ9V9mpDG1yuf3yPx/53zfPzrf23mbhTspXyVrHZHu+WZ8szPk0hvw8GPCbkfg10LtukeUaZN1H2XdbjTS253NoiMmSY8lY0imKn0GKlImbW71rbBFISuARk/E78a3cwcPt5M1jH/ad+4hgu5V8ddirbzeiSok+y4xrWq37RPhvabkq6O7layGzHE1ZJ+i3t0Rzr8Hcx+RZ502m4mI9Fb/AEM+/wDOz7tZnhDC/wBtPwct4geH8dZ8lw9/qnp+t8sxWPhZtlPwtxj+mth0jcU11mIpmpSJtl0ms0TU0xgAAAAAAAAAAAAAAAAAAAAAAAAAAAAAAAAAAAAABO98Mjwrdj48T5LcpYpW3LMKWuJdbyNdzXVKs7EWPkC7BKidZrkD1TEtc3o2Fy206q+s9kWdbdS9+bcl2NvgxOmW0eWf4uPc+j9PwfjRO0H2LvZxna0weMvW+DTcXr3uV7fJX52to4b68T5bxP8ARYmNIpM541m2G1ZvSMmysAAAAAAAAAAAAAAAAAAAAAAAAAAAAAAAAAAAAAAAAAAAAAAAAAAAAAAAAAAAAAAAAAAAADh5DH0ctQvYrJ1K+QxuTp2cfkKFuJk9S7RuQvrW6lqCRHRzV7NeRzHscitc1yovocqXtjvGSkzF6zExMdsTHZMe48+72m23+1y7He46Zdnmx2x5KXiLVvS8TW1LVnhNbVmYmJ4TEzEqlvmr4y5Hxk5jyWvVoZ5OP9odb2HjfKSK+VJcFJY6WMFZsO6o/LaxYlStP1XvkhWGwqNSdrUn3prndOd8urmtMfK6aVyR9N8aPRbtj06x5Ghr2j/Bjd+C/iFm5Thra3Sm+m2fl+WdZ1wzb4WG1vLl21pjHfjrak48sxEZYiNQi4UAAAAAAAAAAAAAAAAAAAAAAAAAAAAAAAAAAAcmlSuZG5Ux+PqWb9+/ZgpUaNKCW1cuXLUrYK1SpWga+axZsTPayONjVc9yoiIqqcbWrSs3vMRSI1mZ4RER2zM+Z3bfb7jebjHtNpjvl3WW9aUpSs2ve9pita1rWJm1rTMRWsRMzMxERqs/+AXhjV8btOduW7Uq8/M+50I25l6+xYTS8FK6KzFqGPsxPmifakmiZLkp4ndk07GRMV0cDZJIR6s6ktznc/JttMxy3HPD6e3x5jzeSsT2RrPbOkbrfZV9nXD4PdPT1F1JjpbxF5jiiM08LfI8E6WjaY7RMxNpmItuL1nu3vFaV1rii95Eyz2XIAA+XNa9rmPa17HtVr2ORHNc1ydHNc1eqOa5F6Ki/SOzjHa+WrW1ZraImsxpMT2TCrP8QjxTm8duVptg1nHe1xPyPbuZXU3VmL9l1zLKvv5nTZvVVhbRkk9+j1RGvoyNY1XvgmVJz6R59HONhGHPP9PwxEX17bR5L+/2W+m48ImGkH2sfAzJ4R9dW5ryXF3ehOcZL5dr3Y+Dt8vz2baT5u5M9/DrwnDaKxNrYskxH8XaxSAAAAAAAAAAAAAAAAAAAAAAAAAAAAAAAAAAAAJVvh5eDE3M+Xo8ycq4qSPiXA3vcwGDvQSx/wDUfM0pFT1Y5Ge7qGKtx9LL/Vlydi1k7mNsdtidX9URy3HPLthb/wC4Xj4Vo/3cT/DmOzzR8LzM5vZK9mTJ4i8wxeIfXOCY6D2uXXBhvEx+EM1J806a7TFaPsluMZrx6mNaxl7tkKOOOKNkUTGRxRsbHHHG1GRxxsRGsYxjURrGManRET0RCGpmZnWe1uErWtKxSkRFIjSIjhERHZER5Ih9hyAAAAAAAAAAAAAAAAAAAAAAAAAAAAAAAAAAAAAAAAAAAAAAAAAAAAAAAAAAAAAAAAAAAAAAa4eU/jlrPk5xRltAzKw4/OV1dl9I2Z0Svm1vaK8MjKll/YiyS4q8x7q16FEX3K0iq3pMyJ7KzyLnGbkm/ru8es4p4Xr8as9se7HbWfP6JmJh/wAcPCDk3jT0Jn6V5j3cXM6fZdnuNNZ2+5rExS06cZxXiZx5qfRY7TNdMlcdq1It/wBD2rjHcth0LdcVNhdn1jIzYzLY+bo7smi6Ojnryt/F2qNyB7Jq8zFWOaGRr2qrXIpP+03WDe7am721otgvXWJ/9dkx2THkng0J9VdL886K6h3fS3UmC2253ss048uOfJMcYtWey1L1mL0vGtb0tW1ZmJh5A9C3wAAAAAAAAAAAAAAAAAAAAAAAAAAAAAAA+o43yvZFEx8kkj2xxxxtV75HvVGsYxjUVznucvRET1VRMxEaz2OVa2vaKUiZvM6REcZmZ7IiPLMrEHw7/Ax/F0GO5x5lw7W8j3IG2dH1O8xVfodC1A9jsvmKz07W7ffrzdGQuRVxsKqjull7m14g6v6q+XTPK+W2/ocTpe8fRzHkifiR5/op+l7dtvsk+y5bonHh8TPETbxHWGSsW2W1vHHZUtWY9blrPD5Ves6VpP8Ay9Z+F9mtMYZeSPmfoAAAAMS84cM6fz7xpsfGW7VvcxecrK6lkYo2OyGvZuu17sTsOJe/0jyGLsO7kTqjJo1fDIjopHtdUOV8y3HKd7Te7afh1njHktXy1n0T+pOkxxiFheJfh30/4qdG7zovqSmuy3NPgZIiJyYM1dfVZ8Uz2ZMdp1jyXrNsd9aXtWajHN/DG6cBckZ/jTeqTq+Vw83u0b8ccjcdsODsPlTF7Dh5np0sY3JRxL0VFV0UrJIZO2WKRjcgOWcy23NtnTe7Wdcdu2PLW3lrPpj9WNJjhMNBviV4ddR+FfWG66N6nxTTfbe2tLxE+rz4bTPq8+KZ+ex5IidPLW0Xx30yUvWMSlQWEAAAAAAAAAAAAAAAAAAAAAAAAAAAAAAAAABJR4KeB+b8hcxT5D5FpX8Hwrh7jZEV7JqV/kW7Vl+vh8HI5GSRYCKVisv5Bn9Dq9d3ve5JWszqnqrFyjHO02cxbmVo92McT5bfTfFr788NItmP7MPsvcy8WeYY+rerseXbeHG3ya8Yml+YXrPHFhnhMYImNM+ePTixT6zv3w2ZcZjMdhcdQxGIoU8XisXTrY/G43H1oadDH0KcLK9SlSqV2RwVqtaCNrI42NRrGoiIiIhCl73yXnJkmbZLTMzMzrMzPbMz5Zluc2Wy2nLtpi5fy/FjwbHBjrjx48dYpTHSkRWtKVrEVrWtYiK1iIiIiIiHOOL0gAAAAAAAAAAAAAAAAAAAAAAAAAAAAAAAAAAAAAAAAAAAAAAAAAAAAAAAAAAAAAAAAAAAAAAACO7z08KKPkrqzdx0mtSoc0anRfHiJ5Hw0626YaJXTu1XMWntRkduN7nOxtmRzY4ZnujlVsUqyRXf0r1Lbkuf5PuZmeW5J4+WaT8aI83xojtjjHGNJxI9qT2b9t4yckjqHpumPF4jbDFMYrTMUrvMMa2+TZbTwi0TrO3yWmK0vM0vMY7zfHWEyuLyWDyeRwuYo2sZlsTdtY3J429C+vcoZCjO+tcp2q8qNkhsVrEbmPa5EVrkVFJux3plpGTHMWx2iJiY7JieMTHutKu+2O85Zvc3LuYYr4d/t8tseTHeJremSlprelqzxi1bRMTE8YmHAObyAAAAAAAAAAAAAAAAAAAAAAAAAAAAAH6wQT2p4atWGWzZsyxwV68Eb5p555npHDDDDGjpJZZZHI1rWoquVeiep8mYrE2tOlYdmLFlz5a4cNbXzXtFa1rEza1pnSIiI4zMzwiI4zPCFg74fvw+28eNxHN/OWGa/fntiyGj6Lk4Ec3R2uRJK2e2CrK1UduLkVHV6z0/+K9HvT7Z0SrEnVvVvyvvcs5Xb+idl7x9H561n4nnn6LyfB+e2w+yl7KFekq7fxK8TdtE9VTEZNnssleGyjtrnz1n/wCr8uPHMf0b560fKNIwTEEdtg4AAAAAADUDzF8StX8qOPnY2RamF5G1uK1a0DbpWP7aduVGPsYPMrCx89jXcwsLWyo1r5K0iNnja5WujluHp3n+fkW778a22d9IyU88fGj6aPJ544T54x/9oTwG5J449KTs7er23V+zra2x3UxOlLTpNsObSJm23y6RFtIm2O3dy0iZrNL1VOQOP9v4u2/OaHvmDua7tOu3HU8njLjURzHIiPhs1pmK6C7QuwObLXsROfDPC9r2Oc1yKTttN3t99t67ra2i+C8axMf+uEx2TE8YnhLRr1X0p1B0R1Buel+qNtk2nO9pkmmTHeOzyxasxrW9L1mLY8lZml6TFqzMTEvHHpW6AAAAAAAAAAAAAAAAAAAAAAAAAAAAAAAEr3gz8O3LcwyYnlbmqhdwfFCLFfwOsyOsY/OchtRIZ6tl69jJsZpllj+q2GuZZutTpB2RuSwlhdUdX4+XRbYctmLb/stbtrj88em8ebsjy6zwZ1+zL7I+/wDEG+DrrxHxZdr0Lwvg2897Hm3/AGWraeETj2don/aRMZM0cMXdraMqxfjMZjsLjqGIxFCni8Vi6dbH43G4+tDToY+hThZXqUqVSuyOCtVrQRtZHGxqNY1EREREIeve+S85MkzbJaZmZmdZmZ7ZmfLMtvGy2W05dtMXL+X4seDY4MdcePHjrFKY6UiK1pStYita1rERWsREREREQ5xxekAAAAAAAAAAAAAAAAAAAAAAAAAAAAAAAAAAAAAAAAAAAAAAAAAAAAAAAAAAAAAAAAAAAAAAAAAAEZnnT4C4fyDp3uS+NYqWC5nx1FVsVukNTFckV6cTW18dl5nOjho7HDBH7VPIO+q9qNgsr7SRzVr16X6rycotGy3ut+WzPCe2cevljz18s19+vHWLYY+057K/L/Fjb5Osuja49r4i4cXwq8K4uYVpHwceWeEU3EVju4s88Jju4s09yKZMNa7P6/nNVzWU1vZcTkMDn8Ldnx2Xw+VqTUcjjr1Z6snq26lhjJoZY3J6oqfR6p6KTPiy4s+KubDaL4rRrExOsTE+WJacea8q5nyPmWfk/OcGXa8122SceXFlrNMmO9Z0mt62iJiY80w6g7FPAAAAAAAAAAAAAAAAAAAAAAAAAAA9BquqbLvOw4rU9PweS2PZM5bZRxOGxNWS5eu2ZOq9sUMSKqRxsar5JHdscUbXPe5rWqqdOfPh2uG243Fq0w1jWZmdIiP/AF81VuR8i5z1NzbByHp/bZt5zjc5Ipiw4qze97T5IiPJEaza06VrWJtaYrEzFjvwk+Hjr/BEeN5K5Xhx208wqxlrG0USK9r3HjnpG+NmMc5HxZTaYXIvuZFPxcDl7KqfVWxNDvU3V+bms22Wwm2Pl3ZM9lsnu+av0vl7beaNv/s2eyVynwvrh6y66rh33iDpFsdOF8Gw10mIx9sZNzH0Wf52k/Bw9k5ckoBY7NcAAAAAAAAAaWeY3hppnlNqbp42Udc5XwNKRmn7t9n6LMyNZZmaztDoI3Wb+t2p5HKxej5sfNI6aFFR00M9y9O9R7nkW40nW+wvPw6fwq+SLR8y0cJ8kxjj7Qvs79O+N/IZy0jFs+u9rjmNpvO72xGsxt9zNY719va0zpPG2C9pyY4mJyY8tXPkvjLd+INyzGg8h4C5ruzYSZY7NK01FisQOc5K2RxttndXyWKvMb3wWIXPilb6ovoqJOOy3u15htq7vZ3i+C0cJj9aY8kx5YnjDSV1l0X1L4f9Rbjpbq3a5NnzrbW0tS3Zav0OTHaPg5MV4jWmSkzW0dk9rwZ6lrAAAAAAAAAAAAAAAAAAAAAAAAAAAAOwxOJymeydDC4PG3sxmMrbgoYzFYypPfyOQvWpGxVqdKlVjlsWrM8rkaxjGuc5V6IhwyZMeKk5ctorjrGszM6RER2zMz2Q9ew2G+5pvcXLeW4cu45hnyVpjxY62vkyXtOlaUpWJta1p4RERMzPYnn8L/hj0taXF8n+SOOp5bPokN7X+K5Viu4jCP6pJDd3VzFkq5jKtVEczHsc+nAn/PdM9yxQxX1J1tbN3tjya01xdlsvZNvRTyxH03bPk0jjO0f2c/Yu23Jpwda+MWHHn5rwvg5ZOl8WGe2L7yY1rly9kxgiZxU/3s5LT3Mc0aIjURrURGoiIiInRERPRERE9EREI2bGYiIjSOEQ/ofQAAAAAAAAAAAAAAAAAAAAAAAAAAAAAAAAAAAAAAAAAAAAAAAAAAAAAAAAAAAAAAAAAAAAAAAAAAAAGjvl/wCD3H/lHiH5iBa2n8tY2okOD3ivWV0WShga72cHt9WDo7K4lfoinRFt0l6LE50fuQS3P091Pu+R5PVzrk5fafhU17PpqT5J88dlvLx0mMaPaA9mjpTxt2E8wxdzl/XmHHph3ta8MkRHDDuqx/tcXkrf/a4Z40mad/Fesxy/wvyRwTuFzR+Tdbt6/ma/dLUmd+PxWbx/erIstgcpEi1cpjZ+no+Ne6N/WOVscrXsbNfL+ZbPmm3jdbK8Xxz2+es+a0dsT/8AGNY4tMXiB4c9YeGHUGTprrPZ5NpzGnGsz8LFmx66RlwZI+Dlx289Z1rOtLxW9bVjFp7ljgAAAAAAAAAAAAAAAAAAAAAAABsn45+KfLvk1sLcZoWFdW12nZbDsW+Zlk9XVNfZ2skkjlutjc7JZZYpGrHRqpLYd3tc5I4u6VlF5xz7l/JMPf3dtc0x8GkcbW97yR9NOke7PBMnhD4F9feM/No2XS22mnKMd9NxvcsTXa4I4TMTfT7Jl0mO7hxxbJOsTaK4+9etlvxi8PuKfF3Bezq1L8/btfrNh2LkPMVokzuV69r5KmPiR88ev4T3Gorald693a1ZpJntR5C/O+ot/wA8y6557m2ifg44n4MemfjW9M+9ERwblPBX2fehfBPlnq+R4/lXUmWmm43+Wseuy+Wa0jWYwYdeMYqTOukTkvktEWbWlBToAAAAAAAAAAADW3yU8WuMPJ/UvzBvFD7FnsdHM7Vd4xkMKbHrNqROrmwTPREv4ey/p9poTKsE3RHJ7czI5Y6zyXnu+5HuPW7WdcVvnqT87aP2JjyWjjHpjWJh3xj8EOivGvkP4K6lxer5phiZ229xxHyjbWn4sz8/itP+0wXnuX4THdyVpkrWH8kPFjlXxj2hcLveKWzgL9iZmrbzi45ZdZ2avH3PakFhUV2Oy0cSdZ6FjssRKiuakkKxzPm7k3PdhzvB63a20yxHwqT89X9uPNaOE+idYjSv4weB/XPgtzv8G9UYO/yrLeY229xRM7fcVjj8G3+7yxHz+DJpkr2x38c1yW1uKyh0AAAAAAAAAAAAAAAAAAAAAAAAAGyfjv4ocxeS+bSjx/gHQa9Vstgzu95tJqOpYP0a+SOW+kUkmSySRvaradNk9n67XOayPrI2i8359y7kuLvbu+uaY+DSvG9ve8kemdI9/gmPwk8CvELxl5l8m6U2s15TS/dzb3NrTa4fLMTk0mcmTSY0w4ovk4xNq1preLIPi54S8SeL9CO/hqy7byPZq+xluRc7VhTJdskSx2aWt0EfPBq+Im7nd0cL5LMzXI2eeZGsRsOc86m5hzy/cyT6vZxPDHWeHom0/RT7vCPJEcW4PwR9mzoLwU2sbrl1Pl/WF6d3Lv8ANWPWcY0tTb01tXbYp1nWtZtkvE6ZcuSK1iu45bjIYAAAAAAAAAAAAAAAAAAAAAAAAAAAAAAAAAAAAAAAAAAAAAAAAAAAAAAAAAAAAAAAAAAAAAAAAAAAAAAAAMUcw8JcZ886lY0zk/WKew4p/uy0LL0+z5jA35IliblcBloulvFZCJFT6zHdkrU7JWyRq5jvfy7me95VuI3OxvNMnljyWjzWjsmP1u2NJ4rF8QfDbozxR5Dfp3rXZY93sZ1mlp+DlwXmNPW4MsfDxZI89Z0tHwb1vSZrNdnyn+HBytwQ7J7ZorLvKHFtf3rT8pjqndtms0mJJK79Z8HVa51ipUgZ9fI02ur9Gq+aOsitasv8i6y2HNe7t91pg308NJn4Np+ltPln4s8fJE2ajvHD2PuufC+c3PumIyc76IpracmOv9K21I1n+k4a/PVrWPhZ8UTj0ibZKYYmIRwl5MPgAAAAAAAAAAAAAAAAAAAAHo9T0/at7z1DV9L17MbTsWUl9qhhsFj7OSyFl3/G5tarHI9sMLfrSSO6RxsRXPVGoqnTuNxg2uKc+5vXHhr2zaYiI9+f/UqxyHp/nnVHNMXJOnNpuN9zfPbSmHBjtkyW88xWsTOkRxtadK1jWbTERMppvGL4TkrnY7cPJm8kbESK1BxXruQR0jlVvd7O37Pj5VaxGKv16uMkd3L0X7Wid0axtzvr6OO35JHHs9baP9Ss/r2j975WxvwW9hG82w9QeM+XSvC1eWbfJxn0brc0nSNPLj21p14T8ojjSZtda1jXNMweO1jUsFida13EQJWxmEwlCtjcZRg7nPVlanUjigj75Hue9UTq97lc5VcqqsZ58+bc5bZ9xa181p1m1pmZn3Zlsm5NyXk/TvLMPJeQ7XBs+Ubevdx4cNK48dI7dK0rEVjWZmZ4azMzM6zMy706lTAAAAAAAAAAAAAAeW3PSdR5E1vJ6hvOvYradZzEKwZHDZirHbqTt+mORrXp317Vd/R8M0TmTQyIj43NciKnfttzuNnmruNre2PPWeExOk//AA88TwnyqJ1H03yDq7k+bp/qbaYN9ybcV7uTFlrFqW808eNbVnjW9Zi9LRFq2i0RKBTyo+FdtunSZLdPHR13dtVT3rlrjy5Kk264SP8A5j4tesORjNuoQt7uyFezJtajGNbckVzyVeRddbfcxXbc40xZ+yMkfOW/dfEn0/O9s/Bjg1a+OPsO8+6evm6j8Ipycy5HxvbYXnXeYY7ZjBbhG6pHHu0nu7iIitYjcXmbIgb1G7jLlrHZKnax+Qo2Jql6jery1LlO3XkdFYq2qs7I569iCVitex7Uc1yKioikhVtW9YvSYmkxrExxiY88S1/7nbbnZbi+03mO+Ld4rzS9L1mt6WrOlq2raImtqzExMTETE8Jhxjk6AAAAAAAAAAAAAAAAAAAAAGQON+KeR+X9gi1bjPTc7uWbk9t0lXDU3SwUYZHKxlvLZGVYsbhqCvTtWxbmhgRfRXop5N7v9ny/D6/e5K48Xnme30RHbM+iImV2dH9C9YeIHNq8k6M5duuY8ynTWuGmsUiZ0i2XJOmPDTXh6zLelIntsmy8bPhMYTDPx21+SGYj2PIMSOzFxrrVqaDAVpf6zYtl2OF0N7MqzuTvr0fs0KSM9Z7ESq1Y05119lya7fk1e5Ts9ZaPhfva9ke7bWfREtkfg57B3LeXWw898YNxG83UaWjl23tNcFZ8243EaXzaeXHh9XSLRxy5aTMTMlgcBg9Ww+P17WsPjMBgcTXbUxmGw1GtjcZj6zVVzYKdGnHDWrxdzlXo1qIrlVfpVSOcuXLnyTmzWtfLadZmZmZmfTM8Ww7lfKuWck5fi5Tybb4dpyvBTu48OGlcePHWPoaUpEVrHl0iO2Zntdudb3gAAAAAAAAAAAAAAAAAAAAAAAAAAAAAAAAAAAAAAAAAAAAAAAAAAAAAAAAAAAAAAAAAAAAAAAAAAAAAAAAAAAI+vJH4cnB3PUuQ2PCV14q5EuPlszbNqtGB+GzF2ROrptl1P3KmPvSyyK58lirJRuTSuV8ssv0LdvJuseacqiMOWfX7OOHdtPGI+lvxmPcnvREdkQxQ8YfZB8M/FK+XnHLafgPq7JM2ncbalZw5bz5dxtda47zM62tfFbDltae9fJfsQU8/eDfkF49yW72xapJtGmQLI9m+aUy1nNfjrRor1mzMTK8eV1tWR9O916vDB3qrY5ZencSlynqflPN4imHJ3NzP0F9K219Hkt+9mZ88Q1h+KnszeK/hPfJuub7G296dprMb3ZxbNgiscdcsRWMu30jtnNSlNeFL301aflwsfgAAAAAAAAAAAAAAAB7rQOMOQ+VMyzX+OdL2Pc8u5Wd9TX8VayCVI5HIxtjI2Yo1qYymjl+tPYkihb/xOQ8u732z2GP128yUx4/PaYjX3PLM+iNZXR0r0V1b1xzGOU9Icu3nMeYTprXBitfuxM6d7JaI7uOnnvktWkeWYSzcEfCI23LvpZvyC22DU8d3RzS6PpdipmNjmZ0a51bJ7M5tjAYiRr+qO+yMyaPb/VkYvqlg818QdvjicXKMc5L/AB76xX3Yr89Pv933JZ4eF/sCc+39sfMvFff12G01iZ2eztXLuJjy1ybie9gxTE8J9VXcxMdl6zxiaHiTgribgvCJgeLdIw2q1ZI42XrtWF1jOZd0f9WXNZ66+xmMrIjuqtSaZ7Y+vRiNb6Eb8w5pv+aZfW77LbJbyRPzse5WOEe9Huti/QXhh0H4Y8t/BfRHLdvscMxEXvWO9my6eXNnvNsuWfLHfvMV7KxEcGWinr9AAAAAAAAAAAAAAAAAABqt5CeG3BnklXksbvrSYzbkhSKnv+r/AGfE7ZAjGdkEd239nmq56nAiIjIb8Nhsbevte2qq4rvKOo+acmnTbX7231447cae9HbWfTWY18uqDvFn2ePDLxixTm6l2fqef93Sm+23dxbqukaVi9u7Nc9I7Ipnpkisa9zuTOqDHn/4YvPfEj7mY0St/wBZNMi92ZlvVqckW30a7Ec9EyemrLZuWZEanRHY6S93dOrmx9UaShynrblXMIjHup+TbnzWn4E+5fhEfvu777WR4q+xb4pdBWycw6Yp+MXTtdZi+2pMbqlY4/ZNpra9p9O3tm17ZimuiOK1Vs0rM9O7XnqW6sslezVtQyV7NeeJyslhnglayWGWN6KjmuRFRU6KXlW1bRFqzE1nsmGIGfBm22a233NLY9xS01tW0TW1bROkxas6TExPCYmNYl+B9dQAAAAAAAAAAAAAAAAz3xB4wc787TRf9NON9gzeLkldE/ZrNduG1KB0b2tnbJs2XdSw8k8Hd1dBFLJY6f1Y1X0KVzDnfKuVx/Tc1K3+LHG/1Maz78xp6Up+H/gp4oeJ+Sv4m8n3e52U20nc2r6na10nS2u4yzTFM18tK2tk81ZS9cG/CE1nEuq5nyA3STarbHMkdpeiy3MVr3ojVdDktntQ1c/koZOqorasGNexU6pK5F6JHvNPELPk1x8pxerr8e+k296sa1j35t7jP7wy9gHk2xmnMfFbmM77PExPyPZTfFg9zJubRXPkieyYxU28xprGS2qXPROO9F4w1+tqvHup4LT9fqdHR4zA4+ChBJN2tY+3bdE1Jr9+ZGp7lid0k8q+r3uX1I/3W83W+zTn3eS2TNPltOvvR5o80Rwhnz0v0j0x0VymnI+k9hteX8px9mPBjrSJnTSbXmI1vedPhZLza9p42tMvZnmXEAAAAAAAAAAAAAAAAAAAAAAAAAAAAAAAAAAAAAAAAAAAAAAAAAAAAAAAAAAAAAAAAAAAAAAAAAAAAAAAAAAAAAAAH8VEcitciK1UVFRU6oqL6KiovoqKgfJiJjSeMS0t5o8APGbmt1vI5LSI9K2i26WV+18dvg1nIS2ZlV8ti/jI61jW8tPPN0dJLZpSWHL16SNVyqty8t6s53yzSlMvrcEfQ5PhRp6J170eiItp6GOXiN7Kngx4kWybvecsjlvO8kzM7nYTXbZJtPGbXxxW23y2meNrZMNsk8fhxrMoruVvhC8va8+3e4l3XWORMZGiyV8Pm1fpu1P69FbWhWw69rNt7PVFllvUkd0RUYnXol9bDxB5fm0rzDFfDfz1+HX3fJaPcitvdYPddewD1/ym2TddB8y2XN9lHGuLNrtNzP0sd7v7e0x5bWzYYnt7sa6RHhyN45868SOnXkTindtZqVu73cxZwlq3ri9iqj/a2bGNu69Y7OnVfbsu6NVFX0VFW79nzjlfMNPkefFe0+SLRFvqZ0t+oxI6v8IfE/oK156u5FzLZbemuuW2G19vw7dNzj7+C2nl7uSeGk9kwwuVJHIAAAAAAAAAy3ofAfNnJ7oF0DirfNpr2e328li9ayj8KiPRqtfNnZa8WGrRuRyKjpJ2NVF+kp+65ryzY6/K8+LHMeSbRr9T2z70L+6X8LPEjrWa/iryPmm+w37MmPb5Jw8fLOaaxirHpteIb28afCY8jNsdWs77ktO4sxsnRbMV/JN2vZIWOX0dDidbfNhZndvqrZMrA5PRPp69LW3vX3J9vrG0rkz39EdyvzbfC/0ZZP8ARvsHeL3PrUzdUZuX8j2c/PRfJ8q3ER6MW3mcM+5bc0mOzt10kb4m+FP45aItW9vMuxcuZqHsfImetuwGr+/G5HMlr65gZobTo+qfWiuX7sT09FaqehZ2/wCvOcbrWm17m3xz8WO9b6q3D34rWWX3QfsMeEHS/c3XU1t5z/mNdJn19vUbbvR2TXb4Ji0x565c+as+WNEi+r6jqukYivgNN1rA6pg6qdK2H1zE0MLjYfREV0dLHQV67XuRE6u7eq/hUs/PuM+5yTl3N75Ms9s2mbT82WXfJOQcj6a2FOVdO7Pa7DlmP53Ft8VMOOPcpjrWuvnnTWfK9CdKrAAAAAAAAAAAAAAAAAAAAAAADAvMHjFwVzvA9vJnHWBzmSWJIodkrQvw+11WtaqRNh2XEvp5d8MKr3Ngllkrqv8AWjX6Cq8u53zTlU/0LNetPizxrP72dY9+I19KLfEHwW8MPFDFMdZ8o2u53mmkbisTi3VdOzTcYpplmI7Ypa1sevbSUWXLXwdYZHW8jwhyksHcr31tW5JpukiarnK/249u16sszImNXtY2TFSO9E75V9VL65f4iTGlOZ4NfPbHP8C0/wAL3mD/AF5+j3x2nJu/DXnfd7ZrtuYU1jz6RusFdYiOysW21p+NftlHHyV4KeVPFz7Mmb4j2LOYusj5Pz5o7I92xslaPr323s1197J4+uztVXLcrVnNancrUaqKt47LqnkW+iIxbilbz9Df4E6+b4WkT70yxB6x9mHxx6Ite/MuQbvc7Kms+u2URvMc1jtvMbeb5MdY46+tx45iOMxEaS1Pt1LVCxNTvVrFO3Xesc9W3DJXsQSIiKrJoJmsljeiL9DkRSv1tW0d6sxNZ8sIJz4M+1zW2+5pfHnpOlq2ia2ifNMTpMT7sOOfXSAAAAAAAAcmnTuZC1BSoVbN67ZkSKtUpwS2bViV39WOCvC18ssjvwI1FVTja1aVm15iKx2zPCHdt9vuN3nrttrjvl3N50rSlZta0+atYiZmfRENo+PvCHyo5LWB+v8ADO2UKNhEe3K7dXh0nHewvb/7mOba5sRJch6O6p9nZM56de1F6KUPd9Tci2WsZtzjm0eSnw59z4Gunv6Ju6T9mrxx6ymtuU9O7/Ftr8Yy7qsbPH3fjRO6nFN483q4vM+SJb8cZfB03K86C5y9yrgter/ipJcJoeOt7FkZY3IqyV5c3mmYShjbMfp1dHVvxqvVE6p0ctqb3xE21da8vwXvPxrzFY+pjvTMe/VlN0X+j26h3U03HX/PdrtMXCZw7LHbcZJie2s5s0YaY7R564s9dddNY4pH+Jvh7+LPEi1LlPj2Hd89VWJ7dh5InZtltZoVR0ViPETwV9Vp2I5frtkgx8UjXdFR31W9LN3/AFdz3mGtbZpxYp+hx/Aj5vz0+/aWYPQfsneCHQU49xt+U15lzTHpPr+YTG6trHGLRitWu2paJ4xamCtonTjwjTdOGGGtDFXrxRQV4Io4YIIY2xQwwxNRkUUUTEayOKNjURrURERE6IW3MzadZ4zLI7Hjx4cdcWKta4q1iK1iIiIiI0iIiOEREcIiOEQ/U+OYAAAAAAAAAAAAAAAAAAAAAAAAAAAAAAAAAAAAAAAAAAAAAAAAAAAAAAAAAAAAAAAAAAAAAAAAAAAAAAAAAAAAAAAAAAAAAAYP3bxo8feRfffufDfHWbt2f+dlH6ti6Wcd/T0z2Nr080zr0/4Z0Kntudc32ekbbc5q1jyd6Zr9TOsfqI06k8GvCjq/vW6i6d5Ruc9+3LO2xUzT/wDn460zR714avbN8LfxDz7pH47VNq058jnOVdZ3bNyNa5ysVVji2iXZoY2orV6Na1Gp3qiIiI1G1zB1z1Di+fyY8n7qlf4PdQnzr2I/AHmszbabDfcvtM6/0beZp7dOyNzO4iOyeERpGs6RppphTLfBz4Umeq4PlPlLHR97VRuWbqeZekaRoj2rJTwOBar3TfWR3aiI36vRV+sVPH4i8yiPsuDBM+jvx+vayN99+j28N8lteWc855hprHDL8lzTppx40wYOOvGJ04Rw0meLH9z4MWIfE1Mf5C5KtN7iK6S5xlVvRLF2uRzGwwb1jntkV6tVHd6oiIqdq9eqeuviRkifh7Osx6Mkx/Alam4/R1bC1Ija9W5qZNe2/Lq3jTjw0je4511046z5eHHWOt+S7/qT/k7/AJpnP8pH/Rfy3/CeP/Lm/wDMf7p/7m9LT+DPp7JGrkOdtlswoxUcynpGLoyLJ0To5ss2wZFrWIv/AAqxVX+k6beI+4mPgbWkT6bzP8GFZ2/6O3p+t4nd9Uby+PTjFNnjpOvuznyRp6O7PusiYX4Pvj3U9t+c33lzMyMbH3R1cnqWIpyvSNWzK+JNRv20jfIqOYjbDVZ06K5/0njyeIfN7cMWLb1j0xeZ/wBeI/UXby79H54T4NLcy5pz/cXiI1iuTa4qTOnHWPkt7aTPGIi8THZM2Zt1n4Zvh7rro5bHHOR2ezEqKyfZty2qy3r2uaqyUcZlcTirCOR3qkld7UVEVERUKZn616izcIzVpH0tK/rzEz+qknk3sZez7yiYvl5Rm3uavZbcbvdW+bTHlxYra+a1JjyxENltN8eeCePlik0vh/jjXbUSMRuRx+n4NuXckfVWe7mZKUmVnViqqor5nKiqvT6Si7nm/Nd3w3O4zXr5pvbT5mun6iZenvCXww6TmL9OdP8AJ9pnrppkx7TDGXh2a5ppOWdPJreWYinJCAAAAAAAAAAAAAAAAAAAAAAAAAAAAAAADxO4cacdchV/su+aHp251/bWNse061h88kbOjunsrk6dl0Dm96q1zFa5qr1RUU9O33u82c97a5cmOfpbTX9aYW31B0b0j1Zi9R1Ryvl/McWmmm52+LPpHo9ZS2mmvCY0mJ4xxao7b8OHw/2x8k7uKma5ckVvW1qWybNg2NRv/DHi4srLgo0d+FUqI7/aV/b9ZdQ7eNPX9+vmvWtv1dO9+qgrn3sf+z9z605Z5HGz3E/RbXcbjDHuRijLOCPexa+lrvn/AIPfAt1zpNd5D5VwTndq+1ft6tnasaore5ImN1vE2u1zEX+vM9UcvXr0+qVfF4h81rwzYcFvci1Z/wBaY/URJzT9H14W7i025Rzbnu1mfJe22zVj3I+T4rdnnvPHjrpwYdyvwYv6z8H5C/8AoRtbK8Zf/mPddp71/wDZb9n/AN7io4/EjyZdn78ZP2Jp+yj3ffo6vouW9W+b4OXl3zZ79N78yO577xc/wa+RWzSNrc1aVNAjvxUs+t5yvM9v9MkEdq0yN3X8CSP/AN56Y8Rtnp8LbZYn91Wf2IW5l/R4dXRkmMPUnLrYteE22+aszHpiLWiPqp9122I+DLtEyr+fue8BjU7n9FxGg5HNqrUaxY1VLm06+iOc9XIqdV7URFRV69E68niPgj/ZbS9vdyRX9atnv2H6OzneSf8A7p1TtcMaz/stjkzcNI0+f3ODy66+aNJ1nXSMqYj4NnHMPT8/807tkvrO7vzRrmCwfVqxtRiJ9ts7B2ubKiuVfXq1Ub0RU7l8OTxG3k/7LbYq+7a1v1oqvjl/6PDpDH//AFXqPmWbjP8Astvgw8NOHz9s/l1mZ8scNInjOWsH8JPxaxStdkchypsyovc9uX2zEVYnKqRdWtbr2sYSVsXVi9EV7nJ3r1cvRvSn5ev+eZPnIwU9ykz/AK1rL85Z7BfgjsdJ3mbnm9nyxl3WKseTs9RtsMxHCdPhTPGdZnhpnPWPh9eH+qKySlwrg8nO1F7ptny2zbUkqr2dXPqbBmshjmr9RPRkLWp69E9V60vP1b1Dn4W3Nqx9LFa/q1rE/qpO5L7KHs/cimL7bpzbZssds7nLuNzr2dtM+bJj8nkpEdvDjOuzuq8f6HokDqukaTqOm1nsSN9fVdbw2vQPYnZ0Y6LEUqcbmJ7bfRU6fVT+gomfd7rdT3t1lyZLfTWm368ymnkXSnS/S+KcPTXLdhy7DMaTXa7fDgrMcOExipSNOEfMh6486vgAAAAAAAAAAAAAAAAAAAAAAAAAAAAAAAAAAAAAAAAAAAAAAAAAAAAAAAAAAAAAAAAAAAAAAAAAAAAAAAAAAAAAAAAAAAAAAAAAAAAAAAAAAAAAAAAAAAAAAAAAAAAAAAAAAAAAAAAAAAAAAAAAAAAAAAAAAAAAAAAAAAAAAAAAAAAAAAAAAAAAAAAAAAAAAAAAAAAAAAAAAAAAAAAAAAAAAAAAAAAAAAAAAAAAAAAAAAAAAAAAAAAAAAAAAAAAAAAAAAAAAAAAAAAAAAAAAAAAAAAAAAAAAAAAAAAAAAAAAAAAAAAAAAAAAAAAAAAAAAAAAAAAAAAAAAAAAAAAAAAAAAAAAAAAAAAAAAAAAAAAAAAAAAAAAAAAAAAAAAAAAAAAAAAAAAAAAAAAAAAAAAAAAAAAAAAAAAAAAAAAAAAAAAAAAAAAAAAAAAAAAAAAAAAAAAAAAAAAAAAAAAAAAAAAAAAAAAAAAAAAAAAAAAAAAAAAAAAAAAAAAAAAAAAAAAAAAAAAAAAAAAAAAAAAAAAAAAAAAAAAAAAAAAAAAAAAAAAAAAAAAAAAAAAAAAAAAAAAAAAAAAAAAAAAAAAAAAAAAAAAAAAAAAAAAAAAAAAAAAAAAAAAAAAAAAAAAAAAAAAAAAAAAAAAAAAAAAAAAAAAAAAAAAAAAAAAAAAAAAAAAAAAAAAAAAAAAAAAAAAAAAAAAAAAAAAAAAAAAAAAAAAAAAAAAAAAAAAAAAAAAAAAAAAAAAAAAAAAAAAAAAAAAAAAAAAAAAAAAAAAAAAAAAAAAAAAAAAAAAAAAAAAAAAAAAAAAAAAAAAAAAAAAAAAAAAAAAAAAAAAAAAAAAAAAAAAAAAAAAAAAAAAAAAAAAAAAAAAAAAAAAAAAAAAAAAAAAAAAAAAAAAAAAAAAAAAAAAAAAAAAAAAAAAAAAAAAAAAAAAAAAAAAAAAAAAAAAAAAAAAAAAAAAAAAAAAAAAAAAAAAAAAAAAAAAAAAAAAAAAAAAAAAAAAAAAAAAAAAAAAAAAAAAAAAAAAAAAAAAAAAAAAAAAAAAAAAAAAAAAAAAAAAAAAAAAAAAAAAAAAAAAAAAAAAAAAAAAAAAAAAAAAAAAAAAAAAAAAAAAAAAAAAAAAAAAAAAAAAAAAAAAAAAAAAAAAAAAAAAAAAAAAAAAAAAAAAAAAAAAAAAAAAAAAAAAAAAAAAAAAAAAAAAAAAAAAAAAAAAAAAAAAAAAAAAAAAAAAAAAAAAAAAAAAAAAAAAAAAAAAAAAAAAAAAAAAAAAAAAAAAAAAAAAAAAAAAAAAAAAAAAAAAAAAAAAAAAAAAAAAAAAAAAAAAAAAAAAAAAAAAAAAAAAAAAAAAAAAAAAAAAAAAAAAAAAAAAAAAAAAAAAAAAAAAAAAAAAAAAAAAAAAAAAAAAAAAAAAAAAAAAAAAAAAAAAAAAAAAAAAAAAAAAAAAAAAAAAAAAAAAAAAAAAAAAAAAAAAAAAAAAAAAAAAAAAAAAAAAAAAAAAAAAAAAAAAAAAAAAAAAAAAAAAAAAAAAAAAAAAAAAAAAAAAAAAAAAAAAAAAAAAAAAAAAAAAAAAAAAAAAAAAAAAAAAAAAAAAAAAAAAAAAAAAAAAAAAAAAAAAAAAAAAAAAAAAAAAAAAAAAAAAAAAAAAAAAAAAAAAAAAAAAAAAAAAAAAAAAAAAAAAAAAAAAAAAAAAAAAAAAAAAAAAAAAAAAAAAAAAAAAAAAAAAAAAAAAAAAAAAAAAAAAAAAAAAAAAAAAAAAAAAAAAAAAAAAAAAAAAAAAAAAAAAAAAAAAAAAAAAAAAAAAAAAAAAAAAAAAAAAAAAAAAAAAAAAAAAAAAAAAAAAAAAAAAAAAAAAAAAAAAAAAAAAAAAAAAAAAAAAAAAAAAAAAAAAAAAAAAAAAAAAAAAAAAAAAAAAAAAAAAAAAAAAAAAAAAAAAAAAAAAAAAAAAAAAAAAAAAAAAAAAAAAAAAAAAAAAAAAAAAAAAAAAAAAAAAAAAAAAAAAAAAAAAAAAAAAAAAAAAAAAAAAAAAAAAAAAAAAAAAAAAAAAAAAAAAAAAAAAAAAAAAAAAAAAAAAAAAAAAAAAAAAAAAAAAAAAAAAAAAAAAAAAAAAAAAAAAAAAAAAAAAAAAAAAAAAAAAAAAAAAAAAAAAAAAAAAAAAAAAAAAAAAAAAAAAAAAAAAAAAAAAAAAAAAAAAAAAAAAAAAAAAAAAAAAAAAAAAAAAAAAAAAAAAAAAAAAAAAAAAAAAAAAAAAAAAAAAAAAAAAAAAAAAAAAAAAAAAAAAAAAAAAAAAAAAAAAAAAAAAAAAAAAAAAAAAAAAAAAAAAAAAAAAAAAAAAAAAAAAAAAAAAAAAAAAAAAAAAAAAAAAAAAAAAAAAAAAAAAAAAAAAAAAAAAAAAAAAAAAAAAAAAAAAAAAAAAAAAAAAAAAAAAAAAAAAAAAAAAAAAAAAAAAAAAAAAAAAAAAAAAAAAAAAAAAAAAAAAAAAAAAAAAAAAAAAAAAAAAAAAAAAAAAAAAAAAAAAAAAAAAAAAAAAAAAAAAAAAAAAAAAAAAAAAAAAAAAAAAAAAAAAAAAAAAAAAAAAAAAAAAAAAAAAAAAAAAAAAAAAAAAAAAAAAAAAAAAAAAAAAAAAAAAAAAAAAAAAAAAAAAAAAAAAAAAAAAAAAAAAAAAAAAAAAAAAAAAAAAAAAAAAAAAAAAAAAAAAAAAAAAAAAAAAAAAAAAAAAAAAAAAAAAAAAAAAAAAAAAAAAAAAAAAAAAAAAAAAAAAAAAAAAAAAAAAAAAAAAAAAAAAAAAAAAAAAAAAAAAAAAAAAAAAAAAAAAAAAAAAAAAAAAAAAAAAAAAAAAAAAAAAAAAAAAAAAAAAAAAAAAAAAAAAAAAAAAAAAAAAAAAAAAAAAAAAAAAAAAAAAAAAAAAAAAAAAAAAAAAAAAAAAAAAAAAAAAAAAAAAAAAAAAAAAAAAAAAAAAAAAAAAAAAAAAAAAAAAAAAAAAAAAAAAAAAAAAAAAAAAAAAAAAAAAAAAAAAAAAAAAAAAAAAAAAAAAAAAAAAAAAAAAAAAAAAAAAAAAAAAAAAAAAAAAAAAAAAAAAAAAAAAAAAAAAAAAAAAAAAAAAAAAAAAAAAAAAAAAAAAAAAAAAAAAAAAAAAAAAAAAAAAAAAAAAAAAAAAAAAAAAAAAAAAAAAAAAAAAAAAAAAAAAAAAAAAAAAAAAAAAAAAAAAAAAAAAAAAAAAAAAAAAAAAAAAAAAAAAAAAAAAAAAAAAAAAAAAAAAAAAAAAAAAAAAAAAAAAAAAAAAAAAAAAAAAAAAAAAAAAAAAAAAAAAAAAAAAAAAAAAAAAAAAAAAAAAAAAAAAAAAAAAAAAAAAAAAAAAAAAAAAAAAAAAAAAAAAAAAAAAAAAAAAAAAAAAAAAAAAAAAAAAAAAAAAAAAAAAAAAAAAAAAAAAAAAAAAAAAAAAAAAAAAAAAAAAAAAAAAAAAAAAAAAAAAAAAAAAAAAAAAAAAAAAAAAAAAAAAAAAAAAAAAAAAAAAAAAAAAAAAAAAAAAAAAAAAAAAAAAAAAAAAAAAAAAAAAAAAAAAAAAAAAAAAAAAAAAAAAAAAAAAAAAAAAAAAAAAAAAAAAAAAAAAAAAAAAAAAAAAAAAAAAAAAAAAAAAAAAAAAAAAAAAAAAAAAAAAAAAAAAAAAAAAAAAAAAAAAAAAAAAAAAAAAAAAAAAAAAAAAAAAAAAAAAAAAAAAAAAAAAAAAAAAAAAAAAAAAAAAAAAAAAAAAAAAAAAAAAAAAAAAAAAAAAAAAAAAAAAAAAAAAAAAAAAAAAAAAAAAAAAAAAAAAAAAAAAAAAAAAAAAAAAAAAAAAAAAAAAAAAAAAAAAAAAAAAAAAAAAAAAAAAAAAAAAAAAAAAAAAAAAAAAAAAAAAAAAAAAAAAAAAAAAAAAAAAAAAAAAAAAAAAAAAAAAAAAAAAAAAAAAAAAAAAAAAAAAAAAAAAAAAAAAAAAAAAAAAAAAAAAAAAAAAAAAAAAAAAAAAAAAAAAAAAAAAAAAAAAAAAAAAAAAAAAAAAAAAAAAAAAAAAAAAAAAAAAAAAAAAAAAAAAAAAAAAAAAAAAAAAAAAAAAAAAAAAAAAAAAAAAAAAAAAAAAAAAAAAAAAAAAAAAAAAAAAAAAAAAAAAAAAAAAAAAAAAAAAAAAAAAAAAAAAAAAAAAAAAAAAAAAAAAAAAAAAAAAAAAAAAAAAAAAAAAAAAAAAAAAAAAAAAAAAAAAAAAAAAAAAAAAAAAAAAAAAAAAAAAAAAAAAAAAAAAAAAAAAAAAAAAAAAAAAAAAAAAAAAAAAAAAAAAAAAAAAAAAAAAAAAAAAAAAAAAAAAAAAAAAAAAAAAAAAAAAAAAAAAAAAAAAAAAAAAAAAAAAAAAAAAAAAAAAAAAAAAAAAAAAAAAAAAAAAAAAAAAAAAAAAAAAAAAAAAAAAAAAAAAAAAAAAAAAAAAAAAAAAAAAAAAAAAAAAAAAAAAAAAAAAAAAAAAAAAAAAAAAAAAAAAAAAAAAAAAAAAAAAAAAAAAAAAAAAAAAAAAAAAAAAAAAAAAAAAAAAAAAAAAAAAAAAAAAAAAAAAAAAAAAAAAAAAAAAAAAAAAAAAAAAAAAAAAAAAAAAAAAAAAAAAAAAAAAAAAAAAAAAAAAAAAAAAAAAAAAAAAAAAAAAAAAAAAAAAAAAAAAAAAAAAAAAAAAAAAAAAAAAAAAAAAAAAAAAAAAAAAAAAAAAAAAAAAAAAAAAAAAAAAAAAAAAAAAAAAAAAAAAAAAAAAAAAAAAAAAAAAAAAAAAAAAAAAAAAAAAAAAAAAAAAAAAAAAAAAAAAAAAAAAAAAAAAAAAAAAAAAAAAAAAAAAAAAAAAAAAAAAAAAAAAAAAAAAAAAAAAAAAAAAAAAAAAAAAAAAAAAAAAAAAAAAAAAAAAAAAAAAAAAAAAAAAAAAAAAAAAAAAAAAAAAAAAAAAAAAAAAAAAAAAAAAAAAAAAAAAAAAAAAAAAAAAAAAAAAAAAAAAAAAAAAAAAAAAAAAAAAAAAAAAAAAAAAAAAAAAAAAAAAAAAAAAAAAAAAAAAAAAAAAAAAAAAAAAAAAAAAAAAAAAAAAAAAAAAAAAAAAAAAAAAAAAAAAAAAAAAAAAAAAAAAAAAAAAAAAAAAAAAAAAAAAAAAAAAAAAAAAAAAAAAAAAAAAAAAAAAAAAAAAAAAAAAAAAAAAAAAAAAAAAAAAAAAAAAAAAAAAAAAAAAAAAAAAAAAAAAAAAAAAAAAAAAAAAAAAAAAAAAAAAAAAAAAAAAAAAAAAAAAAAAAAAAAAAAAAAAAAAAAAAAAAAAAAAAAAAAAAAAAAAAAAAAAAAAAAAAAAAAAAAAAAAAAAAAAAAAAAAAAAAAAAAAAAAAAAAAAAAAAAAAAAAAAAAAAAAAAAAAAAAAAAAAAAAAAAAAAAAAAAAAAAAAAAAAAAAAAAAAAAAAAAAAAAAAAAAAAAAAAAAAAAAAAAAAAAAAAAAAAAAAAAAAAAAAAAAAAAAAAAAAAAAAAAAAAAAAAAAAAAAAAAAAAAAAAAAAAAAAAAAAAAAAAAAAAAAAAAAAAAAAAAAAAAAAAAAAAAAAAAAAAAAAAAAAAAAAAAAAAAAAAAAAAAAAAAAAAAAAAAAAAAAAAAAAAAAAAAAAAAAAAAAAAAAAAAAAAAAAAAAAAAAAAAAAAAAAAAAAAAAAAAAAAAAAAAAAAAAAAAAAAAAAAAAAAAAAAAAAAAAAAAAAAAAAAAAAAAAAAAAAAAAAAAAAAAAAAAAAAAAAAAAAAAAAH/2Q==;" vertex="1" parent="1">
                    <mxGeometry x="430" y="130" width="90.58" height="80" as="geometry"/>
                </mxCell>
                <mxCell id="8" value="" style="shape=image;verticalLabelPosition=bottom;labelBackgroundColor=#ffffff;verticalAlign=top;aspect=fixed;imageAspect=0;image=data:image/svg+xml,PHN2ZyB4bWxucz0iaHR0cDovL3d3dy53My5vcmcvMjAwMC9zdmciIGRhdGEtbmFtZT0iTGF5ZXIgMSIgdmlld0JveD0iMCAwIDIzIDIwLjQ2MzQ4Ij48dGl0bGU+bG9nbzwvdGl0bGU+PHBhdGggZD0iTTE4LjkxIDYuNjMzcS0uMzY3LS4xMjYtLjc0LS4yMzQuMDYyLS4yNTIuMTE1LS41MDZjLjU2LTIuNzIuMTk0LTQuOTEyLTEuMDU4LTUuNjM0LTEuMi0uNjkyLTMuMTYyLjAzLTUuMTQ0IDEuNzU1cS0uMjkzLjI1NS0uNTcyLjUyNS0uMTg3LS4xOC0uMzgtLjM1MkM5LjA1My4zNDQgNi45Ny0uNDMyIDUuNzIuMjkgNC41MjMuOTg0IDQuMTY4IDMuMDQ1IDQuNjcgNS42MjNxLjA3Ny4zODMuMTcuNzYyYy0uMjkzLjA4NC0uNTc4LjE3My0uODUuMjY4LTIuNDM1Ljg1LTMuOTkgMi4xOC0zLjk5IDMuNTYgMCAxLjQyNSAxLjY3IDIuODU1IDQuMjA2IDMuNzJxLjMwOC4xMDYuNjIyLjE5Ni0uMTAyLjQwNy0uMTguODJjLS40ODIgMi41MzMtLjEwNiA0LjU0NSAxLjA5IDUuMjM1IDEuMjM0LjcxMiAzLjMwNi0uMDIgNS4zMjUtMS43ODRxLjI0LS4yMDguNDgtLjQ0Mi4zMDIuMjkzLjYyLjU2OGMxLjk1NiAxLjY4MiAzLjg4NiAyLjM2IDUuMDggMS42NyAxLjIzNS0uNzE1IDEuNjM2LTIuODc2IDEuMTE1LTUuNTA1cS0uMDYtLjMtLjEzOC0uNjE0LjIxOC0uMDY0LjQyOC0uMTMzQzIxLjI4NSAxMy4wNyAyMyAxMS42NTcgMjMgMTAuMjEzYzAtMS4zODYtMS42MDUtMi43MjUtNC4wOS0zLjU4ek0xMi43MyAyLjc1NmMxLjY5OC0xLjQ3OCAzLjI4NS0yLjA2IDQuMDEtMS42NDQuNzcuNDQ0IDEuMDY4IDIuMjM1LjU4NCA0LjU4NHEtLjA0Ny4yMy0uMTAzLjQ1N2EyMy41MzggMjMuNTM4IDAgMCAwLTMuMDc2LS40ODZBMjMuMDggMjMuMDggMCAwIDAgMTIuMiAzLjI0cS4yNTgtLjI0OC41MjgtLjQ4NHpNNi43OSAxMS4zOXEuMzEzLjYwNC42NTMgMS4xOS4zNDcuNi43MjIgMS4xODNhMjAuOTIyIDIwLjkyMiAwIDAgMS0yLjEyLS4zNGMuMjA0LS42NTcuNDU0LTEuMzQuNzQ2LTIuMDMyem0wLTIuMzFjLS4yODYtLjY3OC0uNTMtMS4zNDUtLjczLTEuOTkuNjU1LS4xNDcgMS4zNTUtLjI2NyAyLjA4NC0uMzU4cS0uMzY2LjU3LS43MDUgMS4xNi0uMzQuNTg2LS42NSAxLjE4OHptLjUyMiAxLjE1NnEuNDU0LS45NDUuOTgtMS44NTQuNTIyLS45MSAxLjExNC0xLjc3NWMuNjg0LS4wNTIgMS4zODUtLjA4IDIuMDk0LS4wOC43MTIgMCAxLjQxNC4wMjggMi4wOTguMDhxLjU4NS44NjUgMS4xMDggMS43Ny41MjYuOTA2Ljk5MiAxLjg0NS0uNDYuOTQ4LS45ODggMS44NjItLjUyMy45MDgtMS4xMDQgMS43OGMtLjY4Mi4wNS0xLjM4Ny4wNzQtMi4xMDYuMDc0LS43MTYgMC0xLjQxMi0uMDIyLTIuMDgyLS4wNjZxLS41OTYtLjg3LTEuMTI0LTEuNzgzLS41MjYtLjkxLS45ODItMS44NTR6bTguMjUgMi4zNHEuMzQ2LS42MDMuNjY2LTEuMjJBMjAuODY3IDIwLjg2NyAwIDAgMSAxNyAxMy4zOGEyMC44NTIgMjAuODUyIDAgMCAxLTIuMTQ1LjM2NXEuMzY0LS41NzguNzA2LTEuMTd6bS42NTYtMy40OTVxLS4zMTgtLjYwNC0uNjYtMS4xOTYtLjMzOC0uNTgyLS43LTEuMTVjLjczMy4wOTMgMS40MzYuMjE2IDIuMDk3LjM2N2EyMC45NiAyMC45NiAwIDAgMS0uNzM3IDEuOTh6TTExLjUxIDMuOTQ1YTIxLjAxMyAyMS4wMTMgMCAwIDEgMS4zNTQgMS42MzRxLTEuMzU4LS4wNjUtMi43MTggMGMuNDQ3LS41OS45MDUtMS4xMzggMS4zNjUtMS42MzR6TTYuMjE0IDEuMTRjLjc3LS40NDUgMi40Ny4xOSA0LjI2NCAxLjc4My4xMTUuMTAyLjIzLjIwOC4zNDUuMzE4YTIzLjU0NSAyMy41NDUgMCAwIDAtMS45NiAyLjQyNiAyNC4wMDggMjQuMDA4IDAgMCAwLTMuMDY4LjQ3N3EtLjA4OC0uMzUyLS4xNTgtLjcxdi4wMDJjLS40MzMtMi4yMS0uMTQ2LTMuODc2LjU3Ny00LjI5NHpNNS4wOSAxMy4xODNxLS4yODUtLjA4Mi0uNTY2LS4xNzdBOC4zMjQgOC4zMjQgMCAwIDEgMS44NCAxMS41OGEyLjAzIDIuMDMgMCAwIDEtLjg1Ny0xLjM2OGMwLS44MzcgMS4yNDgtMS45MDUgMy4zMy0yLjYzcS4zOTMtLjEzOC43OTItLjI1YTIzLjU2NSAyMy41NjUgMCAwIDAgMS4xMiAyLjkwNCAyMy45MjIgMjMuOTIyIDAgMCAwLTEuMTM0IDIuOTQ2em01LjMyNiA0LjQ4YTguMzIyIDguMzIyIDAgMCAxLTIuNTc1IDEuNjEgMi4wMyAyLjAzIDAgMCAxLTEuNjEyLjA2MmMtLjcyNS0uNDItMS4wMjctMi4wMzQtLjYxNi00LjJxLjA3NC0uMzg1LjE2OC0uNzY0YTIzLjEwNCAyMy4xMDQgMCAwIDAgMy4xLjQ0OCAyMy45MSAyMy45MSAwIDAgMCAxLjk3NCAyLjQ0cS0uMjE0LjIwNy0uNDM4LjQwM3ptMS4xMjItMS4xMTJjLS40NjYtLjUwMi0uOTMtMS4wNTgtMS4zODQtMS42NTZxLjY2LjAyNiAxLjM0Ni4wMjYuNzAzIDAgMS4zODgtLjAzYTIwLjg5NCAyMC44OTQgMCAwIDEtMS4zNSAxLjY2em01Ljk2NyAxLjM2N2EyLjAzIDIuMDMgMCAwIDEtLjc1MyAxLjQyOGMtLjcyNS40Mi0yLjI3NS0uMTI2LTMuOTQ3LTEuNTY0cS0uMjg3LS4yNDYtLjU3OC0uNTI2YTIzLjA5IDIzLjA5IDAgMCAwIDEuOTI4LTIuNDQ4IDIyLjkzNiAyMi45MzYgMCAwIDAgMy4xMTUtLjQ4cS4wNy4yODQuMTI0LjU1NmE4LjMyIDguMzIgMCAwIDEgLjExIDMuMDM1em0uODM0LTQuOTA3Yy0uMTI3LjA0Mi0uMjU2LjA4Mi0uMzg4LjEyYTIzLjA2IDIzLjA2IDAgMCAwLTEuMTY0LTIuOTEzIDIzLjA1IDIzLjA1IDAgMCAwIDEuMTItMi44N2MuMjM0LjA2Ny40NjMuMTQuNjgzLjIxNSAyLjEzLjczMiAzLjQyOCAxLjgxNiAzLjQyOCAyLjY1IDAgLjg5LTEuNDAzIDIuMDQ0LTMuNjggMi43OTh6IiBmaWxsPSIjNjFkYWZiIi8+PHBhdGggZD0iTTExLjUgOC4xNTlhMi4wNTQgMi4wNTQgMCAxIDEtMi4wNTQgMi4wNTJBMi4wNTQgMi4wNTQgMCAwIDEgMTEuNSA4LjE2IiBmaWxsPSIjNjFkYWZiIi8+PC9zdmc+;" vertex="1" parent="1">
                    <mxGeometry x="210" y="130" width="92" height="80" as="geometry"/>
                </mxCell>
            </root>
        </mxGraphModel>
    </diagram>
</mxfile>